<svg width="302" height="135" viewBox="0 0 302 135" fill="none" xmlns="http://www.w3.org/2000/svg">
<path d="M33 3H269C285.569 3 299 16.4315 299 33V57C299 73.5685 285.569 87 269 87H33C16.4315 87 3 73.5685 3 57V33C3 16.4315 16.4315 3 33 3Z" fill="#1FA47C" stroke="#428BCA" stroke-width="6"/>
<path d="M152.313 129.359L154.315 130.932L156.193 129.213C163.169 122.825 173.542 119.185 185.646 117.133C197.704 115.089 211.049 114.685 223.666 114.445C231.851 114.289 240.016 114.357 247.687 114.449C248.863 114.463 250.027 114.478 251.179 114.492C257.523 114.572 263.476 114.647 268.688 114.594C274.807 114.531 280.11 114.291 283.931 113.623C285.814 113.294 287.602 112.819 288.993 112.05C290.4 111.272 292 109.815 292 107.46V64V61H289H23H20V64V107.46C20 109.581 21.2462 111.061 22.6291 111.949C23.918 112.777 25.5588 113.273 27.2386 113.609C30.6439 114.292 35.3751 114.531 40.886 114.594C45.5253 114.647 50.8867 114.574 56.7164 114.496C57.8691 114.48 59.0401 114.464 60.2274 114.449C67.4417 114.357 75.3044 114.289 83.4901 114.445C96.1039 114.685 109.118 115.089 121.158 117.133C133.202 119.178 144.001 122.825 152.313 129.359Z" fill="white" stroke="#428BCA" stroke-width="6"/>
<path d="M115.501 77.135C116.438 77.9983 117.129 79.0343 117.573 80.243C118.017 81.427 118.19 82.611 118.091 83.795C117.992 84.9297 117.635 85.978 117.018 86.94C116.401 87.8773 115.464 88.5927 114.206 89.086C113.219 89.5053 112.245 89.8013 111.283 89.974C110.321 90.1467 109.26 90.2823 108.101 90.381C107.583 90.4303 107.139 90.4673 106.769 90.492C106.424 90.492 106.017 90.5043 105.548 90.529C105.449 90.529 105.277 90.529 105.03 90.529C104.808 90.529 104.648 90.5413 104.549 90.566V98.225C104.475 98.6937 104.376 99.1747 104.253 99.668C104.154 100.161 103.871 100.544 103.402 100.815C103.131 100.963 102.798 101.049 102.403 101.074C102.008 101.099 101.651 101.086 101.33 101.037C100.985 100.988 100.689 100.901 100.442 100.778C100.22 100.63 100.035 100.383 99.887 100.038C99.7883 99.816 99.6897 99.5693 99.591 99.298C99.517 99.002 99.48 98.6443 99.48 98.225V77.764C99.48 77.5913 99.4923 77.431 99.517 77.283C99.5417 77.135 99.5663 76.987 99.591 76.839C99.6403 76.7157 99.6773 76.58 99.702 76.432C99.7267 76.284 99.7637 76.1483 99.813 76.025C99.8623 75.9017 99.9117 75.7907 99.961 75.692C100.035 75.5933 100.121 75.507 100.22 75.433C100.343 75.3097 100.528 75.1987 100.775 75.1C101.046 75.0013 101.441 74.952 101.959 74.952H102.033C102.798 74.9027 103.649 74.8657 104.586 74.841C105.523 74.7917 106.3 74.804 106.917 74.878C107.262 74.9273 107.583 74.9643 107.879 74.989C108.175 74.989 108.459 75.0013 108.73 75.026C109.026 75.0507 109.322 75.0753 109.618 75.1C109.914 75.1247 110.21 75.1617 110.506 75.211C110.753 75.2603 110.975 75.2973 111.172 75.322C111.394 75.3467 111.616 75.3837 111.838 75.433C112.035 75.4823 112.245 75.5317 112.467 75.581C112.714 75.6303 112.936 75.7167 113.133 75.84C113.651 75.988 114.083 76.173 114.428 76.395C114.773 76.617 115.131 76.8637 115.501 77.135ZM113.281 83.24C113.306 82.648 113.182 82.13 112.911 81.686C112.664 81.242 112.307 80.872 111.838 80.576C111.369 80.28 110.839 80.0457 110.247 79.873C109.655 79.7003 109.063 79.577 108.471 79.503C108.323 79.503 108.113 79.503 107.842 79.503C107.595 79.4783 107.324 79.466 107.028 79.466C106.732 79.4413 106.448 79.429 106.177 79.429C105.93 79.4043 105.733 79.392 105.585 79.392C105.462 79.3673 105.314 79.355 105.141 79.355C104.968 79.355 104.771 79.355 104.549 79.355C104.574 80.1197 104.586 80.8597 104.586 81.575C104.586 82.2657 104.586 83.018 104.586 83.832C104.561 84.276 104.549 84.72 104.549 85.164C104.549 85.608 104.549 86.0397 104.549 86.459L106.843 86.422C107.435 86.422 108.089 86.385 108.804 86.311C109.519 86.237 110.198 86.089 110.839 85.867C111.48 85.645 112.023 85.3243 112.467 84.905C112.936 84.4857 113.207 83.9307 113.281 83.24ZM138.918 99.504C138.94 99.7307 138.918 99.946 138.85 100.15C138.804 100.286 138.736 100.399 138.646 100.49C138.578 100.581 138.487 100.671 138.374 100.762C138.17 100.898 137.92 101.023 137.626 101.136C137.444 101.181 137.263 101.215 137.082 101.238C136.923 101.283 136.753 101.283 136.572 101.238C136.209 101.215 135.892 101.079 135.62 100.83C135.234 100.513 134.917 100.161 134.668 99.776C134.554 99.5947 134.43 99.3907 134.294 99.164C134.158 98.9373 134.033 98.6993 133.92 98.45L130.146 91.276C129.964 91.276 129.783 91.2873 129.602 91.31C129.42 91.31 129.239 91.3213 129.058 91.344C128.582 91.3893 128.128 91.4007 127.698 91.378C127.29 91.3553 126.859 91.3553 126.406 91.378H125.76V97.532C125.76 97.7133 125.748 97.8833 125.726 98.042C125.726 98.2007 125.726 98.3707 125.726 98.552C125.726 98.6653 125.714 98.8127 125.692 98.994C125.692 99.1753 125.68 99.3453 125.658 99.504C125.612 99.7533 125.51 100.014 125.352 100.286C125.193 100.535 124.978 100.751 124.706 100.932C124.23 101.227 123.652 101.306 122.972 101.17C122.677 101.102 122.394 100.989 122.122 100.83C122.031 100.762 121.952 100.683 121.884 100.592C121.816 100.479 121.759 100.365 121.714 100.252C121.668 100.139 121.623 100.025 121.578 99.912C121.555 99.776 121.521 99.6513 121.476 99.538C121.408 99.3113 121.374 99.096 121.374 98.892V79.58C121.374 79.444 121.374 79.308 121.374 79.172C121.396 79.0133 121.419 78.8773 121.442 78.764C121.464 78.5147 121.544 78.2653 121.68 78.016C121.748 77.744 121.861 77.5513 122.02 77.438C122.156 77.302 122.36 77.1887 122.632 77.098C122.926 76.9847 123.346 76.9393 123.89 76.962C124.91 76.9847 125.918 76.996 126.916 76.996C127.913 76.996 128.91 77.0187 129.908 77.064C130.565 77.1093 131.256 77.1887 131.982 77.302C132.73 77.3927 133.421 77.5627 134.056 77.812C134.464 77.9707 134.838 78.1293 135.178 78.288C135.608 78.5373 135.948 78.7753 136.198 79.002C136.991 79.7273 137.592 80.6 138 81.62C138.408 82.64 138.612 83.6713 138.612 84.714C138.612 85.938 138.317 87.06 137.728 88.08C137.161 89.1 136.243 89.8593 134.974 90.358C134.928 90.4033 134.86 90.4373 134.77 90.46C134.702 90.46 134.645 90.4713 134.6 90.494L137.728 96.784L138.034 97.328C138.079 97.4187 138.136 97.5207 138.204 97.634C138.272 97.7473 138.328 97.8607 138.374 97.974C138.442 98.0873 138.498 98.212 138.544 98.348C138.612 98.484 138.68 98.6087 138.748 98.722C138.816 99.0393 138.872 99.3 138.918 99.504ZM130.418 87.4C130.826 87.4 131.211 87.332 131.574 87.196C131.959 87.0373 132.299 86.8333 132.594 86.584C132.911 86.3347 133.172 86.0513 133.376 85.734C133.58 85.394 133.693 85.0313 133.716 84.646C133.806 83.5127 133.512 82.674 132.832 82.13C132.152 81.5633 131.256 81.2573 130.146 81.212C129.488 81.1667 128.763 81.144 127.97 81.144C127.199 81.144 126.462 81.144 125.76 81.144C125.782 82.0733 125.782 83.0253 125.76 84C125.76 84.952 125.76 86.0853 125.76 87.4H130.418ZM148.019 77.744C149.537 77.1773 150.909 76.928 152.133 76.996C153.379 77.064 154.49 77.3813 155.465 77.948C156.439 78.492 157.267 79.2287 157.947 80.158C158.649 81.0873 159.216 82.13 159.647 83.286C159.987 84.1473 160.247 85.054 160.429 86.006C160.61 86.958 160.712 87.91 160.735 88.862C160.78 89.7913 160.746 90.7093 160.633 91.616C160.542 92.5227 160.383 93.3613 160.157 94.132C160.021 94.6533 159.862 95.1293 159.681 95.56C159.499 95.9907 159.284 96.4213 159.035 96.852C158.468 97.8267 157.731 98.62 156.825 99.232C155.941 99.844 154.966 100.275 153.901 100.524C153.175 100.705 152.427 100.796 151.657 100.796C150.886 100.773 150.127 100.671 149.379 100.49C148.631 100.286 147.905 100.003 147.203 99.64C146.523 99.2547 145.899 98.7787 145.333 98.212C144.63 97.532 144.052 96.75 143.599 95.866C143.145 94.9593 142.794 94.0187 142.545 93.044C142.295 92.0467 142.137 91.0493 142.069 90.052C142.001 89.0547 142.001 88.1027 142.069 87.196C142.137 86.3573 142.295 85.462 142.545 84.51C142.817 83.558 143.202 82.64 143.701 81.756C144.199 80.872 144.8 80.0787 145.503 79.376C146.228 78.6507 147.067 78.1067 148.019 77.744ZM155.975 92.296C156.247 91.2307 156.36 90.0293 156.315 88.692C156.269 87.3547 156.054 86.0967 155.669 84.918C155.419 84.1927 155.102 83.558 154.717 83.014C154.354 82.4473 153.912 82.0167 153.391 81.722C152.892 81.4273 152.303 81.28 151.623 81.28C150.943 81.28 150.183 81.484 149.345 81.892C148.846 82.1413 148.415 82.4813 148.053 82.912C147.713 83.3427 147.429 83.83 147.203 84.374C146.999 84.918 146.829 85.4847 146.693 86.074C146.579 86.6633 146.511 87.23 146.489 87.774C146.443 88.3633 146.432 88.9867 146.455 89.644C146.477 90.2787 146.545 90.9247 146.659 91.582C146.795 92.2167 146.976 92.8287 147.203 93.418C147.429 93.9847 147.735 94.4947 148.121 94.948C148.71 95.628 149.39 96.104 150.161 96.376C150.954 96.6253 151.736 96.6593 152.507 96.478C153.753 96.206 154.705 95.3787 155.363 93.996C155.635 93.4973 155.839 92.9307 155.975 92.296ZM181.74 87.332C181.786 88.08 181.774 88.8507 181.706 89.644C181.661 90.4373 181.582 91.208 181.468 91.956C181.242 93.248 180.822 94.506 180.21 95.73C179.598 96.954 178.703 97.9967 177.524 98.858C176.3 99.7647 174.906 100.388 173.342 100.728C171.778 101.045 170.226 101.238 168.684 101.306C168.163 101.351 167.63 101.363 167.086 101.34C166.565 101.34 166.055 101.283 165.556 101.17C165.148 101.102 164.842 100.977 164.638 100.796C164.525 100.728 164.434 100.637 164.366 100.524C164.298 100.411 164.242 100.297 164.196 100.184C164.128 100.071 164.072 99.9573 164.026 99.844C164.004 99.708 163.97 99.572 163.924 99.436C163.902 99.3227 163.879 99.2207 163.856 99.13C163.856 99.0167 163.856 98.9147 163.856 98.824V79.41C163.856 79.2513 163.856 79.104 163.856 78.968C163.856 78.832 163.879 78.696 163.924 78.56C163.97 78.2427 164.038 77.982 164.128 77.778C164.219 77.506 164.344 77.3133 164.502 77.2C164.638 77.0867 164.774 77.0073 164.91 76.962C165.046 76.894 165.171 76.8373 165.284 76.792C165.42 76.7467 165.556 76.7467 165.692 76.792C165.851 76.8147 166.021 76.7807 166.202 76.69L171.88 76.826C173.376 76.8713 174.714 77.2227 175.892 77.88C177.071 78.5147 178.08 79.3307 178.918 80.328C179.757 81.3253 180.414 82.4473 180.89 83.694C181.366 84.918 181.65 86.1307 181.74 87.332ZM175.416 93.792C175.847 93.112 176.164 92.33 176.368 91.446C176.572 90.562 176.663 89.6667 176.64 88.76C176.618 87.8307 176.493 86.9353 176.266 86.074C176.04 85.19 175.722 84.408 175.314 83.728C174.997 83.2293 174.589 82.8213 174.09 82.504C173.592 82.1867 173.036 81.9487 172.424 81.79C171.812 81.6087 171.155 81.484 170.452 81.416C169.772 81.348 169.104 81.314 168.446 81.314C168.469 81.9713 168.48 82.606 168.48 83.218C168.48 83.83 168.48 84.476 168.48 85.156C168.458 85.972 168.446 86.7653 168.446 87.536C168.446 88.3067 168.446 89.0547 168.446 89.78V96.716C169.149 96.6933 169.818 96.6593 170.452 96.614C171.11 96.546 171.733 96.41 172.322 96.206C172.934 96.002 173.49 95.7187 173.988 95.356C174.51 94.9707 174.986 94.4493 175.416 93.792ZM203.446 78.798C203.582 79.886 203.661 81.1553 203.684 82.606C203.707 84.034 203.684 85.4847 203.616 86.958C203.571 88.4087 203.469 89.7913 203.31 91.106C203.151 92.398 202.959 93.4407 202.732 94.234C202.573 94.71 202.381 95.2087 202.154 95.73C201.95 96.2287 201.723 96.682 201.474 97.09C201.111 97.702 200.669 98.246 200.148 98.722C199.627 99.1753 199.049 99.572 198.414 99.912C197.802 100.229 197.145 100.479 196.442 100.66C195.762 100.841 195.082 100.943 194.402 100.966C193.201 101.011 192.056 100.841 190.968 100.456C189.903 100.048 188.917 99.4133 188.01 98.552C187.33 97.8947 186.786 97.192 186.378 96.444C185.97 95.696 185.653 94.914 185.426 94.098C185.199 93.2593 185.052 92.398 184.984 91.514C184.939 90.63 184.916 89.7233 184.916 88.794C184.916 88.3633 184.905 87.8307 184.882 87.196C184.882 86.5387 184.882 85.87 184.882 85.19C184.882 84.4873 184.882 83.8073 184.882 83.15C184.882 82.4927 184.893 81.9373 184.916 81.484C184.916 81.1893 184.916 80.872 184.916 80.532C184.916 80.1693 184.927 79.818 184.95 79.478C184.995 79.1153 185.063 78.7753 185.154 78.458C185.245 78.118 185.381 77.812 185.562 77.54C185.766 77.2453 186.049 77.03 186.412 76.894C186.775 76.758 187.149 76.69 187.534 76.69C187.942 76.69 188.327 76.7693 188.69 76.928C189.053 77.0867 189.347 77.3133 189.574 77.608C189.687 77.7893 189.767 77.9707 189.812 78.152C189.857 78.3333 189.891 78.5373 189.914 78.764C189.959 79.512 189.982 80.362 189.982 81.314C190.005 82.266 190.005 83.1953 189.982 84.102C189.982 84.986 189.971 85.802 189.948 86.55C189.925 87.298 189.914 87.8533 189.914 88.216C189.914 89.576 189.982 90.8113 190.118 91.922C190.254 93.01 190.571 93.9167 191.07 94.642C191.523 95.2993 192.056 95.7187 192.668 95.9C193.28 96.0813 193.892 96.138 194.504 96.07C195.071 96.002 195.637 95.798 196.204 95.458C196.793 95.0953 197.258 94.574 197.598 93.894C197.734 93.6447 197.847 93.3613 197.938 93.044C198.029 92.7267 198.097 92.432 198.142 92.16C198.233 91.2987 198.312 90.3013 198.38 89.168C198.448 88.012 198.505 86.8333 198.55 85.632C198.595 84.4307 198.618 83.252 198.618 82.096C198.618 80.94 198.607 79.8973 198.584 78.968C198.629 78.56 198.754 78.186 198.958 77.846C199.139 77.5513 199.4 77.2907 199.74 77.064C200.08 76.8373 200.545 76.724 201.134 76.724C201.61 76.7467 201.995 76.8713 202.29 77.098C202.585 77.302 202.823 77.5287 203.004 77.778C203.208 78.0727 203.355 78.4127 203.446 78.798ZM224.825 95.288C225.119 95.9453 225.131 96.5913 224.859 97.226C224.587 97.838 224.156 98.4047 223.567 98.926C222.977 99.4473 222.297 99.9007 221.527 100.286C220.779 100.671 220.065 100.943 219.385 101.102C218.637 101.261 217.843 101.329 217.005 101.306C216.189 101.306 215.361 101.204 214.523 101C213.707 100.819 212.902 100.547 212.109 100.184C211.338 99.7987 210.624 99.334 209.967 98.79C209.173 98.1327 208.55 97.3507 208.097 96.444C207.666 95.5147 207.349 94.5287 207.145 93.486C206.941 92.4433 206.827 91.4007 206.805 90.358C206.805 89.2927 206.839 88.2953 206.907 87.366C206.975 86.5273 207.145 85.6547 207.417 84.748C207.689 83.8413 208.063 82.9573 208.539 82.096C209.037 81.212 209.627 80.396 210.307 79.648C211.009 78.9 211.825 78.2653 212.755 77.744C213.457 77.336 214.239 77.064 215.101 76.928C215.985 76.7693 216.869 76.7353 217.753 76.826C218.659 76.894 219.509 77.0867 220.303 77.404C221.119 77.6987 221.81 78.1067 222.377 78.628C222.739 78.9453 223.113 79.3873 223.499 79.954C223.907 80.5207 224.201 81.0987 224.383 81.688C224.564 82.2773 224.564 82.8327 224.383 83.354C224.224 83.8527 223.771 84.1927 223.023 84.374C222.705 84.4647 222.422 84.4873 222.173 84.442C221.923 84.374 221.697 84.272 221.493 84.136C221.289 83.9773 221.096 83.796 220.915 83.592C220.733 83.388 220.563 83.184 220.405 82.98C219.861 82.3227 219.226 81.8807 218.501 81.654C217.775 81.4047 217.05 81.348 216.325 81.484C215.622 81.5973 214.953 81.892 214.319 82.368C213.707 82.8213 213.231 83.4107 212.891 84.136C212.528 84.9067 212.233 85.7567 212.007 86.686C211.803 87.5927 211.689 88.522 211.667 89.474C211.644 90.4033 211.723 91.31 211.905 92.194C212.109 93.078 212.449 93.86 212.925 94.54C213.287 95.084 213.729 95.526 214.251 95.866C214.795 96.206 215.373 96.444 215.985 96.58C216.597 96.716 217.209 96.7387 217.821 96.648C218.455 96.5573 219.067 96.3533 219.657 96.036C219.838 95.9453 220.031 95.8207 220.235 95.662C220.461 95.4807 220.688 95.2993 220.915 95.118C221.141 94.9367 221.368 94.7667 221.595 94.608C221.844 94.4493 222.105 94.336 222.377 94.268C222.785 94.132 223.227 94.1433 223.703 94.302C224.201 94.4607 224.575 94.7893 224.825 95.288ZM245.203 77.982C245.452 78.2767 245.577 78.5827 245.577 78.9C245.577 79.036 245.566 79.1833 245.543 79.342C245.543 79.478 245.532 79.6027 245.509 79.716C245.441 79.9653 245.294 80.2033 245.067 80.43C244.886 80.566 244.636 80.668 244.319 80.736C244.16 80.7813 244.002 80.8153 243.843 80.838C243.684 80.8607 243.514 80.8947 243.333 80.94C243.174 80.9627 243.016 80.974 242.857 80.974C242.698 80.974 242.528 80.974 242.347 80.974H240.613C240.205 80.9967 239.797 81.008 239.389 81.008C239.004 81.008 238.618 81.008 238.233 81.008C238.256 81.7107 238.267 82.47 238.267 83.286C238.267 84.0793 238.256 85.0087 238.233 86.074C238.233 87.1393 238.222 88.3747 238.199 89.78C238.199 91.1853 238.199 92.8173 238.199 94.676V97.26C238.199 97.4867 238.21 97.6567 238.233 97.77C238.233 97.8607 238.233 97.9513 238.233 98.042C238.233 98.11 238.222 98.2007 238.199 98.314C238.154 98.518 238.12 98.756 238.097 99.028C238.097 99.1413 238.086 99.2547 238.063 99.368C238.04 99.4587 238.006 99.5607 237.961 99.674C237.87 99.7647 237.825 99.8327 237.825 99.878L237.723 100.082C237.61 100.309 237.394 100.524 237.077 100.728C236.578 100.977 236.023 101.034 235.411 100.898C235.026 100.853 234.731 100.751 234.527 100.592C234.323 100.388 234.176 100.184 234.085 99.98C233.949 99.7307 233.87 99.4927 233.847 99.266C233.779 99.062 233.745 98.8467 233.745 98.62V81.144C233.609 81.144 233.326 81.144 232.895 81.144C232.464 81.144 232 81.144 231.501 81.144C231.025 81.1213 230.572 81.0987 230.141 81.076C229.71 81.0533 229.416 81.0307 229.257 81.008C229.121 80.9853 228.906 80.9513 228.611 80.906C228.339 80.8607 228.112 80.8153 227.931 80.77C227.455 80.634 227.081 80.4187 226.809 80.124C226.56 79.8293 226.435 79.5007 226.435 79.138C226.435 79.002 226.435 78.866 226.435 78.73C226.435 78.594 226.458 78.4693 226.503 78.356C226.571 78.084 226.752 77.8573 227.047 77.676C227.138 77.608 227.274 77.5287 227.455 77.438C227.659 77.3247 227.852 77.2453 228.033 77.2C228.305 77.1093 228.645 77.0413 229.053 76.996C229.234 76.9733 229.416 76.962 229.597 76.962C229.778 76.962 229.971 76.962 230.175 76.962C230.968 76.962 231.716 76.962 232.419 76.962C233.144 76.962 233.904 76.9507 234.697 76.928C236.012 76.9053 237.315 76.9053 238.607 76.928C239.922 76.928 241.225 76.9507 242.517 76.996C242.812 77.0187 243.095 77.0527 243.367 77.098C243.639 77.1433 243.911 77.2227 244.183 77.336C244.387 77.404 244.58 77.4947 244.761 77.608C244.942 77.6987 245.09 77.8233 245.203 77.982ZM265.205 91.106C265.319 91.4233 265.398 91.786 265.443 92.194C265.511 92.5793 265.545 92.976 265.545 93.384C265.545 93.792 265.511 94.2 265.443 94.608C265.398 94.9933 265.33 95.3333 265.239 95.628C264.877 96.8973 264.151 97.9627 263.063 98.824C261.975 99.6627 260.729 100.275 259.323 100.66C257.941 101.045 256.501 101.181 255.005 101.068C253.532 100.955 252.217 100.581 251.061 99.946C250.336 99.538 249.713 99.0393 249.191 98.45C248.67 97.8607 248.228 97.2033 247.865 96.478C247.729 96.2287 247.639 95.9453 247.593 95.628C247.571 95.288 247.605 94.9707 247.695 94.676C247.786 94.3587 247.933 94.0867 248.137 93.86C248.341 93.6107 248.625 93.4407 248.987 93.35C249.214 93.3047 249.463 93.282 249.735 93.282C250.03 93.282 250.313 93.3273 250.585 93.418C250.857 93.486 251.107 93.6107 251.333 93.792C251.56 93.9507 251.741 94.1773 251.877 94.472C252.127 94.948 252.478 95.39 252.931 95.798C253.407 96.1833 253.906 96.5007 254.427 96.75C255.175 96.9993 255.923 97.1013 256.671 97.056C257.442 97.0107 258.133 96.8407 258.745 96.546C259.38 96.2513 259.89 95.8547 260.275 95.356C260.661 94.8347 260.853 94.2453 260.853 93.588C260.853 93.044 260.774 92.602 260.615 92.262C260.457 91.8993 260.23 91.6047 259.935 91.378C259.663 91.1287 259.323 90.9247 258.915 90.766C258.53 90.6073 258.099 90.4713 257.623 90.358C257.079 90.2447 256.524 90.1653 255.957 90.12C255.413 90.0747 254.858 90.018 254.291 89.95C253.725 89.882 253.169 89.7913 252.625 89.678C252.081 89.5647 251.549 89.3947 251.027 89.168C249.985 88.7373 249.191 88.08 248.647 87.196C248.103 86.312 247.775 85.36 247.661 84.34C247.571 83.32 247.695 82.3113 248.035 81.314C248.375 80.294 248.919 79.4213 249.667 78.696C250.393 78.0387 251.254 77.574 252.251 77.302C253.271 77.0073 254.393 76.8373 255.617 76.792C256.297 76.7693 256.977 76.792 257.657 76.86C258.36 76.928 259.029 77.0413 259.663 77.2C260.321 77.3587 260.921 77.5627 261.465 77.812C262.032 78.0613 262.519 78.356 262.927 78.696C263.222 78.9227 263.517 79.2287 263.811 79.614C264.106 79.9767 264.333 80.3733 264.491 80.804C264.65 81.212 264.695 81.6087 264.627 81.994C264.582 82.3793 264.344 82.708 263.913 82.98C263.551 83.2067 263.199 83.3087 262.859 83.286C262.542 83.2407 262.236 83.1387 261.941 82.98C261.647 82.7987 261.363 82.5947 261.091 82.368C260.819 82.1413 260.57 81.9373 260.343 81.756C259.731 81.3027 258.972 80.9967 258.065 80.838C257.159 80.6793 256.309 80.6453 255.515 80.736C255.017 80.804 254.552 80.9173 254.121 81.076C253.691 81.2347 253.317 81.45 252.999 81.722C252.705 81.994 252.467 82.334 252.285 82.742C252.127 83.1273 252.07 83.5693 252.115 84.068C252.138 84.4307 252.24 84.7367 252.421 84.986C252.625 85.2353 252.863 85.4393 253.135 85.598C253.43 85.7567 253.747 85.8813 254.087 85.972C254.427 86.0627 254.767 86.1307 255.107 86.176C256.127 86.312 257.147 86.414 258.167 86.482C259.187 86.55 260.185 86.7767 261.159 87.162C262.157 87.5473 263.007 88.0687 263.709 88.726C264.412 89.3833 264.911 90.1767 265.205 91.106Z" fill="#0D4855"/>
<path d="M99.695 47.04C99.6583 47.48 99.6033 47.9383 99.53 48.415C99.4567 48.8917 99.3283 49.3317 99.145 49.735C98.9617 50.175 98.7233 50.505 98.43 50.725C98.0267 51.0917 97.55 51.2933 97 51.33C96.4867 51.5133 95.9917 51.5683 95.515 51.495C95.0383 51.4217 94.5983 51.2933 94.195 51.11C93.6817 50.78 93.2967 50.395 93.04 49.955C92.82 49.4783 92.655 48.9833 92.545 48.47C92.435 47.9567 92.38 47.425 92.38 46.875C92.38 46.325 92.38 45.8117 92.38 45.335V41.045L92.325 32.63C92.325 32.0433 92.325 31.585 92.325 31.255C92.325 30.925 92.325 30.6317 92.325 30.375C92.325 30.0817 92.3067 29.77 92.27 29.44C92.27 29.0733 92.27 28.56 92.27 27.9C92.27 27.79 92.27 27.6067 92.27 27.35C92.3067 27.0567 92.2883 26.305 92.215 25.095C90.785 27.4783 89.5933 29.4033 88.64 30.87C87.7233 32.3 86.935 33.4183 86.275 34.225C85.6517 34.995 85.1017 35.5267 84.625 35.82C84.1483 36.0767 83.6533 36.2233 83.14 36.26C82.8467 36.2967 82.5533 36.2417 82.26 36.095C81.9667 35.9483 81.6733 35.765 81.38 35.545C81.1233 35.325 80.8667 35.105 80.61 34.885C80.39 34.6283 80.2067 34.39 80.06 34.17C79.18 33.07 78.19 31.75 77.09 30.21C75.99 28.67 74.8533 26.8 73.68 24.6C73.68 24.6367 73.6617 25.2417 73.625 26.415C73.625 27.5883 73.625 29.055 73.625 30.815C73.625 32.5383 73.6067 34.4083 73.57 36.425C73.57 38.405 73.5517 40.2567 73.515 41.98C73.515 43.7033 73.4967 45.1517 73.46 46.325C73.4233 47.4617 73.3867 48.03 73.35 48.03C73.35 48.6533 73.2033 49.24 72.91 49.79C72.6167 50.3033 72.2133 50.725 71.7 51.055C71.2233 51.385 70.655 51.5683 69.995 51.605C69.335 51.6417 68.62 51.4583 67.85 51.055C67.3733 50.7617 67.0067 50.34 66.75 49.79C66.53 49.24 66.3833 48.7267 66.31 48.25C66.2733 47.7367 66.2367 47.2417 66.2 46.765C66.2 46.2883 66.2 45.7933 66.2 45.28L66.255 40.99L66.31 32.52V25.15C66.31 21.96 66.42 18.825 66.64 15.745C66.64 15.3417 66.6767 14.975 66.75 14.645C66.86 14.2783 66.9883 13.93 67.135 13.6C67.4283 13.0133 67.8133 12.5733 68.29 12.28C68.84 11.95 69.4267 11.785 70.05 11.785C70.3067 11.785 70.545 11.8033 70.765 11.84C71.0217 11.84 71.26 11.8583 71.48 11.895C72.2133 12.0417 72.8367 12.4817 73.35 13.215C73.9 13.9117 74.4133 14.5167 74.89 15.03C75.1833 15.36 75.495 15.7633 75.825 16.24C76.155 16.7167 76.485 17.2117 76.815 17.725C77.145 18.2383 77.4567 18.7333 77.75 19.21C78.0433 19.6867 78.3 20.1083 78.52 20.475C79.4733 22.015 80.3167 23.4267 81.05 24.71C81.82 25.9933 82.535 27.0933 83.195 28.01C83.305 27.9 83.4333 27.7533 83.58 27.57C83.7267 27.35 83.8733 27.13 84.02 26.91C84.2033 26.6533 84.35 26.415 84.46 26.195C84.6067 25.975 84.7167 25.7917 84.79 25.645C85.1567 25.0583 85.5233 24.49 85.89 23.94C86.2567 23.3533 86.6417 22.7483 87.045 22.125C87.485 21.465 87.925 20.75 88.365 19.98C88.8417 19.21 89.3917 18.33 90.015 17.34C90.2717 16.9 90.6017 16.3683 91.005 15.745C91.4083 15.1217 91.8667 14.5167 92.38 13.93C92.8933 13.3433 93.425 12.8483 93.975 12.445C94.5617 12.005 95.1483 11.785 95.735 11.785C96.0283 11.785 96.285 11.8033 96.505 11.84C96.725 11.84 96.945 11.8583 97.165 11.895C97.605 11.9317 98.0267 12.1333 98.43 12.5C98.7233 12.7933 98.9433 13.105 99.09 13.435C99.2367 13.9117 99.3283 14.315 99.365 14.645C99.4017 14.9017 99.42 15.14 99.42 15.36C99.4567 15.58 99.475 15.8 99.475 16.02C99.475 18.0733 99.4933 20.1083 99.53 22.125C99.5667 24.1417 99.585 26.1767 99.585 28.23C99.585 30.7233 99.585 33.29 99.585 35.93C99.6217 38.57 99.64 41.1367 99.64 43.63C99.64 44.1433 99.6583 44.6933 99.695 45.28C99.7317 45.8667 99.7317 46.4533 99.695 47.04ZM110.135 25.716L110.049 32.467H111.769C112.944 32.4383 113.99 32.424 114.908 32.424C115.825 32.424 116.843 32.4383 117.961 32.467H118.176C118.52 32.467 118.849 32.4813 119.165 32.51C119.509 32.51 119.838 32.51 120.154 32.51C120.498 32.5387 120.827 32.596 121.143 32.682C121.458 32.7393 121.773 32.811 122.089 32.897C122.576 33.069 122.977 33.327 123.293 33.671C123.579 34.0437 123.723 34.4593 123.723 34.918C123.723 35.0613 123.723 35.2333 123.723 35.434C123.723 35.606 123.694 35.7637 123.637 35.907C123.579 36.2223 123.393 36.509 123.078 36.767C122.934 36.9677 122.662 37.111 122.261 37.197C121.888 37.3117 121.515 37.3833 121.143 37.412C120.741 37.498 120.34 37.541 119.939 37.541H117.918L109.963 37.584L109.877 46.012L118.434 46.098H120.455C120.684 46.098 120.899 46.098 121.1 46.098C121.3 46.098 121.487 46.1123 121.659 46.141C121.888 46.1983 122.089 46.2413 122.261 46.27C122.461 46.27 122.648 46.2987 122.82 46.356C123.164 46.4707 123.45 46.6283 123.68 46.829C123.966 47.1157 124.153 47.4167 124.239 47.732C124.267 47.8753 124.282 48.033 124.282 48.205C124.31 48.3483 124.31 48.506 124.282 48.678C124.282 49.1367 124.138 49.5523 123.852 49.925C123.508 50.3263 123.106 50.5843 122.648 50.699C122.046 50.957 121.386 51.086 120.67 51.086C120.354 51.1147 120.025 51.129 119.681 51.129C119.337 51.129 119.007 51.1433 118.692 51.172H118.434C116.198 51.2293 113.876 51.2293 111.468 51.172C110.894 51.172 110.436 51.1577 110.092 51.129C109.748 51.129 109.432 51.129 109.146 51.129C108.888 51.129 108.615 51.129 108.329 51.129C108.042 51.129 107.669 51.129 107.211 51.129C106.551 51.1863 106.007 51.0717 105.577 50.785C105.261 50.5843 105.018 50.312 104.846 49.968C104.76 49.882 104.717 49.796 104.717 49.71C104.688 49.6527 104.659 49.6097 104.631 49.581C104.602 49.5523 104.573 49.5093 104.545 49.452C104.487 49.3087 104.444 49.1653 104.416 49.022C104.387 48.85 104.373 48.6923 104.373 48.549C104.344 48.4057 104.315 48.2623 104.287 48.119C104.287 47.9757 104.272 47.8323 104.244 47.689V47.001C104.244 46.8863 104.244 46.7717 104.244 46.657C104.272 46.5423 104.287 46.4277 104.287 46.313V42.959L104.373 36.767V31.048C104.373 30.016 104.373 29.0987 104.373 28.296C104.401 27.4933 104.43 26.619 104.459 25.673V25.458C104.487 25.1427 104.502 24.856 104.502 24.598C104.53 24.3113 104.545 24.0247 104.545 23.738C104.573 23.1647 104.731 22.6057 105.018 22.061C105.132 21.8317 105.247 21.631 105.362 21.459C105.505 21.287 105.691 21.1437 105.921 21.029C106.351 20.771 106.795 20.642 107.254 20.642C107.483 20.642 107.655 20.6563 107.77 20.685V20.642C108.286 20.642 108.701 20.642 109.017 20.642C109.332 20.642 109.633 20.642 109.92 20.642C110.235 20.642 110.565 20.642 110.909 20.642C111.253 20.6133 111.726 20.599 112.328 20.599C113.474 20.5703 114.564 20.556 115.596 20.556C116.628 20.556 117.688 20.5703 118.778 20.599H118.95C119.265 20.6277 119.595 20.642 119.939 20.642C120.283 20.642 120.612 20.6563 120.928 20.685C121.243 20.685 121.558 20.728 121.874 20.814C122.189 20.8713 122.504 20.9573 122.82 21.072C123.307 21.2153 123.708 21.459 124.024 21.803C124.282 22.2043 124.411 22.6057 124.411 23.007C124.411 23.179 124.411 23.351 124.411 23.523C124.411 23.6663 124.382 23.8097 124.325 23.953C124.296 24.2397 124.124 24.5407 123.809 24.856C123.694 24.9133 123.565 24.985 123.422 25.071C123.307 25.157 123.164 25.2287 122.992 25.286C122.82 25.3433 122.633 25.3863 122.433 25.415C122.261 25.415 122.089 25.4293 121.917 25.458C121.687 25.5153 121.472 25.544 121.272 25.544C121.1 25.544 120.899 25.544 120.67 25.544H118.735L110.135 25.587V25.716ZM150.891 33.714C150.949 34.66 150.934 35.6347 150.848 36.638C150.791 37.6413 150.691 38.616 150.547 39.562C150.261 41.196 149.73 42.787 148.956 44.335C148.182 45.883 147.05 47.2017 145.559 48.291C144.011 49.4377 142.248 50.226 140.27 50.656C138.292 51.0573 136.329 51.301 134.379 51.387C133.72 51.4443 133.046 51.4587 132.358 51.43C131.699 51.43 131.054 51.3583 130.423 51.215C129.907 51.129 129.52 50.9713 129.262 50.742C129.119 50.656 129.004 50.5413 128.918 50.398C128.832 50.2547 128.761 50.1113 128.703 49.968C128.617 49.8247 128.546 49.6813 128.488 49.538C128.46 49.366 128.417 49.194 128.359 49.022C128.331 48.8787 128.302 48.7497 128.273 48.635C128.273 48.4917 128.273 48.3627 128.273 48.248V23.695C128.273 23.4943 128.273 23.308 128.273 23.136C128.273 22.964 128.302 22.792 128.359 22.62C128.417 22.2187 128.503 21.889 128.617 21.631C128.732 21.287 128.89 21.0433 129.09 20.9C129.262 20.7567 129.434 20.6563 129.606 20.599C129.778 20.513 129.936 20.4413 130.079 20.384C130.251 20.3267 130.423 20.3267 130.595 20.384C130.796 20.4127 131.011 20.3697 131.24 20.255L138.421 20.427C140.313 20.4843 142.005 20.9287 143.495 21.76C144.986 22.5627 146.262 23.5947 147.322 24.856C148.383 26.1173 149.214 27.5363 149.816 29.113C150.418 30.661 150.777 32.1947 150.891 33.714ZM142.893 41.884C143.438 41.024 143.839 40.035 144.097 38.917C144.355 37.799 144.47 36.6667 144.441 35.52C144.413 34.3447 144.255 33.2123 143.968 32.123C143.682 31.005 143.28 30.016 142.764 29.156C142.363 28.5253 141.847 28.0093 141.216 27.608C140.586 27.2067 139.883 26.9057 139.109 26.705C138.335 26.4757 137.504 26.318 136.615 26.232C135.755 26.146 134.91 26.103 134.078 26.103C134.107 26.9343 134.121 27.737 134.121 28.511C134.121 29.285 134.121 30.102 134.121 30.962C134.093 31.994 134.078 32.9973 134.078 33.972C134.078 34.9467 134.078 35.8927 134.078 36.81V45.582C134.967 45.5533 135.813 45.5103 136.615 45.453C137.447 45.367 138.235 45.195 138.98 44.937C139.754 44.679 140.457 44.3207 141.087 43.862C141.747 43.3747 142.349 42.7153 142.893 41.884ZM156.197 46.442L156.24 43.045L156.283 36.724C156.312 35.8067 156.326 34.8607 156.326 33.886C156.326 32.9113 156.326 31.908 156.326 30.876C156.326 29.844 156.326 28.9267 156.326 28.124C156.326 27.3213 156.355 26.4183 156.412 25.415V25.243C156.441 24.9563 156.455 24.6697 156.455 24.383C156.484 24.0677 156.498 23.7523 156.498 23.437C156.527 22.921 156.685 22.362 156.971 21.76C157.172 21.3587 157.473 21.0147 157.874 20.728C158.333 20.4987 158.777 20.384 159.207 20.384C159.437 20.384 159.637 20.3983 159.809 20.427C160.01 20.427 160.196 20.4413 160.368 20.47C160.741 20.5273 161.071 20.6993 161.357 20.986C161.529 21.1293 161.687 21.3587 161.83 21.674C161.888 21.846 161.931 22.018 161.959 22.19C162.017 22.3333 162.06 22.491 162.088 22.663C162.117 22.8637 162.131 23.05 162.131 23.222C162.16 23.394 162.174 23.566 162.174 23.738C162.174 23.9387 162.16 24.125 162.131 24.297C162.131 24.4403 162.131 24.598 162.131 24.77V25.501L161.873 47.818V48.248C161.873 48.334 161.859 48.4487 161.83 48.592C161.83 48.7067 161.816 48.85 161.787 49.022C161.73 49.1653 161.673 49.323 161.615 49.495C161.587 49.6383 161.544 49.796 161.486 49.968C161.4 50.1113 161.3 50.2547 161.185 50.398C161.099 50.5127 160.985 50.6273 160.841 50.742C160.612 50.9713 160.239 51.129 159.723 51.215C158.949 51.387 158.218 51.3153 157.53 51C157.186 50.7707 156.943 50.484 156.799 50.14C156.713 50.054 156.67 49.968 156.67 49.882C156.642 49.8247 156.613 49.7817 156.584 49.753C156.556 49.7243 156.527 49.6813 156.498 49.624C156.441 49.4807 156.398 49.3373 156.369 49.194C156.341 49.022 156.326 48.85 156.326 48.678C156.298 48.5347 156.269 48.3913 156.24 48.248C156.24 48.1047 156.226 47.9613 156.197 47.818C156.169 47.5887 156.169 47.345 156.197 47.087V46.442ZM190.179 43.776C190.552 44.6073 190.566 45.4243 190.222 46.227C189.878 47.001 189.333 47.7177 188.588 48.377C187.843 49.0363 186.983 49.6097 186.008 50.097C185.062 50.5843 184.159 50.9283 183.299 51.129C182.353 51.3297 181.35 51.4157 180.289 51.387C179.257 51.387 178.211 51.258 177.15 51C176.118 50.7707 175.1 50.4267 174.097 49.968C173.122 49.4807 172.219 48.893 171.388 48.205C170.385 47.3737 169.596 46.3847 169.023 45.238C168.478 44.0627 168.077 42.8157 167.819 41.497C167.561 40.1783 167.418 38.8597 167.389 37.541C167.389 36.1937 167.432 34.9323 167.518 33.757C167.604 32.6963 167.819 31.5927 168.163 30.446C168.507 29.2993 168.98 28.1813 169.582 27.092C170.213 25.974 170.958 24.942 171.818 23.996C172.707 23.05 173.739 22.2473 174.914 21.588C175.803 21.072 176.792 20.728 177.881 20.556C178.999 20.3553 180.117 20.3123 181.235 20.427C182.382 20.513 183.457 20.7567 184.46 21.158C185.492 21.5307 186.366 22.0467 187.083 22.706C187.542 23.1073 188.015 23.6663 188.502 24.383C189.018 25.0997 189.391 25.8307 189.62 26.576C189.849 27.3213 189.849 28.0237 189.62 28.683C189.419 29.3137 188.846 29.7437 187.9 29.973C187.499 30.0877 187.14 30.1163 186.825 30.059C186.51 29.973 186.223 29.844 185.965 29.672C185.707 29.4713 185.463 29.242 185.234 28.984C185.005 28.726 184.79 28.468 184.589 28.21C183.901 27.3787 183.098 26.8197 182.181 26.533C181.264 26.2177 180.346 26.146 179.429 26.318C178.54 26.4613 177.695 26.834 176.892 27.436C176.118 28.0093 175.516 28.7547 175.086 29.672C174.627 30.6467 174.255 31.7217 173.968 32.897C173.71 34.0437 173.567 35.219 173.538 36.423C173.509 37.5983 173.61 38.745 173.839 39.863C174.097 40.981 174.527 41.97 175.129 42.83C175.588 43.518 176.147 44.077 176.806 44.507C177.494 44.937 178.225 45.238 178.999 45.41C179.773 45.582 180.547 45.6107 181.321 45.496C182.124 45.3813 182.898 45.1233 183.643 44.722C183.872 44.6073 184.116 44.4497 184.374 44.249C184.661 44.0197 184.947 43.7903 185.234 43.561C185.521 43.3317 185.807 43.1167 186.094 42.916C186.409 42.7153 186.739 42.572 187.083 42.486C187.599 42.314 188.158 42.3283 188.76 42.529C189.391 42.7297 189.864 43.1453 190.179 43.776ZM220.888 48.076C220.917 48.248 220.931 48.42 220.931 48.592C220.96 48.7353 220.974 48.9073 220.974 49.108C220.974 49.452 220.874 49.7673 220.673 50.054C220.587 50.1973 220.473 50.3407 220.329 50.484C220.186 50.5987 220.014 50.699 219.813 50.785C219.097 51.1863 218.337 51.3297 217.534 51.215C217.133 51.1003 216.775 50.914 216.459 50.656C216.402 50.5987 216.359 50.57 216.33 50.57C216.302 50.5413 216.273 50.4983 216.244 50.441C216.216 50.4123 216.187 50.3837 216.158 50.355C216.13 50.2977 216.087 50.2547 216.029 50.226C215.886 50.0827 215.771 49.9537 215.685 49.839C215.599 49.6957 215.513 49.5523 215.427 49.409C215.37 49.2657 215.298 49.1367 215.212 49.022C215.155 48.8787 215.083 48.7353 214.997 48.592C214.94 48.4773 214.883 48.377 214.825 48.291C214.768 48.1763 214.725 48.0617 214.696 47.947C214.582 47.689 214.51 47.4597 214.481 47.259L213.578 45.152C211.6 45.152 209.622 45.1663 207.644 45.195C205.695 45.195 203.731 45.1807 201.753 45.152L200.85 47.259C200.793 47.3737 200.75 47.4883 200.721 47.603C200.721 47.7177 200.693 47.8323 200.635 47.947C200.578 48.0617 200.521 48.1763 200.463 48.291C200.435 48.377 200.392 48.4773 200.334 48.592C200.248 48.7353 200.162 48.8787 200.076 49.022C200.019 49.1367 199.947 49.2657 199.861 49.409C199.804 49.5523 199.732 49.6957 199.646 49.839C199.56 49.9537 199.446 50.0827 199.302 50.226C199.245 50.2547 199.202 50.2977 199.173 50.355C199.145 50.3837 199.116 50.4123 199.087 50.441C199.059 50.4983 199.03 50.5413 199.001 50.57C198.973 50.57 198.93 50.5987 198.872 50.656C198.557 50.914 198.199 51.1003 197.797 51.215C196.995 51.3297 196.235 51.1863 195.518 50.785C195.318 50.699 195.146 50.5987 195.002 50.484C194.859 50.3407 194.744 50.1973 194.658 50.054C194.458 49.7673 194.357 49.452 194.357 49.108C194.357 48.9073 194.357 48.7353 194.357 48.592C194.386 48.42 194.415 48.248 194.443 48.076C194.501 47.818 194.572 47.56 194.658 47.302C194.744 47.044 194.787 46.915 194.787 46.915L203.731 24.899L203.989 24.211C204.047 24.039 204.118 23.8813 204.204 23.738C204.29 23.5947 204.362 23.4227 204.419 23.222C204.563 22.8493 204.72 22.5197 204.892 22.233C204.978 22.061 205.079 21.9033 205.193 21.76C205.308 21.6167 205.423 21.4733 205.537 21.33C205.709 21.1007 205.953 20.9143 206.268 20.771C206.67 20.6277 207.128 20.556 207.644 20.556C208.189 20.556 208.662 20.6277 209.063 20.771C209.379 20.9143 209.622 21.1007 209.794 21.33C209.995 21.588 210.21 21.889 210.439 22.233C210.611 22.5197 210.769 22.8493 210.912 23.222C210.97 23.4227 211.041 23.5947 211.127 23.738C211.213 23.8813 211.285 24.039 211.342 24.211L211.6 24.899L220.544 46.915C220.544 46.915 220.587 47.044 220.673 47.302C220.759 47.56 220.831 47.818 220.888 48.076ZM210.697 37.541C210.325 36.7097 209.938 35.8497 209.536 34.961C209.164 34.0723 208.762 33.1693 208.332 32.252C208.218 31.994 208.103 31.736 207.988 31.478C207.874 31.1913 207.759 30.919 207.644 30.661C207.558 30.919 207.458 31.1913 207.343 31.478C207.229 31.736 207.114 31.994 206.999 32.252C206.569 33.1693 206.154 34.0723 205.752 34.961C205.38 35.8497 205.007 36.7097 204.634 37.541L203.86 39.433H211.471L210.697 37.541ZM244.72 47.732C244.777 47.8753 244.806 48.0903 244.806 48.377C244.806 48.635 244.806 48.85 244.806 49.022C244.806 49.2513 244.763 49.4663 244.677 49.667C244.591 49.8677 244.476 50.054 244.333 50.226C244.075 50.57 243.702 50.828 243.215 51C242.527 51.2293 241.882 51.344 241.28 51.344C240.964 51.3727 240.635 51.387 240.291 51.387C239.947 51.387 239.603 51.4157 239.259 51.473H239.087C236.879 51.5017 234.6 51.5017 232.25 51.473C231.676 51.4443 231.031 51.4443 230.315 51.473C229.598 51.5303 228.896 51.516 228.208 51.43C227.52 51.3727 226.889 51.215 226.316 50.957C225.771 50.6703 225.384 50.226 225.155 49.624C225.097 49.4807 225.054 49.3517 225.026 49.237C224.997 49.0937 224.983 48.9503 224.983 48.807C224.868 47.8323 224.825 46.872 224.854 45.926C224.882 44.98 224.897 44.0483 224.897 43.131L224.983 36.896V31.134C224.983 30.102 224.983 29.1847 224.983 28.382C225.011 27.5793 225.04 26.6907 225.069 25.716V25.501C225.097 25.2143 225.112 24.9277 225.112 24.641C225.14 24.3543 225.155 24.0677 225.155 23.781C225.212 23.1217 225.37 22.5627 225.628 22.104C225.8 21.674 226.101 21.33 226.531 21.072C226.903 20.814 227.348 20.685 227.864 20.685C228.064 20.685 228.251 20.6993 228.423 20.728C228.623 20.728 228.81 20.7423 228.982 20.771C229.154 20.7997 229.311 20.857 229.455 20.943C229.627 21.029 229.799 21.1437 229.971 21.287C230.143 21.4877 230.3 21.7313 230.444 22.018C230.558 22.3333 230.63 22.6487 230.659 22.964C230.687 23.1647 230.716 23.351 230.745 23.523C230.773 23.695 230.788 23.867 230.788 24.039C230.73 24.211 230.702 24.383 230.702 24.555C230.702 24.727 230.702 24.8847 230.702 25.028V25.802L230.53 46.055L239.044 46.141H241.065C241.237 46.141 241.423 46.1553 241.624 46.184C241.824 46.184 242.025 46.1983 242.226 46.227C242.455 46.2557 242.656 46.2843 242.828 46.313C243 46.3417 243.172 46.3847 243.344 46.442C243.659 46.528 243.917 46.6713 244.118 46.872C244.433 47.1587 244.634 47.4453 244.72 47.732Z" fill="white"/>
<path d="M57.791 96L48 106.29C52.2655 108.564 57.4746 109.88 63 110V97.3175C61.1045 97.1976 59.3701 96.8391 57.7881 96.0011L57.791 96Z" fill="#48555C"/>
<path d="M62.9972 81.8899V70C57.4714 70.1113 52.2619 71.3337 48 73.4445L57.7891 83C59.3679 82.3341 61.1049 82.0002 63 81.8889L62.9972 81.8899Z" fill="#B2AD4B"/>
<path d="M80 73.4448C75.4501 71.3338 69.8938 70.1113 64 70V81.7775C66.0218 81.8888 67.8719 82.3341 69.5593 83L80 73.4448Z" fill="#E4B33A"/>
<path d="M52.7022 93.001L37 96.6824C38.8848 100.479 42.0253 103.699 46.264 106L56 96.1072C54.5871 95.3016 53.486 94.2655 52.7022 93V93.001Z" fill="#4E5C5A"/>
<path d="M56 82.9734L46.3414 74C42.0644 76.1913 38.8992 79.1125 37 82.5562L52.8333 86C53.4664 84.7475 54.7339 83.8087 56 82.9743V82.9734Z" fill="#9F9540"/>
<path d="M52.663 89.4504C52.663 88.7983 52.8315 88.1442 53 87.6011L36.1781 84C35.3355 85.7422 35 87.5914 35 89.4504C35 91.4086 35.337 93.1488 36.1781 95L53 91.4086C52.663 90.7565 52.663 90.2115 52.663 89.4504Z" fill="#6A7B54"/>
<path d="M71 95.531L80.736 106C84.9775 103.443 88.1166 100.035 90 96.0177L74.2978 92C73.5112 93.3392 72.4129 94.5565 71 95.5299V95.531Z" fill="#D55641"/>
<path d="M64.003 97.3175V110C69.8972 109.88 75.454 108.564 80 106.29L69.5583 96C67.8742 96.7171 66.0215 97.1965 64 97.3164L64.003 97.3175Z" fill="#993428"/>
<path d="M90.8219 84.0097L74 87.6011C74.1685 88.2532 74.337 88.9073 74.337 89.5594C74.337 90.2115 74.1685 90.8655 74 91.4086L90.8219 95C91.6645 93.2578 92 91.4086 92 89.5496C92 87.5914 91.663 85.7412 90.8219 84V84.0097Z" fill="#E8703E"/>
<path d="M74.2978 86L90 82.526C88.1152 79.0519 84.9747 76.1051 80.736 74L71 83.0532C72.4129 83.8949 73.514 84.842 74.2978 86V86Z" fill="#F2A838"/>
</svg>
