<svg width="368" height="321" viewBox="0 0 368 321" fill="none" xmlns="http://www.w3.org/2000/svg">
<g clip-path="url(#clip0_6_75)">
<path d="M307.066 33.7338C307.068 33.4405 307.044 33.1469 306.993 32.8532C306.969 32.533 306.891 32.2523 306.76 32.0113C306.655 31.7437 306.484 31.529 306.245 31.3671C306.033 31.2054 305.727 31.1229 305.327 31.1197C304.82 31.1156 304.392 31.2721 304.043 31.5893C303.887 31.1613 303.81 30.774 303.813 30.4274C303.816 30.0007 303.886 29.588 304.023 29.189C304.186 28.7637 304.429 28.3923 304.752 28.0749C305.074 27.7575 305.476 27.5074 305.958 27.3246C306.466 27.1154 307.08 27.0137 307.8 27.0195C309.4 27.0324 310.636 27.5224 311.509 28.4895C312.381 29.4566 312.81 30.7801 312.796 32.46L312.605 56.1393C311.885 56.1334 311.179 56.0744 310.487 55.9621C309.821 55.8501 309.209 55.6318 308.652 55.3073C308.121 54.9563 307.699 54.4462 307.384 53.777C307.069 53.1078 306.917 52.2132 306.926 51.0932L307.066 33.7338ZM303.005 56.0617L302.606 56.0585C301.912 56.0529 301.246 55.9808 300.607 55.8423C299.968 55.7038 299.397 55.4592 298.893 55.1085C298.416 54.7579 298.02 54.2747 297.705 53.6588C297.416 53.0431 297.276 52.242 297.284 51.2553L297.48 26.9761L298.12 26.9813C298.76 26.9865 299.386 27.0715 299.998 27.2365C300.61 27.3748 301.155 27.6325 301.632 28.0097C302.109 28.3602 302.492 28.8433 302.78 29.459C303.069 30.0747 303.209 30.8625 303.201 31.8225L303.005 56.0617ZM316.666 33.8113C316.668 33.518 316.644 33.2245 316.593 32.9307C316.569 32.6105 316.491 32.3299 316.36 32.0888C316.255 31.8213 316.083 31.6066 315.845 31.4446C315.633 31.2829 315.327 31.2004 314.927 31.1972C314.42 31.1931 313.992 31.3497 313.643 31.6668C313.486 31.2389 313.409 30.8516 313.412 30.5049C313.416 30.0783 313.486 29.6655 313.622 29.2666C313.786 28.8412 314.029 28.4699 314.351 28.1525C314.674 27.8351 315.076 27.585 315.557 27.4022C316.066 27.1929 316.68 27.0912 317.4 27.097C319 27.11 320.236 27.6 321.108 28.5671C321.98 29.5341 322.41 30.8576 322.396 32.5376L322.205 56.2168C321.485 56.211 320.779 56.152 320.086 56.0397C319.42 55.9276 318.809 55.7094 318.251 55.3849C317.721 55.0339 317.298 54.5238 316.984 53.8546C316.669 53.1853 316.516 52.2907 316.525 51.1708L316.666 33.8113ZM326.412 53.5707C326.418 52.7441 326.704 52.053 327.268 51.4976C327.833 50.9421 328.502 50.6675 329.275 50.6738C330.102 50.6804 330.793 50.966 331.348 51.5305C331.904 52.095 332.178 52.7906 332.172 53.6173C332.165 54.3906 331.88 55.0549 331.315 55.6104C330.751 56.1659 330.055 56.4402 329.229 56.4336C328.455 56.4273 327.791 56.1419 327.236 55.5774C326.68 55.0129 326.405 54.344 326.412 53.5707ZM342.145 51.5778C342.137 52.5111 341.944 53.2829 341.566 53.8932C341.188 54.5034 340.717 54.993 340.154 55.3618C339.591 55.7039 338.962 55.9522 338.268 56.1066C337.6 56.2612 336.959 56.336 336.346 56.3311L336.536 32.7718C336.551 31.0119 336.961 29.6552 337.769 28.7017C338.577 27.7481 339.741 27.2775 341.261 27.2898C342.007 27.2958 342.646 27.4343 343.177 27.7053C343.709 27.9496 344.133 28.2731 344.45 28.6756C344.766 29.0782 344.989 29.5467 345.118 30.0811C345.274 30.589 345.35 31.123 345.345 31.683L345.342 32.0829C345.157 31.9214 344.944 31.8131 344.705 31.7578C344.492 31.6761 344.279 31.6343 344.066 31.6326C343.666 31.6294 343.345 31.7068 343.104 31.8649C342.889 31.9965 342.715 32.1817 342.579 32.4206C342.471 32.6331 342.389 32.8858 342.333 33.1787C342.304 33.4718 342.288 33.7783 342.286 34.0983L342.145 51.5778ZM345.86 27.407C345.993 27.4081 346.1 27.4089 346.18 27.4096C346.287 27.3838 346.407 27.3714 346.54 27.3725C348.167 27.3856 349.417 27.8357 350.289 28.7228C351.162 29.6099 351.591 31.0267 351.575 32.9733L351.517 40.1331C351.51 41.0131 351.371 41.7853 351.099 42.4498C350.853 43.1145 350.515 43.6851 350.085 44.1617C349.681 44.6117 349.185 44.9544 348.596 45.1897C348.034 45.4251 347.434 45.5403 346.794 45.5351C345.967 45.5284 345.288 45.3896 344.757 45.1186C344.226 44.8477 343.802 44.4976 343.485 44.0683C343.196 43.6126 342.986 43.1043 342.858 42.5432C342.755 41.9824 342.707 41.422 342.711 40.862C343.083 41.0783 343.509 41.1884 343.989 41.1923C344.389 41.1955 344.696 41.1314 344.91 40.9997C345.151 40.8417 345.326 40.6564 345.435 40.444C345.57 40.2051 345.652 39.939 345.681 39.6459C345.737 39.353 345.766 39.0466 345.768 38.7266L345.86 27.407Z" fill="#EEBABA" fill-opacity="0.02"/>
<path d="M306.993 32.8532L305.996 32.9282L306 32.9764L306.008 33.0241L306.993 32.8532ZM306.76 32.0113L305.828 32.3751L305.852 32.4342L305.882 32.4898L306.76 32.0113ZM306.245 31.3671L305.639 32.1622L305.661 32.179L305.684 32.1946L306.245 31.3671ZM304.043 31.5893L303.104 31.9328L303.615 33.3292L304.716 32.3296L304.043 31.5893ZM304.023 29.189L303.089 28.8304L303.083 28.8477L303.077 28.8652L304.023 29.189ZM304.752 28.0749L304.05 27.3621L304.05 27.3621L304.752 28.0749ZM305.958 27.3246L306.313 28.2595L306.326 28.2546L306.338 28.2494L305.958 27.3246ZM312.605 56.1393L312.597 57.1392L313.597 57.1473L313.605 56.1473L312.605 56.1393ZM310.487 55.9621L310.321 56.9483L310.327 56.9493L310.487 55.9621ZM308.652 55.3073L308.1 56.1413L308.124 56.1571L308.149 56.1715L308.652 55.3073ZM307.384 53.777L306.479 54.2024L306.479 54.2024L307.384 53.777ZM303.005 56.0617L302.997 57.0617L303.997 57.0698L304.005 56.0698L303.005 56.0617ZM300.607 55.8423L300.395 56.8196L300.395 56.8196L300.607 55.8423ZM298.893 55.1085L298.301 55.9144L298.311 55.9219L298.322 55.9292L298.893 55.1085ZM297.705 53.6588L296.799 54.083L296.807 54.0987L296.814 54.1142L297.705 53.6588ZM297.48 26.9761L297.488 25.9762L296.488 25.9681L296.48 26.968L297.48 26.9761ZM299.998 27.2365L299.738 28.202L299.758 28.2074L299.778 28.2119L299.998 27.2365ZM301.632 28.0097L301.012 28.7941L301.026 28.8051L301.04 28.8156L301.632 28.0097ZM302.78 29.459L303.686 29.0349L303.686 29.0349L302.78 29.459ZM316.593 32.9307L315.596 33.0057L315.599 33.054L315.608 33.1016L316.593 32.9307ZM316.36 32.0888L315.428 32.4527L315.451 32.5117L315.482 32.5674L316.36 32.0888ZM315.845 31.4446L315.238 32.2398L315.26 32.2566L315.283 32.2722L315.845 31.4446ZM313.643 31.6668L312.704 32.0104L313.215 33.4067L314.315 32.4071L313.643 31.6668ZM313.622 29.2666L312.689 28.9079L312.682 28.9252L312.676 28.9427L313.622 29.2666ZM314.351 28.1525L313.65 27.4397L313.65 27.4397L314.351 28.1525ZM315.557 27.4022L315.912 28.3371L315.925 28.3322L315.938 28.3269L315.557 27.4022ZM322.205 56.2168L322.197 57.2168L323.197 57.2249L323.205 56.2249L322.205 56.2168ZM320.086 56.0397L319.92 57.0258L319.926 57.0268L320.086 56.0397ZM318.251 55.3849L317.7 56.2189L317.724 56.2347L317.748 56.2491L318.251 55.3849ZM316.984 53.8546L317.889 53.4291L317.889 53.4291L316.984 53.8546ZM308.066 33.7419C308.069 33.3876 308.039 33.0341 307.978 32.6822L306.008 33.0241C306.049 33.2597 306.068 33.4933 306.066 33.7257L308.066 33.7419ZM307.99 32.7782C307.957 32.3403 307.848 31.9177 307.638 31.5327L305.882 32.4898C305.935 32.587 305.981 32.7256 305.996 32.9282L307.99 32.7782ZM307.691 31.6474C307.513 31.1906 307.212 30.8145 306.806 30.5395L305.684 32.1946C305.756 32.2435 305.798 32.2969 305.828 32.3751L307.691 31.6474ZM306.852 30.5719C306.401 30.228 305.849 30.1238 305.335 30.1197L305.319 32.1196C305.605 32.1219 305.666 32.1827 305.639 32.1622L306.852 30.5719ZM305.335 30.1197C304.597 30.1137 303.921 30.3497 303.371 30.849L304.716 32.3296C304.864 32.1946 305.043 32.1174 305.319 32.1196L305.335 30.1197ZM304.982 31.2457C304.855 30.8969 304.811 30.6311 304.813 30.4355L302.813 30.4193C302.809 30.917 302.919 31.4258 303.104 31.9328L304.982 31.2457ZM304.813 30.4355C304.815 30.115 304.867 29.8089 304.969 29.5129L303.077 28.8652C302.905 29.367 302.817 29.8865 302.813 30.4193L304.813 30.4355ZM304.956 29.5477C305.069 29.2547 305.233 29.0043 305.453 28.7877L304.05 27.3621C303.625 27.7803 303.303 28.2727 303.089 28.8304L304.956 29.5477ZM305.453 28.7877C305.664 28.5801 305.943 28.3999 306.313 28.2595L305.603 26.3897C305.01 26.6149 304.484 26.9349 304.05 27.3621L305.453 28.7877ZM306.338 28.2494C306.692 28.1039 307.166 28.0144 307.792 28.0195L307.808 26.0195C306.994 26.013 306.241 26.1268 305.577 26.3999L306.338 28.2494ZM307.792 28.0195C309.181 28.0307 310.123 28.4466 310.766 29.1592L312.251 27.8198C311.149 26.5983 309.62 26.0342 307.808 26.0195L307.792 28.0195ZM310.766 29.1592C311.426 29.8916 311.809 30.9474 311.797 32.452L313.796 32.4681C313.811 30.6128 313.335 29.0216 312.251 27.8198L310.766 29.1592ZM311.797 32.452L311.605 56.1312L313.605 56.1473L313.796 32.4681L311.797 32.452ZM312.613 55.1393C311.943 55.1339 311.287 55.0789 310.647 54.975L310.327 56.9493C311.071 57.0699 311.828 57.133 312.597 57.1392L312.613 55.1393ZM310.653 54.976C310.1 54.883 309.603 54.7042 309.155 54.4431L308.149 56.1715C308.815 56.5595 309.542 56.8172 310.321 56.9483L310.653 54.976ZM309.204 54.4733C308.849 54.239 308.539 53.8822 308.289 53.3516L306.479 54.2024C306.859 55.0103 307.393 55.6736 308.1 56.1413L309.204 54.4733ZM308.289 53.3516C308.062 52.8696 307.917 52.1416 307.926 51.1013L305.926 51.0851C305.916 52.2848 306.076 53.346 306.479 54.2024L308.289 53.3516ZM307.926 51.1013L308.066 33.7419L306.066 33.7257L305.926 51.0851L307.926 51.1013ZM303.014 55.0617L302.614 55.0585L302.597 57.0584L302.997 57.0617L303.014 55.0617ZM302.614 55.0585C301.985 55.0534 301.387 54.9882 300.819 54.865L300.395 56.8196C301.105 56.9735 301.84 57.0523 302.597 57.0584L302.614 55.0585ZM300.819 54.865C300.301 54.7527 299.853 54.5583 299.464 54.2877L298.322 55.9292C298.941 56.3601 299.636 56.655 300.395 56.8196L300.819 54.865ZM299.485 54.3025C299.153 54.0584 298.851 53.7041 298.595 53.2034L296.814 54.1142C297.188 54.8453 297.679 55.4575 298.301 55.9144L299.485 54.3025ZM298.61 53.2347C298.407 52.8011 298.277 52.163 298.284 51.2634L296.284 51.2473C296.275 52.3209 296.425 53.2852 296.799 54.083L298.61 53.2347ZM298.284 51.2634L298.48 26.9842L296.48 26.968L296.284 51.2473L298.284 51.2634ZM297.472 27.9761L298.112 27.9813L298.128 25.9813L297.488 25.9762L297.472 27.9761ZM298.112 27.9813C298.668 27.9858 299.209 28.0595 299.738 28.202L300.258 26.2709C299.563 26.0836 298.853 25.9872 298.128 25.9813L298.112 27.9813ZM299.778 28.2119C300.249 28.3183 300.656 28.5127 301.012 28.7941L302.252 27.2253C301.654 26.7523 300.972 26.4312 300.219 26.261L299.778 28.2119ZM301.04 28.8156C301.364 29.0533 301.647 29.3963 301.875 29.8832L303.686 29.0349C303.337 28.2904 302.855 27.6672 302.224 27.2038L301.04 28.8156ZM301.875 29.8832C302.079 30.3198 302.208 30.9463 302.201 31.8144L304.201 31.8306C304.21 30.7787 304.058 29.8296 303.686 29.0349L301.875 29.8832ZM302.201 31.8144L302.006 56.0536L304.005 56.0698L304.201 31.8306L302.201 31.8144ZM317.666 33.8194C317.669 33.4651 317.639 33.1117 317.578 32.7598L315.608 33.1016C315.648 33.3373 315.668 33.5709 315.666 33.8033L317.666 33.8194ZM317.59 32.8557C317.557 32.4178 317.447 31.9952 317.238 31.6102L315.482 32.5674C315.534 32.6645 315.58 32.8032 315.596 33.0057L317.59 32.8557ZM317.291 31.7249C317.113 31.2681 316.812 30.8921 316.406 30.6171L315.283 32.2722C315.355 32.3211 315.398 32.3745 315.428 32.4527L317.291 31.7249ZM316.451 30.6495C316 30.3055 315.448 30.2014 314.935 30.1972L314.919 32.1972C315.205 32.1995 315.265 32.2603 315.238 32.2398L316.451 30.6495ZM314.935 30.1972C314.197 30.1913 313.52 30.4272 312.971 30.9266L314.315 32.4071C314.464 32.2721 314.643 32.1949 314.919 32.1972L314.935 30.1972ZM314.582 31.3233C314.454 30.9745 314.411 30.7087 314.412 30.513L312.412 30.4969C312.408 30.9945 312.518 31.5033 312.704 32.0104L314.582 31.3233ZM314.412 30.513C314.415 30.1925 314.467 29.8865 314.568 29.5905L312.676 28.9427C312.504 29.4445 312.417 29.964 312.412 30.4969L314.412 30.513ZM314.556 29.6253C314.668 29.3322 314.833 29.0818 315.053 28.8653L313.65 27.4397C313.225 27.8579 312.903 28.3503 312.689 28.9079L314.556 29.6253ZM315.053 28.8653C315.264 28.6577 315.543 28.4774 315.912 28.3371L315.203 26.4673C314.609 26.6925 314.084 27.0124 313.65 27.4397L315.053 28.8653ZM315.938 28.3269C316.291 28.1815 316.766 28.092 317.392 28.097L317.408 26.0971C316.594 26.0905 315.84 26.2044 315.177 26.4774L315.938 28.3269ZM317.392 28.097C318.781 28.1082 319.723 28.5241 320.366 29.2368L321.851 27.8973C320.749 26.6758 319.219 26.1117 317.408 26.0971L317.392 28.097ZM320.366 29.2368C321.026 29.9691 321.408 31.0249 321.396 32.5295L323.396 32.5457C323.411 30.6904 322.935 29.0991 321.851 27.8973L320.366 29.2368ZM321.396 32.5295L321.205 56.2087L323.205 56.2249L323.396 32.5457L321.396 32.5295ZM322.213 55.2169C321.543 55.2114 320.887 55.1565 320.246 55.0526L319.926 57.0268C320.67 57.1474 321.427 57.2106 322.197 57.2168L322.213 55.2169ZM320.252 55.0536C319.7 54.9606 319.203 54.7817 318.755 54.5206L317.748 56.2491C318.415 56.637 319.141 56.8947 319.92 57.0258L320.252 55.0536ZM318.803 54.5508C318.449 54.3166 318.138 53.9597 317.889 53.4291L316.079 54.28C316.459 55.0878 316.993 55.7512 317.7 56.2189L318.803 54.5508ZM317.889 53.4291C317.662 52.9471 317.517 52.2191 317.525 51.1789L315.525 51.1627C315.516 52.3623 315.676 53.4235 316.079 54.28L317.889 53.4291ZM317.525 51.1789L317.666 33.8194L315.666 33.8033L315.525 51.1627L317.525 51.1789ZM327.268 51.4976L327.97 52.2104L327.97 52.2104L327.268 51.4976ZM331.348 51.5305L330.636 52.2319L330.636 52.2319L331.348 51.5305ZM331.315 55.6104L330.614 54.8976L330.614 54.8976L331.315 55.6104ZM327.236 55.5774L327.948 54.8761L327.948 54.8761L327.236 55.5774ZM327.412 53.5788C327.416 53.0044 327.603 52.5709 327.97 52.2104L326.567 50.7848C325.805 51.5351 325.42 52.4837 325.412 53.5626L327.412 53.5788ZM327.97 52.2104C328.35 51.8359 328.766 51.6697 329.267 51.6737L329.283 49.6738C328.238 49.6653 327.316 50.0483 326.567 50.7848L327.97 52.2104ZM329.267 51.6737C329.841 51.6784 330.275 51.8655 330.636 52.2319L332.061 50.8292C331.311 50.0666 330.362 49.6825 329.283 49.6738L329.267 51.6737ZM330.636 52.2319C330.996 52.5983 331.176 53.0348 331.172 53.6092L333.171 53.6253C333.18 52.5464 332.811 51.5917 332.061 50.8292L330.636 52.2319ZM331.172 53.6092C331.167 54.1102 330.995 54.5231 330.614 54.8976L332.017 56.3232C332.765 55.5867 333.163 54.6709 333.171 53.6253L331.172 53.6092ZM330.614 54.8976C330.248 55.2582 329.811 55.4382 329.237 55.4336L329.221 57.4335C330.299 57.4423 331.254 57.0736 332.017 56.3232L330.614 54.8976ZM329.237 55.4336C328.736 55.4296 328.323 55.2566 327.948 54.8761L326.523 56.2788C327.259 57.0273 328.175 57.4251 329.221 57.4335L329.237 55.4336ZM327.948 54.8761C327.574 54.4955 327.408 54.0798 327.412 53.5788L325.412 53.5626C325.403 54.6082 325.786 55.5304 326.523 56.2788L327.948 54.8761ZM341.566 53.8932L340.716 53.3663L340.716 53.3663L341.566 53.8932ZM340.154 55.3618L340.673 56.2163L340.688 56.2075L340.702 56.1983L340.154 55.3618ZM338.268 56.1066L338.051 55.1304L338.042 55.1323L338.268 56.1066ZM336.346 56.3311L335.346 56.323L335.338 57.323L336.338 57.331L336.346 56.3311ZM337.769 28.7017L338.532 29.348L338.532 29.348L337.769 28.7017ZM343.177 27.7053L342.723 28.5961L342.741 28.6054L342.76 28.6139L343.177 27.7053ZM344.45 28.6756L343.664 29.294L344.45 28.6756ZM345.118 30.0811L344.146 30.3158L344.153 30.3454L344.162 30.3745L345.118 30.0811ZM345.342 32.0829L344.685 32.8369L346.325 34.2652L346.342 32.091L345.342 32.0829ZM344.705 31.7578L344.346 32.6912L344.412 32.7164L344.48 32.7322L344.705 31.7578ZM343.104 31.8649L343.627 32.7171L343.639 32.7094L343.652 32.7014L343.104 31.8649ZM342.579 32.4206L341.709 31.9279L341.698 31.9469L341.689 31.9662L342.579 32.4206ZM342.333 33.1787L341.351 32.9918L341.342 33.0357L341.338 33.0801L342.333 33.1787ZM345.86 27.407L345.868 26.407L344.868 26.3989L344.86 27.3989L345.86 27.407ZM346.18 27.4096L346.172 28.4095L346.295 28.4105L346.415 28.3816L346.18 27.4096ZM350.289 28.7228L349.577 29.4242L349.577 29.4242L350.289 28.7228ZM351.099 42.4498L350.173 42.0709L350.167 42.0871L350.16 42.1035L351.099 42.4498ZM350.085 44.1617L349.343 43.4913L349.34 43.494L350.085 44.1617ZM348.596 45.1897L348.225 44.2611L348.218 44.2642L348.21 44.2674L348.596 45.1897ZM344.757 45.1186L344.302 46.0094L344.302 46.0094L344.757 45.1186ZM343.485 44.0683L342.641 44.6048L342.66 44.634L342.68 44.6619L343.485 44.0683ZM342.858 42.5432L341.874 42.7224L341.878 42.7448L341.883 42.767L342.858 42.5432ZM342.711 40.862L343.214 39.9978L341.725 39.1308L341.711 40.8539L342.711 40.862ZM344.91 40.9997L345.433 41.852L345.446 41.8443L345.458 41.8363L344.91 40.9997ZM345.435 40.444L344.564 39.9513L344.554 39.9702L344.544 39.9895L345.435 40.444ZM345.681 39.6459L344.699 39.4591L344.69 39.5029L344.686 39.5474L345.681 39.6459ZM341.145 51.5697C341.138 52.3735 340.973 52.9521 340.716 53.3663L342.416 54.42C342.916 53.6136 343.136 52.6486 343.145 51.5858L341.145 51.5697ZM340.716 53.3663C340.409 53.861 340.039 54.2417 339.606 54.5253L340.702 56.1983C341.395 55.7443 341.966 55.1459 342.416 54.42L340.716 53.3663ZM339.634 54.5073C339.172 54.7882 338.647 54.9978 338.051 55.1304L338.485 57.0828C339.278 56.9065 340.01 56.6196 340.673 56.2163L339.634 54.5073ZM338.042 55.1323C337.442 55.2713 336.88 55.3353 336.354 55.3311L336.338 57.331C337.038 57.3367 337.758 57.2511 338.493 57.0808L338.042 55.1323ZM337.346 56.3391L337.536 32.7799L335.536 32.7638L335.346 56.323L337.346 56.3391ZM337.536 32.7799C337.549 31.1596 337.927 30.0623 338.532 29.348L337.006 28.0553C335.996 29.248 335.552 30.8641 335.536 32.7638L337.536 32.7799ZM338.532 29.348C339.107 28.6698 339.959 28.2793 341.253 28.2898L341.269 26.2898C339.523 26.2757 338.047 26.8265 337.006 28.0553L338.532 29.348ZM341.253 28.2898C341.882 28.2949 342.361 28.4112 342.723 28.5961L343.632 26.8145C342.932 26.4575 342.132 26.2968 341.269 26.2898L341.253 28.2898ZM342.76 28.6139C343.168 28.8014 343.458 29.0326 343.664 29.294L345.236 28.0573C344.808 27.5135 344.25 27.0978 343.595 26.7967L342.76 28.6139ZM343.664 29.294C343.885 29.5754 344.048 29.9108 344.146 30.3158L346.09 29.8464C345.93 29.1826 345.648 28.581 345.236 28.0573L343.664 29.294ZM344.162 30.3745C344.287 30.7796 344.349 31.2115 344.345 31.6749L346.345 31.691C346.351 31.0344 346.262 30.3984 346.074 29.7877L344.162 30.3745ZM344.345 31.6749L344.342 32.0749L346.342 32.091L346.345 31.691L344.345 31.6749ZM345.999 31.329C345.69 31.0596 345.329 30.8756 344.93 30.7834L344.48 32.7322C344.56 32.7506 344.624 32.7832 344.685 32.8369L345.999 31.329ZM345.063 30.8243C344.746 30.7025 344.415 30.6354 344.074 30.6327L344.058 32.6326C344.143 32.6333 344.238 32.6496 344.346 32.6912L345.063 30.8243ZM344.074 30.6327C343.55 30.6284 343.015 30.7277 342.556 31.0284L343.652 32.7014C343.675 32.6859 343.781 32.6304 344.058 32.6326L344.074 30.6327ZM342.581 31.0126C342.209 31.2407 341.92 31.5555 341.709 31.9279L343.45 32.9133C343.509 32.8079 343.57 32.7522 343.627 32.7171L342.581 31.0126ZM341.689 31.9662C341.528 32.2811 341.42 32.628 341.351 32.9918L343.316 33.3655C343.358 33.1435 343.414 32.9851 343.47 32.8751L341.689 31.9662ZM341.338 33.0801C341.306 33.4057 341.289 33.7426 341.286 34.0902L343.286 34.1064C343.288 33.8141 343.303 33.5378 343.328 33.2773L341.338 33.0801ZM341.286 34.0902L341.145 51.5697L343.145 51.5858L343.286 34.1064L341.286 34.0902ZM345.852 28.4069C345.852 28.4069 345.852 28.4069 345.853 28.4069C345.853 28.407 345.853 28.407 345.853 28.407C345.854 28.407 345.854 28.407 345.854 28.407C345.854 28.407 345.855 28.407 345.855 28.407C345.855 28.407 345.856 28.407 345.856 28.407C345.856 28.407 345.856 28.407 345.857 28.407C345.857 28.407 345.857 28.407 345.857 28.407C345.858 28.407 345.858 28.407 345.858 28.407C345.858 28.407 345.859 28.407 345.859 28.407C345.859 28.407 345.859 28.407 345.86 28.407C345.86 28.407 345.86 28.407 345.86 28.407C345.861 28.407 345.861 28.407 345.861 28.407C345.861 28.407 345.862 28.407 345.862 28.407C345.862 28.407 345.862 28.407 345.863 28.407C345.863 28.407 345.863 28.407 345.864 28.407C345.864 28.407 345.864 28.407 345.864 28.407C345.865 28.407 345.865 28.407 345.865 28.407C345.865 28.4071 345.866 28.4071 345.866 28.4071C345.866 28.4071 345.866 28.4071 345.867 28.4071C345.867 28.4071 345.867 28.4071 345.867 28.4071C345.868 28.4071 345.868 28.4071 345.868 28.4071C345.868 28.4071 345.869 28.4071 345.869 28.4071C345.869 28.4071 345.869 28.4071 345.87 28.4071C345.87 28.4071 345.87 28.4071 345.87 28.4071C345.871 28.4071 345.871 28.4071 345.871 28.4071C345.871 28.4071 345.872 28.4071 345.872 28.4071C345.872 28.4071 345.872 28.4071 345.873 28.4071C345.873 28.4071 345.873 28.4071 345.873 28.4071C345.874 28.4071 345.874 28.4071 345.874 28.4071C345.875 28.4071 345.875 28.4071 345.875 28.4071C345.875 28.4071 345.876 28.4071 345.876 28.4071C345.876 28.4071 345.876 28.4071 345.877 28.4071C345.877 28.4071 345.877 28.4071 345.877 28.4071C345.878 28.4072 345.878 28.4072 345.878 28.4072C345.878 28.4072 345.879 28.4072 345.879 28.4072C345.879 28.4072 345.879 28.4072 345.88 28.4072C345.88 28.4072 345.88 28.4072 345.88 28.4072C345.881 28.4072 345.881 28.4072 345.881 28.4072C345.881 28.4072 345.882 28.4072 345.882 28.4072C345.882 28.4072 345.882 28.4072 345.883 28.4072C345.883 28.4072 345.883 28.4072 345.883 28.4072C345.884 28.4072 345.884 28.4072 345.884 28.4072C345.884 28.4072 345.885 28.4072 345.885 28.4072C345.885 28.4072 345.885 28.4072 345.886 28.4072C345.886 28.4072 345.886 28.4072 345.886 28.4072C345.887 28.4072 345.887 28.4072 345.887 28.4072C345.887 28.4072 345.888 28.4072 345.888 28.4072C345.888 28.4072 345.888 28.4072 345.889 28.4072C345.889 28.4072 345.889 28.4072 345.889 28.4072C345.89 28.4072 345.89 28.4073 345.89 28.4073C345.89 28.4073 345.891 28.4073 345.891 28.4073C345.891 28.4073 345.891 28.4073 345.892 28.4073C345.892 28.4073 345.892 28.4073 345.892 28.4073C345.893 28.4073 345.893 28.4073 345.893 28.4073C345.893 28.4073 345.894 28.4073 345.894 28.4073C345.894 28.4073 345.894 28.4073 345.895 28.4073C345.895 28.4073 345.895 28.4073 345.895 28.4073C345.896 28.4073 345.896 28.4073 345.896 28.4073C345.896 28.4073 345.897 28.4073 345.897 28.4073C345.897 28.4073 345.897 28.4073 345.898 28.4073C345.898 28.4073 345.898 28.4073 345.898 28.4073C345.899 28.4073 345.899 28.4073 345.899 28.4073C345.899 28.4073 345.9 28.4073 345.9 28.4073C345.9 28.4073 345.9 28.4073 345.901 28.4073C345.901 28.4073 345.901 28.4073 345.901 28.4073C345.902 28.4073 345.902 28.4073 345.902 28.4073C345.902 28.4074 345.903 28.4074 345.903 28.4074C345.903 28.4074 345.903 28.4074 345.904 28.4074C345.904 28.4074 345.904 28.4074 345.904 28.4074C345.905 28.4074 345.905 28.4074 345.905 28.4074C345.905 28.4074 345.906 28.4074 345.906 28.4074C345.906 28.4074 345.906 28.4074 345.907 28.4074C345.907 28.4074 345.907 28.4074 345.907 28.4074C345.908 28.4074 345.908 28.4074 345.908 28.4074C345.908 28.4074 345.908 28.4074 345.909 28.4074C345.909 28.4074 345.909 28.4074 345.909 28.4074C345.91 28.4074 345.91 28.4074 345.91 28.4074C345.91 28.4074 345.911 28.4074 345.911 28.4074C345.911 28.4074 345.911 28.4074 345.912 28.4074C345.912 28.4074 345.912 28.4074 345.912 28.4074C345.913 28.4074 345.913 28.4074 345.913 28.4074C345.913 28.4074 345.914 28.4074 345.914 28.4074C345.914 28.4074 345.914 28.4074 345.915 28.4075C345.915 28.4075 345.915 28.4075 345.915 28.4075C345.916 28.4075 345.916 28.4075 345.916 28.4075C345.916 28.4075 345.917 28.4075 345.917 28.4075C345.917 28.4075 345.917 28.4075 345.918 28.4075C345.918 28.4075 345.918 28.4075 345.918 28.4075C345.918 28.4075 345.919 28.4075 345.919 28.4075C345.919 28.4075 345.919 28.4075 345.92 28.4075C345.92 28.4075 345.92 28.4075 345.92 28.4075C345.921 28.4075 345.921 28.4075 345.921 28.4075C345.921 28.4075 345.922 28.4075 345.922 28.4075C345.922 28.4075 345.922 28.4075 345.923 28.4075C345.923 28.4075 345.923 28.4075 345.923 28.4075C345.924 28.4075 345.924 28.4075 345.924 28.4075C345.924 28.4075 345.925 28.4075 345.925 28.4075C345.925 28.4075 345.925 28.4075 345.925 28.4075C345.926 28.4075 345.926 28.4075 345.926 28.4075C345.926 28.4075 345.927 28.4075 345.927 28.4075C345.927 28.4076 345.927 28.4076 345.928 28.4076C345.928 28.4076 345.928 28.4076 345.928 28.4076C345.929 28.4076 345.929 28.4076 345.929 28.4076C345.929 28.4076 345.93 28.4076 345.93 28.4076C345.93 28.4076 345.93 28.4076 345.931 28.4076C345.931 28.4076 345.931 28.4076 345.931 28.4076C345.931 28.4076 345.932 28.4076 345.932 28.4076C345.932 28.4076 345.932 28.4076 345.933 28.4076C345.933 28.4076 345.933 28.4076 345.933 28.4076C345.934 28.4076 345.934 28.4076 345.934 28.4076C345.934 28.4076 345.935 28.4076 345.935 28.4076C345.935 28.4076 345.935 28.4076 345.936 28.4076C345.936 28.4076 345.936 28.4076 345.936 28.4076C345.936 28.4076 345.937 28.4076 345.937 28.4076C345.937 28.4076 345.937 28.4076 345.938 28.4076C345.938 28.4076 345.938 28.4076 345.938 28.4076C345.939 28.4076 345.939 28.4076 345.939 28.4076C345.939 28.4076 345.94 28.4077 345.94 28.4077C345.94 28.4077 345.94 28.4077 345.941 28.4077C345.941 28.4077 345.941 28.4077 345.941 28.4077C345.941 28.4077 345.942 28.4077 345.942 28.4077C345.942 28.4077 345.942 28.4077 345.943 28.4077C345.943 28.4077 345.943 28.4077 345.943 28.4077C345.944 28.4077 345.944 28.4077 345.944 28.4077C345.944 28.4077 345.945 28.4077 345.945 28.4077C345.945 28.4077 345.945 28.4077 345.945 28.4077C345.946 28.4077 345.946 28.4077 345.946 28.4077C345.946 28.4077 345.947 28.4077 345.947 28.4077C345.947 28.4077 345.947 28.4077 345.948 28.4077C345.948 28.4077 345.948 28.4077 345.948 28.4077C345.948 28.4077 345.949 28.4077 345.949 28.4077C345.949 28.4077 345.949 28.4077 345.95 28.4077C345.95 28.4077 345.95 28.4077 345.95 28.4077C345.951 28.4077 345.951 28.4077 345.951 28.4077C345.951 28.4077 345.952 28.4077 345.952 28.4078C345.952 28.4078 345.952 28.4078 345.952 28.4078C345.953 28.4078 345.953 28.4078 345.953 28.4078C345.953 28.4078 345.954 28.4078 345.954 28.4078C345.954 28.4078 345.954 28.4078 345.955 28.4078C345.955 28.4078 345.955 28.4078 345.955 28.4078C345.955 28.4078 345.956 28.4078 345.956 28.4078C345.956 28.4078 345.956 28.4078 345.957 28.4078C345.957 28.4078 345.957 28.4078 345.957 28.4078C345.958 28.4078 345.958 28.4078 345.958 28.4078C345.958 28.4078 345.958 28.4078 345.959 28.4078C345.959 28.4078 345.959 28.4078 345.959 28.4078C345.96 28.4078 345.96 28.4078 345.96 28.4078C345.96 28.4078 345.961 28.4078 345.961 28.4078C345.961 28.4078 345.961 28.4078 345.961 28.4078C345.962 28.4078 345.962 28.4078 345.962 28.4078C345.962 28.4078 345.963 28.4078 345.963 28.4078C345.963 28.4078 345.963 28.4078 345.964 28.4078C345.964 28.4078 345.964 28.4078 345.964 28.4079C345.964 28.4079 345.965 28.4079 345.965 28.4079C345.965 28.4079 345.965 28.4079 345.966 28.4079C345.966 28.4079 345.966 28.4079 345.966 28.4079C345.967 28.4079 345.967 28.4079 345.967 28.4079C345.967 28.4079 345.967 28.4079 345.968 28.4079C345.968 28.4079 345.968 28.4079 345.968 28.4079C345.969 28.4079 345.969 28.4079 345.969 28.4079C345.969 28.4079 345.97 28.4079 345.97 28.4079C345.97 28.4079 345.97 28.4079 345.97 28.4079C345.971 28.4079 345.971 28.4079 345.971 28.4079C345.971 28.4079 345.972 28.4079 345.972 28.4079C345.972 28.4079 345.972 28.4079 345.972 28.4079C345.973 28.4079 345.973 28.4079 345.973 28.4079C345.973 28.4079 345.974 28.4079 345.974 28.4079C345.974 28.4079 345.974 28.4079 345.974 28.4079C345.975 28.4079 345.975 28.4079 345.975 28.4079C345.975 28.4079 345.976 28.4079 345.976 28.4079C345.976 28.4079 345.976 28.4079 345.977 28.408C345.977 28.408 345.977 28.408 345.977 28.408C345.977 28.408 345.978 28.408 345.978 28.408C345.978 28.408 345.978 28.408 345.979 28.408C345.979 28.408 345.979 28.408 345.979 28.408C345.979 28.408 345.98 28.408 345.98 28.408C345.98 28.408 345.98 28.408 345.981 28.408C345.981 28.408 345.981 28.408 345.981 28.408C345.981 28.408 345.982 28.408 345.982 28.408C345.982 28.408 345.982 28.408 345.983 28.408C345.983 28.408 345.983 28.408 345.983 28.408C345.983 28.408 345.984 28.408 345.984 28.408C345.984 28.408 345.984 28.408 345.985 28.408C345.985 28.408 345.985 28.408 345.985 28.408C345.985 28.408 345.986 28.408 345.986 28.408C345.986 28.408 345.986 28.408 345.987 28.408C345.987 28.408 345.987 28.408 345.987 28.408C345.988 28.408 345.988 28.408 345.988 28.408C345.988 28.408 345.988 28.408 345.989 28.408C345.989 28.408 345.989 28.4081 345.989 28.4081C345.989 28.4081 345.99 28.4081 345.99 28.4081C345.99 28.4081 345.99 28.4081 345.991 28.4081C345.991 28.4081 345.991 28.4081 345.991 28.4081C345.991 28.4081 345.992 28.4081 345.992 28.4081C345.992 28.4081 345.992 28.4081 345.993 28.4081C345.993 28.4081 345.993 28.4081 345.993 28.4081C345.993 28.4081 345.994 28.4081 345.994 28.4081C345.994 28.4081 345.994 28.4081 345.995 28.4081C345.995 28.4081 345.995 28.4081 345.995 28.4081C345.995 28.4081 345.996 28.4081 345.996 28.4081C345.996 28.4081 345.996 28.4081 345.997 28.4081C345.997 28.4081 345.997 28.4081 345.997 28.4081C345.997 28.4081 345.998 28.4081 345.998 28.4081C345.998 28.4081 345.998 28.4081 345.999 28.4081C345.999 28.4081 345.999 28.4081 345.999 28.4081C345.999 28.4081 346 28.4081 346 28.4081C346 28.4081 346 28.4081 346 28.4081C346.001 28.4081 346.001 28.4081 346.001 28.4081C346.001 28.4082 346.002 28.4082 346.002 28.4082C346.002 28.4082 346.002 28.4082 346.002 28.4082C346.003 28.4082 346.003 28.4082 346.003 28.4082C346.003 28.4082 346.004 28.4082 346.004 28.4082C346.004 28.4082 346.004 28.4082 346.004 28.4082C346.005 28.4082 346.005 28.4082 346.005 28.4082C346.005 28.4082 346.006 28.4082 346.006 28.4082C346.006 28.4082 346.006 28.4082 346.006 28.4082C346.007 28.4082 346.007 28.4082 346.007 28.4082C346.007 28.4082 346.007 28.4082 346.008 28.4082C346.008 28.4082 346.008 28.4082 346.008 28.4082C346.009 28.4082 346.009 28.4082 346.009 28.4082C346.009 28.4082 346.009 28.4082 346.01 28.4082C346.01 28.4082 346.01 28.4082 346.01 28.4082C346.01 28.4082 346.011 28.4082 346.011 28.4082C346.011 28.4082 346.011 28.4082 346.012 28.4082C346.012 28.4082 346.012 28.4082 346.012 28.4082C346.012 28.4082 346.013 28.4082 346.013 28.4082C346.013 28.4082 346.013 28.4082 346.013 28.4082C346.014 28.4083 346.014 28.4083 346.014 28.4083C346.014 28.4083 346.015 28.4083 346.015 28.4083C346.015 28.4083 346.015 28.4083 346.015 28.4083C346.016 28.4083 346.016 28.4083 346.016 28.4083C346.016 28.4083 346.016 28.4083 346.017 28.4083C346.017 28.4083 346.017 28.4083 346.017 28.4083C346.018 28.4083 346.018 28.4083 346.018 28.4083C346.018 28.4083 346.018 28.4083 346.019 28.4083C346.019 28.4083 346.019 28.4083 346.019 28.4083C346.019 28.4083 346.02 28.4083 346.02 28.4083C346.02 28.4083 346.02 28.4083 346.021 28.4083C346.021 28.4083 346.021 28.4083 346.021 28.4083C346.021 28.4083 346.022 28.4083 346.022 28.4083C346.022 28.4083 346.022 28.4083 346.022 28.4083C346.023 28.4083 346.023 28.4083 346.023 28.4083C346.023 28.4083 346.023 28.4083 346.024 28.4083C346.024 28.4083 346.024 28.4083 346.024 28.4083C346.025 28.4083 346.025 28.4083 346.025 28.4083C346.025 28.4083 346.025 28.4083 346.026 28.4083C346.026 28.4083 346.026 28.4084 346.026 28.4084C346.026 28.4084 346.027 28.4084 346.027 28.4084C346.027 28.4084 346.027 28.4084 346.027 28.4084C346.028 28.4084 346.028 28.4084 346.028 28.4084C346.028 28.4084 346.029 28.4084 346.029 28.4084C346.029 28.4084 346.029 28.4084 346.029 28.4084C346.03 28.4084 346.03 28.4084 346.03 28.4084C346.03 28.4084 346.03 28.4084 346.031 28.4084C346.031 28.4084 346.031 28.4084 346.031 28.4084C346.031 28.4084 346.032 28.4084 346.032 28.4084C346.032 28.4084 346.032 28.4084 346.032 28.4084C346.033 28.4084 346.033 28.4084 346.033 28.4084C346.033 28.4084 346.034 28.4084 346.034 28.4084C346.034 28.4084 346.034 28.4084 346.034 28.4084C346.035 28.4084 346.035 28.4084 346.035 28.4084C346.035 28.4084 346.035 28.4084 346.036 28.4084C346.036 28.4084 346.036 28.4084 346.036 28.4084C346.036 28.4084 346.037 28.4084 346.037 28.4084C346.037 28.4084 346.037 28.4084 346.037 28.4084C346.038 28.4084 346.038 28.4084 346.038 28.4084C346.038 28.4084 346.038 28.4085 346.039 28.4085C346.039 28.4085 346.039 28.4085 346.039 28.4085C346.04 28.4085 346.04 28.4085 346.04 28.4085C346.04 28.4085 346.04 28.4085 346.041 28.4085C346.041 28.4085 346.041 28.4085 346.041 28.4085C346.041 28.4085 346.042 28.4085 346.042 28.4085C346.042 28.4085 346.042 28.4085 346.042 28.4085C346.043 28.4085 346.043 28.4085 346.043 28.4085C346.043 28.4085 346.043 28.4085 346.044 28.4085C346.044 28.4085 346.044 28.4085 346.044 28.4085C346.044 28.4085 346.045 28.4085 346.045 28.4085C346.045 28.4085 346.045 28.4085 346.045 28.4085C346.046 28.4085 346.046 28.4085 346.046 28.4085C346.046 28.4085 346.046 28.4085 346.047 28.4085C346.047 28.4085 346.047 28.4085 346.047 28.4085C346.047 28.4085 346.048 28.4085 346.048 28.4085C346.048 28.4085 346.048 28.4085 346.049 28.4085C346.049 28.4085 346.049 28.4085 346.049 28.4085C346.049 28.4085 346.05 28.4085 346.05 28.4085C346.05 28.4085 346.05 28.4085 346.05 28.4085C346.051 28.4085 346.051 28.4086 346.051 28.4086C346.051 28.4086 346.051 28.4086 346.052 28.4086C346.052 28.4086 346.052 28.4086 346.052 28.4086C346.052 28.4086 346.053 28.4086 346.053 28.4086C346.053 28.4086 346.053 28.4086 346.053 28.4086C346.054 28.4086 346.054 28.4086 346.054 28.4086C346.054 28.4086 346.054 28.4086 346.055 28.4086C346.055 28.4086 346.055 28.4086 346.055 28.4086C346.055 28.4086 346.056 28.4086 346.056 28.4086C346.056 28.4086 346.056 28.4086 346.056 28.4086C346.057 28.4086 346.057 28.4086 346.057 28.4086C346.057 28.4086 346.057 28.4086 346.058 28.4086C346.058 28.4086 346.058 28.4086 346.058 28.4086C346.058 28.4086 346.059 28.4086 346.059 28.4086C346.059 28.4086 346.059 28.4086 346.059 28.4086C346.06 28.4086 346.06 28.4086 346.06 28.4086C346.06 28.4086 346.06 28.4086 346.061 28.4086C346.061 28.4086 346.061 28.4086 346.061 28.4086C346.061 28.4086 346.062 28.4086 346.062 28.4086C346.062 28.4086 346.062 28.4086 346.062 28.4086C346.063 28.4086 346.063 28.4086 346.063 28.4086C346.063 28.4087 346.063 28.4087 346.064 28.4087C346.064 28.4087 346.064 28.4087 346.064 28.4087C346.064 28.4087 346.065 28.4087 346.065 28.4087C346.065 28.4087 346.065 28.4087 346.065 28.4087C346.066 28.4087 346.066 28.4087 346.066 28.4087C346.066 28.4087 346.066 28.4087 346.066 28.4087C346.067 28.4087 346.067 28.4087 346.067 28.4087C346.067 28.4087 346.067 28.4087 346.068 28.4087C346.068 28.4087 346.068 28.4087 346.068 28.4087C346.068 28.4087 346.069 28.4087 346.069 28.4087C346.069 28.4087 346.069 28.4087 346.069 28.4087C346.07 28.4087 346.07 28.4087 346.07 28.4087C346.07 28.4087 346.07 28.4087 346.071 28.4087C346.071 28.4087 346.071 28.4087 346.071 28.4087C346.071 28.4087 346.072 28.4087 346.072 28.4087C346.072 28.4087 346.072 28.4087 346.072 28.4087C346.073 28.4087 346.073 28.4087 346.073 28.4087C346.073 28.4087 346.073 28.4087 346.074 28.4087C346.074 28.4087 346.074 28.4087 346.074 28.4087C346.074 28.4087 346.074 28.4087 346.075 28.4087C346.075 28.4087 346.075 28.4087 346.075 28.4087C346.075 28.4087 346.076 28.4088 346.076 28.4088C346.076 28.4088 346.076 28.4088 346.076 28.4088C346.077 28.4088 346.077 28.4088 346.077 28.4088C346.077 28.4088 346.077 28.4088 346.078 28.4088C346.078 28.4088 346.078 28.4088 346.078 28.4088C346.078 28.4088 346.079 28.4088 346.079 28.4088C346.079 28.4088 346.079 28.4088 346.079 28.4088C346.08 28.4088 346.08 28.4088 346.08 28.4088C346.08 28.4088 346.08 28.4088 346.08 28.4088C346.081 28.4088 346.081 28.4088 346.081 28.4088C346.081 28.4088 346.081 28.4088 346.082 28.4088C346.082 28.4088 346.082 28.4088 346.082 28.4088C346.082 28.4088 346.083 28.4088 346.083 28.4088C346.083 28.4088 346.083 28.4088 346.083 28.4088C346.084 28.4088 346.084 28.4088 346.084 28.4088C346.084 28.4088 346.084 28.4088 346.084 28.4088C346.085 28.4088 346.085 28.4088 346.085 28.4088C346.085 28.4088 346.085 28.4088 346.086 28.4088C346.086 28.4088 346.086 28.4088 346.086 28.4088C346.086 28.4088 346.087 28.4088 346.087 28.4088C346.087 28.4088 346.087 28.4088 346.087 28.4088C346.088 28.4088 346.088 28.4088 346.088 28.4089C346.088 28.4089 346.088 28.4089 346.088 28.4089C346.089 28.4089 346.089 28.4089 346.089 28.4089C346.089 28.4089 346.089 28.4089 346.09 28.4089C346.09 28.4089 346.09 28.4089 346.09 28.4089C346.09 28.4089 346.091 28.4089 346.091 28.4089C346.091 28.4089 346.091 28.4089 346.091 28.4089C346.091 28.4089 346.092 28.4089 346.092 28.4089C346.092 28.4089 346.092 28.4089 346.092 28.4089C346.093 28.4089 346.093 28.4089 346.093 28.4089C346.093 28.4089 346.093 28.4089 346.094 28.4089C346.094 28.4089 346.094 28.4089 346.094 28.4089C346.094 28.4089 346.094 28.4089 346.095 28.4089C346.095 28.4089 346.095 28.4089 346.095 28.4089C346.095 28.4089 346.096 28.4089 346.096 28.4089C346.096 28.4089 346.096 28.4089 346.096 28.4089C346.097 28.4089 346.097 28.4089 346.097 28.4089C346.097 28.4089 346.097 28.4089 346.097 28.4089C346.098 28.4089 346.098 28.4089 346.098 28.4089C346.098 28.4089 346.098 28.4089 346.099 28.4089C346.099 28.4089 346.099 28.4089 346.099 28.4089C346.099 28.4089 346.1 28.4089 346.1 28.4089C346.1 28.4089 346.1 28.4089 346.1 28.409C346.1 28.409 346.101 28.409 346.101 28.409C346.101 28.409 346.101 28.409 346.101 28.409C346.102 28.409 346.102 28.409 346.102 28.409C346.102 28.409 346.102 28.409 346.102 28.409C346.103 28.409 346.103 28.409 346.103 28.409C346.103 28.409 346.103 28.409 346.104 28.409C346.104 28.409 346.104 28.409 346.104 28.409C346.104 28.409 346.104 28.409 346.105 28.409C346.105 28.409 346.105 28.409 346.105 28.409C346.105 28.409 346.106 28.409 346.106 28.409C346.106 28.409 346.106 28.409 346.106 28.409C346.106 28.409 346.107 28.409 346.107 28.409C346.107 28.409 346.107 28.409 346.107 28.409C346.108 28.409 346.108 28.409 346.108 28.409C346.108 28.409 346.108 28.409 346.108 28.409C346.109 28.409 346.109 28.409 346.109 28.409C346.109 28.409 346.109 28.409 346.11 28.409C346.11 28.409 346.11 28.409 346.11 28.409C346.11 28.409 346.11 28.409 346.111 28.409C346.111 28.409 346.111 28.409 346.111 28.409C346.111 28.409 346.112 28.409 346.112 28.409C346.112 28.409 346.112 28.409 346.112 28.409C346.112 28.409 346.113 28.4091 346.113 28.4091C346.113 28.4091 346.113 28.4091 346.113 28.4091C346.114 28.4091 346.114 28.4091 346.114 28.4091C346.114 28.4091 346.114 28.4091 346.114 28.4091C346.115 28.4091 346.115 28.4091 346.115 28.4091C346.115 28.4091 346.115 28.4091 346.116 28.4091C346.116 28.4091 346.116 28.4091 346.116 28.4091C346.116 28.4091 346.116 28.4091 346.117 28.4091C346.117 28.4091 346.117 28.4091 346.117 28.4091C346.117 28.4091 346.117 28.4091 346.118 28.4091C346.118 28.4091 346.118 28.4091 346.118 28.4091C346.118 28.4091 346.119 28.4091 346.119 28.4091C346.119 28.4091 346.119 28.4091 346.119 28.4091C346.119 28.4091 346.12 28.4091 346.12 28.4091C346.12 28.4091 346.12 28.4091 346.12 28.4091C346.121 28.4091 346.121 28.4091 346.121 28.4091C346.121 28.4091 346.121 28.4091 346.121 28.4091C346.122 28.4091 346.122 28.4091 346.122 28.4091C346.122 28.4091 346.122 28.4091 346.122 28.4091C346.123 28.4091 346.123 28.4091 346.123 28.4091C346.123 28.4091 346.123 28.4091 346.124 28.4091C346.124 28.4091 346.124 28.4091 346.124 28.4091C346.124 28.4091 346.124 28.4091 346.125 28.4091C346.125 28.4091 346.125 28.4091 346.125 28.4092C346.125 28.4092 346.125 28.4092 346.126 28.4092C346.126 28.4092 346.126 28.4092 346.126 28.4092C346.126 28.4092 346.126 28.4092 346.127 28.4092C346.127 28.4092 346.127 28.4092 346.127 28.4092C346.127 28.4092 346.128 28.4092 346.128 28.4092C346.128 28.4092 346.128 28.4092 346.128 28.4092C346.128 28.4092 346.129 28.4092 346.129 28.4092C346.129 28.4092 346.129 28.4092 346.129 28.4092C346.129 28.4092 346.13 28.4092 346.13 28.4092C346.13 28.4092 346.13 28.4092 346.13 28.4092C346.13 28.4092 346.131 28.4092 346.131 28.4092C346.131 28.4092 346.131 28.4092 346.131 28.4092C346.132 28.4092 346.132 28.4092 346.132 28.4092C346.132 28.4092 346.132 28.4092 346.132 28.4092C346.133 28.4092 346.133 28.4092 346.133 28.4092C346.133 28.4092 346.133 28.4092 346.133 28.4092C346.134 28.4092 346.134 28.4092 346.134 28.4092C346.134 28.4092 346.134 28.4092 346.134 28.4092C346.135 28.4092 346.135 28.4092 346.135 28.4092C346.135 28.4092 346.135 28.4092 346.135 28.4092C346.136 28.4092 346.136 28.4092 346.136 28.4092C346.136 28.4092 346.136 28.4092 346.137 28.4092C346.137 28.4092 346.137 28.4092 346.137 28.4092C346.137 28.4092 346.137 28.4092 346.138 28.4093C346.138 28.4093 346.138 28.4093 346.138 28.4093C346.138 28.4093 346.138 28.4093 346.139 28.4093C346.139 28.4093 346.139 28.4093 346.139 28.4093C346.139 28.4093 346.139 28.4093 346.14 28.4093C346.14 28.4093 346.14 28.4093 346.14 28.4093C346.14 28.4093 346.14 28.4093 346.141 28.4093C346.141 28.4093 346.141 28.4093 346.141 28.4093C346.141 28.4093 346.141 28.4093 346.142 28.4093C346.142 28.4093 346.142 28.4093 346.142 28.4093C346.142 28.4093 346.142 28.4093 346.143 28.4093C346.143 28.4093 346.143 28.4093 346.143 28.4093C346.143 28.4093 346.143 28.4093 346.144 28.4093C346.144 28.4093 346.144 28.4093 346.144 28.4093C346.144 28.4093 346.144 28.4093 346.145 28.4093C346.145 28.4093 346.145 28.4093 346.145 28.4093C346.145 28.4093 346.145 28.4093 346.146 28.4093C346.146 28.4093 346.146 28.4093 346.146 28.4093C346.146 28.4093 346.146 28.4093 346.147 28.4093C346.147 28.4093 346.147 28.4093 346.147 28.4093C346.147 28.4093 346.147 28.4093 346.148 28.4093C346.148 28.4093 346.148 28.4093 346.148 28.4093C346.148 28.4093 346.148 28.4093 346.149 28.4093C346.149 28.4093 346.149 28.4093 346.149 28.4093C346.149 28.4093 346.149 28.4093 346.15 28.4093C346.15 28.4094 346.15 28.4094 346.15 28.4094C346.15 28.4094 346.15 28.4094 346.151 28.4094C346.151 28.4094 346.151 28.4094 346.151 28.4094C346.151 28.4094 346.151 28.4094 346.152 28.4094C346.152 28.4094 346.152 28.4094 346.152 28.4094C346.152 28.4094 346.152 28.4094 346.153 28.4094C346.153 28.4094 346.153 28.4094 346.153 28.4094C346.153 28.4094 346.153 28.4094 346.154 28.4094C346.154 28.4094 346.154 28.4094 346.154 28.4094C346.154 28.4094 346.154 28.4094 346.155 28.4094C346.155 28.4094 346.155 28.4094 346.155 28.4094C346.155 28.4094 346.155 28.4094 346.156 28.4094C346.156 28.4094 346.156 28.4094 346.156 28.4094C346.156 28.4094 346.156 28.4094 346.157 28.4094C346.157 28.4094 346.157 28.4094 346.157 28.4094C346.157 28.4094 346.157 28.4094 346.158 28.4094C346.158 28.4094 346.158 28.4094 346.158 28.4094C346.158 28.4094 346.158 28.4094 346.158 28.4094C346.159 28.4094 346.159 28.4094 346.159 28.4094C346.159 28.4094 346.159 28.4094 346.159 28.4094C346.16 28.4094 346.16 28.4094 346.16 28.4094C346.16 28.4094 346.16 28.4094 346.16 28.4094C346.161 28.4094 346.161 28.4094 346.161 28.4094C346.161 28.4094 346.161 28.4094 346.161 28.4094C346.162 28.4094 346.162 28.4094 346.162 28.4094C346.162 28.4094 346.162 28.4095 346.162 28.4095C346.163 28.4095 346.163 28.4095 346.163 28.4095C346.163 28.4095 346.163 28.4095 346.163 28.4095C346.163 28.4095 346.164 28.4095 346.164 28.4095C346.164 28.4095 346.164 28.4095 346.164 28.4095C346.164 28.4095 346.165 28.4095 346.165 28.4095C346.165 28.4095 346.165 28.4095 346.165 28.4095C346.165 28.4095 346.166 28.4095 346.166 28.4095C346.166 28.4095 346.166 28.4095 346.166 28.4095C346.166 28.4095 346.166 28.4095 346.167 28.4095C346.167 28.4095 346.167 28.4095 346.167 28.4095C346.167 28.4095 346.167 28.4095 346.168 28.4095C346.168 28.4095 346.168 28.4095 346.168 28.4095C346.168 28.4095 346.168 28.4095 346.169 28.4095C346.169 28.4095 346.169 28.4095 346.169 28.4095C346.169 28.4095 346.169 28.4095 346.17 28.4095C346.17 28.4095 346.17 28.4095 346.17 28.4095C346.17 28.4095 346.17 28.4095 346.17 28.4095C346.171 28.4095 346.171 28.4095 346.171 28.4095C346.171 28.4095 346.171 28.4095 346.171 28.4095C346.172 28.4095 346.172 28.4095 346.172 28.4095L346.188 26.4096C346.188 26.4096 346.188 26.4096 346.188 26.4096C346.187 26.4096 346.187 26.4096 346.187 26.4096C346.187 26.4096 346.187 26.4096 346.187 26.4096C346.186 26.4096 346.186 26.4096 346.186 26.4096C346.186 26.4096 346.186 26.4096 346.186 26.4096C346.185 26.4096 346.185 26.4096 346.185 26.4096C346.185 26.4096 346.185 26.4096 346.185 26.4096C346.185 26.4096 346.184 26.4096 346.184 26.4096C346.184 26.4096 346.184 26.4096 346.184 26.4096C346.184 26.4096 346.183 26.4096 346.183 26.4096C346.183 26.4096 346.183 26.4096 346.183 26.4096C346.183 26.4096 346.182 26.4095 346.182 26.4095C346.182 26.4095 346.182 26.4095 346.182 26.4095C346.182 26.4095 346.182 26.4095 346.181 26.4095C346.181 26.4095 346.181 26.4095 346.181 26.4095C346.181 26.4095 346.181 26.4095 346.18 26.4095C346.18 26.4095 346.18 26.4095 346.18 26.4095C346.18 26.4095 346.18 26.4095 346.179 26.4095C346.179 26.4095 346.179 26.4095 346.179 26.4095C346.179 26.4095 346.179 26.4095 346.179 26.4095C346.178 26.4095 346.178 26.4095 346.178 26.4095C346.178 26.4095 346.178 26.4095 346.178 26.4095C346.177 26.4095 346.177 26.4095 346.177 26.4095C346.177 26.4095 346.177 26.4095 346.177 26.4095C346.176 26.4095 346.176 26.4095 346.176 26.4095C346.176 26.4095 346.176 26.4095 346.176 26.4095C346.175 26.4095 346.175 26.4095 346.175 26.4095C346.175 26.4095 346.175 26.4095 346.175 26.4095C346.174 26.4095 346.174 26.4095 346.174 26.4095C346.174 26.4095 346.174 26.4095 346.174 26.4095C346.174 26.4095 346.173 26.4095 346.173 26.4095C346.173 26.4095 346.173 26.4095 346.173 26.4095C346.173 26.4095 346.172 26.4095 346.172 26.4095C346.172 26.4095 346.172 26.4095 346.172 26.4095C346.172 26.4095 346.171 26.4095 346.171 26.4095C346.171 26.4095 346.171 26.4095 346.171 26.4095C346.171 26.4095 346.17 26.4095 346.17 26.4095C346.17 26.4094 346.17 26.4094 346.17 26.4094C346.17 26.4094 346.169 26.4094 346.169 26.4094C346.169 26.4094 346.169 26.4094 346.169 26.4094C346.169 26.4094 346.168 26.4094 346.168 26.4094C346.168 26.4094 346.168 26.4094 346.168 26.4094C346.168 26.4094 346.167 26.4094 346.167 26.4094C346.167 26.4094 346.167 26.4094 346.167 26.4094C346.167 26.4094 346.166 26.4094 346.166 26.4094C346.166 26.4094 346.166 26.4094 346.166 26.4094C346.166 26.4094 346.165 26.4094 346.165 26.4094C346.165 26.4094 346.165 26.4094 346.165 26.4094C346.165 26.4094 346.164 26.4094 346.164 26.4094C346.164 26.4094 346.164 26.4094 346.164 26.4094C346.164 26.4094 346.163 26.4094 346.163 26.4094C346.163 26.4094 346.163 26.4094 346.163 26.4094C346.163 26.4094 346.162 26.4094 346.162 26.4094C346.162 26.4094 346.162 26.4094 346.162 26.4094C346.162 26.4094 346.161 26.4094 346.161 26.4094C346.161 26.4094 346.161 26.4094 346.161 26.4094C346.161 26.4094 346.16 26.4094 346.16 26.4094C346.16 26.4094 346.16 26.4094 346.16 26.4094C346.16 26.4094 346.159 26.4094 346.159 26.4094C346.159 26.4094 346.159 26.4094 346.159 26.4094C346.159 26.4094 346.158 26.4094 346.158 26.4094C346.158 26.4094 346.158 26.4094 346.158 26.4093C346.158 26.4093 346.157 26.4093 346.157 26.4093C346.157 26.4093 346.157 26.4093 346.157 26.4093C346.157 26.4093 346.156 26.4093 346.156 26.4093C346.156 26.4093 346.156 26.4093 346.156 26.4093C346.156 26.4093 346.155 26.4093 346.155 26.4093C346.155 26.4093 346.155 26.4093 346.155 26.4093C346.155 26.4093 346.154 26.4093 346.154 26.4093C346.154 26.4093 346.154 26.4093 346.154 26.4093C346.154 26.4093 346.153 26.4093 346.153 26.4093C346.153 26.4093 346.153 26.4093 346.153 26.4093C346.153 26.4093 346.152 26.4093 346.152 26.4093C346.152 26.4093 346.152 26.4093 346.152 26.4093C346.151 26.4093 346.151 26.4093 346.151 26.4093C346.151 26.4093 346.151 26.4093 346.151 26.4093C346.15 26.4093 346.15 26.4093 346.15 26.4093C346.15 26.4093 346.15 26.4093 346.15 26.4093C346.149 26.4093 346.149 26.4093 346.149 26.4093C346.149 26.4093 346.149 26.4093 346.149 26.4093C346.148 26.4093 346.148 26.4093 346.148 26.4093C346.148 26.4093 346.148 26.4093 346.148 26.4093C346.147 26.4093 346.147 26.4093 346.147 26.4093C346.147 26.4093 346.147 26.4093 346.146 26.4093C346.146 26.4093 346.146 26.4093 346.146 26.4093C346.146 26.4093 346.146 26.4093 346.145 26.4092C346.145 26.4092 346.145 26.4092 346.145 26.4092C346.145 26.4092 346.145 26.4092 346.144 26.4092C346.144 26.4092 346.144 26.4092 346.144 26.4092C346.144 26.4092 346.144 26.4092 346.143 26.4092C346.143 26.4092 346.143 26.4092 346.143 26.4092C346.143 26.4092 346.142 26.4092 346.142 26.4092C346.142 26.4092 346.142 26.4092 346.142 26.4092C346.142 26.4092 346.141 26.4092 346.141 26.4092C346.141 26.4092 346.141 26.4092 346.141 26.4092C346.141 26.4092 346.14 26.4092 346.14 26.4092C346.14 26.4092 346.14 26.4092 346.14 26.4092C346.139 26.4092 346.139 26.4092 346.139 26.4092C346.139 26.4092 346.139 26.4092 346.139 26.4092C346.138 26.4092 346.138 26.4092 346.138 26.4092C346.138 26.4092 346.138 26.4092 346.138 26.4092C346.137 26.4092 346.137 26.4092 346.137 26.4092C346.137 26.4092 346.137 26.4092 346.136 26.4092C346.136 26.4092 346.136 26.4092 346.136 26.4092C346.136 26.4092 346.136 26.4092 346.135 26.4092C346.135 26.4092 346.135 26.4092 346.135 26.4092C346.135 26.4092 346.135 26.4092 346.134 26.4092C346.134 26.4092 346.134 26.4092 346.134 26.4092C346.134 26.4092 346.133 26.4092 346.133 26.4092C346.133 26.4092 346.133 26.4091 346.133 26.4091C346.133 26.4091 346.132 26.4091 346.132 26.4091C346.132 26.4091 346.132 26.4091 346.132 26.4091C346.132 26.4091 346.131 26.4091 346.131 26.4091C346.131 26.4091 346.131 26.4091 346.131 26.4091C346.13 26.4091 346.13 26.4091 346.13 26.4091C346.13 26.4091 346.13 26.4091 346.13 26.4091C346.129 26.4091 346.129 26.4091 346.129 26.4091C346.129 26.4091 346.129 26.4091 346.128 26.4091C346.128 26.4091 346.128 26.4091 346.128 26.4091C346.128 26.4091 346.128 26.4091 346.127 26.4091C346.127 26.4091 346.127 26.4091 346.127 26.4091C346.127 26.4091 346.126 26.4091 346.126 26.4091C346.126 26.4091 346.126 26.4091 346.126 26.4091C346.126 26.4091 346.125 26.4091 346.125 26.4091C346.125 26.4091 346.125 26.4091 346.125 26.4091C346.124 26.4091 346.124 26.4091 346.124 26.4091C346.124 26.4091 346.124 26.4091 346.124 26.4091C346.123 26.4091 346.123 26.4091 346.123 26.4091C346.123 26.4091 346.123 26.4091 346.122 26.4091C346.122 26.4091 346.122 26.4091 346.122 26.4091C346.122 26.4091 346.122 26.4091 346.121 26.4091C346.121 26.4091 346.121 26.4091 346.121 26.4091C346.121 26.409 346.12 26.409 346.12 26.409C346.12 26.409 346.12 26.409 346.12 26.409C346.12 26.409 346.119 26.409 346.119 26.409C346.119 26.409 346.119 26.409 346.119 26.409C346.118 26.409 346.118 26.409 346.118 26.409C346.118 26.409 346.118 26.409 346.118 26.409C346.117 26.409 346.117 26.409 346.117 26.409C346.117 26.409 346.117 26.409 346.116 26.409C346.116 26.409 346.116 26.409 346.116 26.409C346.116 26.409 346.115 26.409 346.115 26.409C346.115 26.409 346.115 26.409 346.115 26.409C346.115 26.409 346.114 26.409 346.114 26.409C346.114 26.409 346.114 26.409 346.114 26.409C346.113 26.409 346.113 26.409 346.113 26.409C346.113 26.409 346.113 26.409 346.113 26.409C346.112 26.409 346.112 26.409 346.112 26.409C346.112 26.409 346.112 26.409 346.111 26.409C346.111 26.409 346.111 26.409 346.111 26.409C346.111 26.409 346.11 26.409 346.11 26.409C346.11 26.409 346.11 26.409 346.11 26.409C346.11 26.409 346.109 26.409 346.109 26.409C346.109 26.409 346.109 26.409 346.109 26.409C346.108 26.409 346.108 26.4089 346.108 26.4089C346.108 26.4089 346.108 26.4089 346.107 26.4089C346.107 26.4089 346.107 26.4089 346.107 26.4089C346.107 26.4089 346.107 26.4089 346.106 26.4089C346.106 26.4089 346.106 26.4089 346.106 26.4089C346.106 26.4089 346.105 26.4089 346.105 26.4089C346.105 26.4089 346.105 26.4089 346.105 26.4089C346.104 26.4089 346.104 26.4089 346.104 26.4089C346.104 26.4089 346.104 26.4089 346.103 26.4089C346.103 26.4089 346.103 26.4089 346.103 26.4089C346.103 26.4089 346.103 26.4089 346.102 26.4089C346.102 26.4089 346.102 26.4089 346.102 26.4089C346.102 26.4089 346.101 26.4089 346.101 26.4089C346.101 26.4089 346.101 26.4089 346.101 26.4089C346.1 26.4089 346.1 26.4089 346.1 26.4089C346.1 26.4089 346.1 26.4089 346.1 26.4089C346.099 26.4089 346.099 26.4089 346.099 26.4089C346.099 26.4089 346.099 26.4089 346.098 26.4089C346.098 26.4089 346.098 26.4089 346.098 26.4089C346.098 26.4089 346.097 26.4089 346.097 26.4089C346.097 26.4089 346.097 26.4089 346.097 26.4089C346.096 26.4089 346.096 26.4089 346.096 26.4089C346.096 26.4088 346.096 26.4088 346.095 26.4088C346.095 26.4088 346.095 26.4088 346.095 26.4088C346.095 26.4088 346.095 26.4088 346.094 26.4088C346.094 26.4088 346.094 26.4088 346.094 26.4088C346.094 26.4088 346.093 26.4088 346.093 26.4088C346.093 26.4088 346.093 26.4088 346.093 26.4088C346.092 26.4088 346.092 26.4088 346.092 26.4088C346.092 26.4088 346.092 26.4088 346.091 26.4088C346.091 26.4088 346.091 26.4088 346.091 26.4088C346.091 26.4088 346.09 26.4088 346.09 26.4088C346.09 26.4088 346.09 26.4088 346.09 26.4088C346.089 26.4088 346.089 26.4088 346.089 26.4088C346.089 26.4088 346.089 26.4088 346.089 26.4088C346.088 26.4088 346.088 26.4088 346.088 26.4088C346.088 26.4088 346.088 26.4088 346.087 26.4088C346.087 26.4088 346.087 26.4088 346.087 26.4088C346.087 26.4088 346.086 26.4088 346.086 26.4088C346.086 26.4088 346.086 26.4088 346.086 26.4088C346.085 26.4088 346.085 26.4088 346.085 26.4088C346.085 26.4088 346.085 26.4088 346.084 26.4088C346.084 26.4088 346.084 26.4088 346.084 26.4088C346.084 26.4088 346.083 26.4087 346.083 26.4087C346.083 26.4087 346.083 26.4087 346.083 26.4087C346.082 26.4087 346.082 26.4087 346.082 26.4087C346.082 26.4087 346.082 26.4087 346.081 26.4087C346.081 26.4087 346.081 26.4087 346.081 26.4087C346.081 26.4087 346.08 26.4087 346.08 26.4087C346.08 26.4087 346.08 26.4087 346.08 26.4087C346.079 26.4087 346.079 26.4087 346.079 26.4087C346.079 26.4087 346.079 26.4087 346.078 26.4087C346.078 26.4087 346.078 26.4087 346.078 26.4087C346.078 26.4087 346.078 26.4087 346.077 26.4087C346.077 26.4087 346.077 26.4087 346.077 26.4087C346.077 26.4087 346.076 26.4087 346.076 26.4087C346.076 26.4087 346.076 26.4087 346.076 26.4087C346.075 26.4087 346.075 26.4087 346.075 26.4087C346.075 26.4087 346.075 26.4087 346.074 26.4087C346.074 26.4087 346.074 26.4087 346.074 26.4087C346.074 26.4087 346.073 26.4087 346.073 26.4087C346.073 26.4087 346.073 26.4087 346.073 26.4087C346.072 26.4087 346.072 26.4087 346.072 26.4087C346.072 26.4087 346.072 26.4087 346.071 26.4087C346.071 26.4086 346.071 26.4086 346.071 26.4086C346.071 26.4086 346.07 26.4086 346.07 26.4086C346.07 26.4086 346.07 26.4086 346.07 26.4086C346.069 26.4086 346.069 26.4086 346.069 26.4086C346.069 26.4086 346.069 26.4086 346.068 26.4086C346.068 26.4086 346.068 26.4086 346.068 26.4086C346.067 26.4086 346.067 26.4086 346.067 26.4086C346.067 26.4086 346.067 26.4086 346.066 26.4086C346.066 26.4086 346.066 26.4086 346.066 26.4086C346.066 26.4086 346.065 26.4086 346.065 26.4086C346.065 26.4086 346.065 26.4086 346.065 26.4086C346.064 26.4086 346.064 26.4086 346.064 26.4086C346.064 26.4086 346.064 26.4086 346.063 26.4086C346.063 26.4086 346.063 26.4086 346.063 26.4086C346.063 26.4086 346.062 26.4086 346.062 26.4086C346.062 26.4086 346.062 26.4086 346.062 26.4086C346.061 26.4086 346.061 26.4086 346.061 26.4086C346.061 26.4086 346.061 26.4086 346.06 26.4086C346.06 26.4086 346.06 26.4086 346.06 26.4086C346.06 26.4086 346.059 26.4086 346.059 26.4086C346.059 26.4086 346.059 26.4085 346.059 26.4085C346.058 26.4085 346.058 26.4085 346.058 26.4085C346.058 26.4085 346.058 26.4085 346.057 26.4085C346.057 26.4085 346.057 26.4085 346.057 26.4085C346.056 26.4085 346.056 26.4085 346.056 26.4085C346.056 26.4085 346.056 26.4085 346.055 26.4085C346.055 26.4085 346.055 26.4085 346.055 26.4085C346.055 26.4085 346.054 26.4085 346.054 26.4085C346.054 26.4085 346.054 26.4085 346.054 26.4085C346.053 26.4085 346.053 26.4085 346.053 26.4085C346.053 26.4085 346.053 26.4085 346.052 26.4085C346.052 26.4085 346.052 26.4085 346.052 26.4085C346.052 26.4085 346.051 26.4085 346.051 26.4085C346.051 26.4085 346.051 26.4085 346.051 26.4085C346.05 26.4085 346.05 26.4085 346.05 26.4085C346.05 26.4085 346.049 26.4085 346.049 26.4085C346.049 26.4085 346.049 26.4085 346.049 26.4085C346.048 26.4085 346.048 26.4085 346.048 26.4085C346.048 26.4085 346.048 26.4085 346.047 26.4085C346.047 26.4085 346.047 26.4085 346.047 26.4085C346.047 26.4085 346.046 26.4084 346.046 26.4084C346.046 26.4084 346.046 26.4084 346.046 26.4084C346.045 26.4084 346.045 26.4084 346.045 26.4084C346.045 26.4084 346.044 26.4084 346.044 26.4084C346.044 26.4084 346.044 26.4084 346.044 26.4084C346.043 26.4084 346.043 26.4084 346.043 26.4084C346.043 26.4084 346.043 26.4084 346.042 26.4084C346.042 26.4084 346.042 26.4084 346.042 26.4084C346.042 26.4084 346.041 26.4084 346.041 26.4084C346.041 26.4084 346.041 26.4084 346.04 26.4084C346.04 26.4084 346.04 26.4084 346.04 26.4084C346.04 26.4084 346.039 26.4084 346.039 26.4084C346.039 26.4084 346.039 26.4084 346.039 26.4084C346.038 26.4084 346.038 26.4084 346.038 26.4084C346.038 26.4084 346.038 26.4084 346.037 26.4084C346.037 26.4084 346.037 26.4084 346.037 26.4084C346.036 26.4084 346.036 26.4084 346.036 26.4084C346.036 26.4084 346.036 26.4084 346.035 26.4084C346.035 26.4084 346.035 26.4084 346.035 26.4084C346.035 26.4084 346.034 26.4084 346.034 26.4084C346.034 26.4083 346.034 26.4083 346.033 26.4083C346.033 26.4083 346.033 26.4083 346.033 26.4083C346.033 26.4083 346.032 26.4083 346.032 26.4083C346.032 26.4083 346.032 26.4083 346.032 26.4083C346.031 26.4083 346.031 26.4083 346.031 26.4083C346.031 26.4083 346.03 26.4083 346.03 26.4083C346.03 26.4083 346.03 26.4083 346.03 26.4083C346.029 26.4083 346.029 26.4083 346.029 26.4083C346.029 26.4083 346.029 26.4083 346.028 26.4083C346.028 26.4083 346.028 26.4083 346.028 26.4083C346.027 26.4083 346.027 26.4083 346.027 26.4083C346.027 26.4083 346.027 26.4083 346.026 26.4083C346.026 26.4083 346.026 26.4083 346.026 26.4083C346.026 26.4083 346.025 26.4083 346.025 26.4083C346.025 26.4083 346.025 26.4083 346.024 26.4083C346.024 26.4083 346.024 26.4083 346.024 26.4083C346.024 26.4083 346.023 26.4083 346.023 26.4083C346.023 26.4083 346.023 26.4083 346.023 26.4083C346.022 26.4083 346.022 26.4083 346.022 26.4083C346.022 26.4082 346.021 26.4082 346.021 26.4082C346.021 26.4082 346.021 26.4082 346.021 26.4082C346.02 26.4082 346.02 26.4082 346.02 26.4082C346.02 26.4082 346.019 26.4082 346.019 26.4082C346.019 26.4082 346.019 26.4082 346.019 26.4082C346.018 26.4082 346.018 26.4082 346.018 26.4082C346.018 26.4082 346.018 26.4082 346.017 26.4082C346.017 26.4082 346.017 26.4082 346.017 26.4082C346.016 26.4082 346.016 26.4082 346.016 26.4082C346.016 26.4082 346.016 26.4082 346.015 26.4082C346.015 26.4082 346.015 26.4082 346.015 26.4082C346.014 26.4082 346.014 26.4082 346.014 26.4082C346.014 26.4082 346.014 26.4082 346.013 26.4082C346.013 26.4082 346.013 26.4082 346.013 26.4082C346.012 26.4082 346.012 26.4082 346.012 26.4082C346.012 26.4082 346.012 26.4082 346.011 26.4082C346.011 26.4082 346.011 26.4082 346.011 26.4082C346.011 26.4082 346.01 26.4082 346.01 26.4082C346.01 26.4082 346.01 26.4082 346.009 26.4082C346.009 26.4081 346.009 26.4081 346.009 26.4081C346.009 26.4081 346.008 26.4081 346.008 26.4081C346.008 26.4081 346.008 26.4081 346.007 26.4081C346.007 26.4081 346.007 26.4081 346.007 26.4081C346.007 26.4081 346.006 26.4081 346.006 26.4081C346.006 26.4081 346.006 26.4081 346.005 26.4081C346.005 26.4081 346.005 26.4081 346.005 26.4081C346.005 26.4081 346.004 26.4081 346.004 26.4081C346.004 26.4081 346.004 26.4081 346.003 26.4081C346.003 26.4081 346.003 26.4081 346.003 26.4081C346.003 26.4081 346.002 26.4081 346.002 26.4081C346.002 26.4081 346.002 26.4081 346.001 26.4081C346.001 26.4081 346.001 26.4081 346.001 26.4081C346.001 26.4081 346 26.4081 346 26.4081C346 26.4081 346 26.4081 345.999 26.4081C345.999 26.4081 345.999 26.4081 345.999 26.4081C345.999 26.4081 345.998 26.4081 345.998 26.4081C345.998 26.4081 345.998 26.4081 345.997 26.4081C345.997 26.4081 345.997 26.4081 345.997 26.408C345.997 26.408 345.996 26.408 345.996 26.408C345.996 26.408 345.996 26.408 345.995 26.408C345.995 26.408 345.995 26.408 345.995 26.408C345.994 26.408 345.994 26.408 345.994 26.408C345.994 26.408 345.994 26.408 345.993 26.408C345.993 26.408 345.993 26.408 345.993 26.408C345.992 26.408 345.992 26.408 345.992 26.408C345.992 26.408 345.992 26.408 345.991 26.408C345.991 26.408 345.991 26.408 345.991 26.408C345.99 26.408 345.99 26.408 345.99 26.408C345.99 26.408 345.99 26.408 345.989 26.408C345.989 26.408 345.989 26.408 345.989 26.408C345.988 26.408 345.988 26.408 345.988 26.408C345.988 26.408 345.987 26.408 345.987 26.408C345.987 26.408 345.987 26.408 345.987 26.408C345.986 26.408 345.986 26.408 345.986 26.408C345.986 26.408 345.985 26.408 345.985 26.408C345.985 26.408 345.985 26.408 345.985 26.4079C345.984 26.4079 345.984 26.4079 345.984 26.4079C345.984 26.4079 345.983 26.4079 345.983 26.4079C345.983 26.4079 345.983 26.4079 345.982 26.4079C345.982 26.4079 345.982 26.4079 345.982 26.4079C345.982 26.4079 345.981 26.4079 345.981 26.4079C345.981 26.4079 345.981 26.4079 345.98 26.4079C345.98 26.4079 345.98 26.4079 345.98 26.4079C345.979 26.4079 345.979 26.4079 345.979 26.4079C345.979 26.4079 345.979 26.4079 345.978 26.4079C345.978 26.4079 345.978 26.4079 345.978 26.4079C345.977 26.4079 345.977 26.4079 345.977 26.4079C345.977 26.4079 345.976 26.4079 345.976 26.4079C345.976 26.4079 345.976 26.4079 345.976 26.4079C345.975 26.4079 345.975 26.4079 345.975 26.4079C345.975 26.4079 345.974 26.4079 345.974 26.4079C345.974 26.4079 345.974 26.4079 345.973 26.4079C345.973 26.4079 345.973 26.4079 345.973 26.4079C345.973 26.4079 345.972 26.4079 345.972 26.4078C345.972 26.4078 345.972 26.4078 345.971 26.4078C345.971 26.4078 345.971 26.4078 345.971 26.4078C345.97 26.4078 345.97 26.4078 345.97 26.4078C345.97 26.4078 345.97 26.4078 345.969 26.4078C345.969 26.4078 345.969 26.4078 345.969 26.4078C345.968 26.4078 345.968 26.4078 345.968 26.4078C345.968 26.4078 345.967 26.4078 345.967 26.4078C345.967 26.4078 345.967 26.4078 345.967 26.4078C345.966 26.4078 345.966 26.4078 345.966 26.4078C345.966 26.4078 345.965 26.4078 345.965 26.4078C345.965 26.4078 345.965 26.4078 345.964 26.4078C345.964 26.4078 345.964 26.4078 345.964 26.4078C345.963 26.4078 345.963 26.4078 345.963 26.4078C345.963 26.4078 345.963 26.4078 345.962 26.4078C345.962 26.4078 345.962 26.4078 345.962 26.4078C345.961 26.4078 345.961 26.4078 345.961 26.4078C345.961 26.4078 345.96 26.4078 345.96 26.4078C345.96 26.4078 345.96 26.4077 345.959 26.4077C345.959 26.4077 345.959 26.4077 345.959 26.4077C345.959 26.4077 345.958 26.4077 345.958 26.4077C345.958 26.4077 345.958 26.4077 345.957 26.4077C345.957 26.4077 345.957 26.4077 345.957 26.4077C345.956 26.4077 345.956 26.4077 345.956 26.4077C345.956 26.4077 345.955 26.4077 345.955 26.4077C345.955 26.4077 345.955 26.4077 345.955 26.4077C345.954 26.4077 345.954 26.4077 345.954 26.4077C345.954 26.4077 345.953 26.4077 345.953 26.4077C345.953 26.4077 345.953 26.4077 345.952 26.4077C345.952 26.4077 345.952 26.4077 345.952 26.4077C345.951 26.4077 345.951 26.4077 345.951 26.4077C345.951 26.4077 345.95 26.4077 345.95 26.4077C345.95 26.4077 345.95 26.4077 345.95 26.4077C345.949 26.4077 345.949 26.4077 345.949 26.4077C345.949 26.4077 345.948 26.4077 345.948 26.4077C345.948 26.4077 345.948 26.4077 345.947 26.4076C345.947 26.4076 345.947 26.4076 345.947 26.4076C345.946 26.4076 345.946 26.4076 345.946 26.4076C345.946 26.4076 345.945 26.4076 345.945 26.4076C345.945 26.4076 345.945 26.4076 345.945 26.4076C345.944 26.4076 345.944 26.4076 345.944 26.4076C345.944 26.4076 345.943 26.4076 345.943 26.4076C345.943 26.4076 345.943 26.4076 345.942 26.4076C345.942 26.4076 345.942 26.4076 345.942 26.4076C345.941 26.4076 345.941 26.4076 345.941 26.4076C345.941 26.4076 345.94 26.4076 345.94 26.4076C345.94 26.4076 345.94 26.4076 345.939 26.4076C345.939 26.4076 345.939 26.4076 345.939 26.4076C345.939 26.4076 345.938 26.4076 345.938 26.4076C345.938 26.4076 345.938 26.4076 345.937 26.4076C345.937 26.4076 345.937 26.4076 345.937 26.4076C345.936 26.4076 345.936 26.4076 345.936 26.4076C345.936 26.4076 345.935 26.4076 345.935 26.4076C345.935 26.4075 345.935 26.4075 345.934 26.4075C345.934 26.4075 345.934 26.4075 345.934 26.4075C345.933 26.4075 345.933 26.4075 345.933 26.4075C345.933 26.4075 345.932 26.4075 345.932 26.4075C345.932 26.4075 345.932 26.4075 345.931 26.4075C345.931 26.4075 345.931 26.4075 345.931 26.4075C345.931 26.4075 345.93 26.4075 345.93 26.4075C345.93 26.4075 345.93 26.4075 345.929 26.4075C345.929 26.4075 345.929 26.4075 345.929 26.4075C345.928 26.4075 345.928 26.4075 345.928 26.4075C345.928 26.4075 345.927 26.4075 345.927 26.4075C345.927 26.4075 345.927 26.4075 345.926 26.4075C345.926 26.4075 345.926 26.4075 345.926 26.4075C345.925 26.4075 345.925 26.4075 345.925 26.4075C345.925 26.4075 345.924 26.4075 345.924 26.4075C345.924 26.4075 345.924 26.4075 345.923 26.4075C345.923 26.4075 345.923 26.4075 345.923 26.4075C345.922 26.4074 345.922 26.4074 345.922 26.4074C345.922 26.4074 345.921 26.4074 345.921 26.4074C345.921 26.4074 345.921 26.4074 345.92 26.4074C345.92 26.4074 345.92 26.4074 345.92 26.4074C345.919 26.4074 345.919 26.4074 345.919 26.4074C345.919 26.4074 345.918 26.4074 345.918 26.4074C345.918 26.4074 345.918 26.4074 345.918 26.4074C345.917 26.4074 345.917 26.4074 345.917 26.4074C345.917 26.4074 345.916 26.4074 345.916 26.4074C345.916 26.4074 345.916 26.4074 345.915 26.4074C345.915 26.4074 345.915 26.4074 345.915 26.4074C345.914 26.4074 345.914 26.4074 345.914 26.4074C345.914 26.4074 345.913 26.4074 345.913 26.4074C345.913 26.4074 345.913 26.4074 345.912 26.4074C345.912 26.4074 345.912 26.4074 345.912 26.4074C345.911 26.4074 345.911 26.4074 345.911 26.4074C345.911 26.4074 345.91 26.4074 345.91 26.4073C345.91 26.4073 345.91 26.4073 345.909 26.4073C345.909 26.4073 345.909 26.4073 345.909 26.4073C345.908 26.4073 345.908 26.4073 345.908 26.4073C345.908 26.4073 345.907 26.4073 345.907 26.4073C345.907 26.4073 345.907 26.4073 345.906 26.4073C345.906 26.4073 345.906 26.4073 345.906 26.4073C345.905 26.4073 345.905 26.4073 345.905 26.4073C345.905 26.4073 345.904 26.4073 345.904 26.4073C345.904 26.4073 345.904 26.4073 345.903 26.4073C345.903 26.4073 345.903 26.4073 345.903 26.4073C345.902 26.4073 345.902 26.4073 345.902 26.4073C345.902 26.4073 345.901 26.4073 345.901 26.4073C345.901 26.4073 345.901 26.4073 345.9 26.4073C345.9 26.4073 345.9 26.4073 345.9 26.4073C345.899 26.4073 345.899 26.4073 345.899 26.4073C345.899 26.4073 345.898 26.4073 345.898 26.4073C345.898 26.4072 345.898 26.4072 345.897 26.4072C345.897 26.4072 345.897 26.4072 345.897 26.4072C345.896 26.4072 345.896 26.4072 345.896 26.4072C345.895 26.4072 345.895 26.4072 345.895 26.4072C345.895 26.4072 345.894 26.4072 345.894 26.4072C345.894 26.4072 345.894 26.4072 345.893 26.4072C345.893 26.4072 345.893 26.4072 345.893 26.4072C345.892 26.4072 345.892 26.4072 345.892 26.4072C345.892 26.4072 345.891 26.4072 345.891 26.4072C345.891 26.4072 345.891 26.4072 345.89 26.4072C345.89 26.4072 345.89 26.4072 345.89 26.4072C345.889 26.4072 345.889 26.4072 345.889 26.4072C345.889 26.4072 345.888 26.4072 345.888 26.4072C345.888 26.4072 345.888 26.4072 345.887 26.4072C345.887 26.4072 345.887 26.4072 345.887 26.4072C345.886 26.4072 345.886 26.4072 345.886 26.4072C345.886 26.4072 345.885 26.4071 345.885 26.4071C345.885 26.4071 345.885 26.4071 345.884 26.4071C345.884 26.4071 345.884 26.4071 345.884 26.4071C345.883 26.4071 345.883 26.4071 345.883 26.4071C345.882 26.4071 345.882 26.4071 345.882 26.4071C345.882 26.4071 345.881 26.4071 345.881 26.4071C345.881 26.4071 345.881 26.4071 345.88 26.4071C345.88 26.4071 345.88 26.4071 345.88 26.4071C345.879 26.4071 345.879 26.4071 345.879 26.4071C345.879 26.4071 345.878 26.4071 345.878 26.4071C345.878 26.4071 345.878 26.4071 345.877 26.4071C345.877 26.4071 345.877 26.4071 345.877 26.4071C345.876 26.4071 345.876 26.4071 345.876 26.4071C345.876 26.4071 345.875 26.4071 345.875 26.4071C345.875 26.4071 345.875 26.4071 345.874 26.4071C345.874 26.4071 345.874 26.4071 345.873 26.4071C345.873 26.4071 345.873 26.407 345.873 26.407C345.872 26.407 345.872 26.407 345.872 26.407C345.872 26.407 345.871 26.407 345.871 26.407C345.871 26.407 345.871 26.407 345.87 26.407C345.87 26.407 345.87 26.407 345.87 26.407C345.869 26.407 345.869 26.407 345.869 26.407C345.869 26.407 345.868 26.407 345.868 26.407L345.852 28.4069ZM346.415 28.3816C346.427 28.3786 346.464 28.3719 346.532 28.3724L346.548 26.3725C346.35 26.3709 346.146 26.3889 345.945 26.4375L346.415 28.3816ZM346.532 28.3724C347.978 28.3841 348.942 28.779 349.577 29.4242L351.002 28.0214C349.891 26.8924 348.355 26.3871 346.548 26.3725L346.532 28.3724ZM349.577 29.4242C350.182 30.0391 350.59 31.1385 350.575 32.9653L352.575 32.9814C352.592 30.915 352.143 29.1807 351.002 28.0214L349.577 29.4242ZM350.575 32.9653L350.517 40.125L352.517 40.1412L352.575 32.9814L350.575 32.9653ZM350.517 40.125C350.511 40.9056 350.387 41.5474 350.173 42.0709L352.024 42.8287C352.354 42.0232 352.509 41.1205 352.517 40.1412L350.517 40.125ZM350.16 42.1035C349.955 42.661 349.679 43.1186 349.343 43.4913L350.827 44.832C351.351 44.2516 351.752 43.568 352.037 42.7961L350.16 42.1035ZM349.34 43.494C349.044 43.824 348.678 44.0801 348.225 44.2611L348.968 46.1182C349.692 45.8287 350.318 45.3995 350.829 44.8293L349.34 43.494ZM348.21 44.2674C347.779 44.4479 347.313 44.5393 346.802 44.5351L346.785 46.5351C347.554 46.5413 348.29 46.4024 348.983 46.112L348.21 44.2674ZM346.802 44.5351C346.074 44.5293 345.561 44.4064 345.211 44.2279L344.302 46.0094C345.015 46.3728 345.86 46.5276 346.785 46.5351L346.802 44.5351ZM345.211 44.2279C344.802 44.019 344.504 43.765 344.29 43.4748L342.68 44.6619C343.1 45.2301 343.649 45.6763 344.302 46.0094L345.211 44.2279ZM344.329 43.5319C344.105 43.1784 343.937 42.777 343.832 42.3195L341.883 42.767C342.035 43.4316 342.287 44.0469 342.641 44.6048L344.329 43.5319ZM343.841 42.364C343.75 41.8639 343.707 41.3661 343.711 40.8701L341.711 40.8539C341.706 41.4778 341.761 42.1009 341.874 42.7224L343.841 42.364ZM342.208 41.7262C342.747 42.0399 343.347 42.1872 343.98 42.1923L343.997 40.1923C343.67 40.1897 343.419 40.1167 343.214 39.9978L342.208 41.7262ZM343.98 42.1923C344.467 42.1962 344.991 42.1236 345.433 41.852L344.387 40.1475C344.399 40.1403 344.382 40.1536 344.314 40.1677C344.247 40.1819 344.144 40.1935 343.997 40.1923L343.98 42.1923ZM345.458 41.8363C345.815 41.6028 346.123 41.2953 346.325 40.8984L344.544 39.9895C344.53 40.0175 344.488 40.0806 344.362 40.1632L345.458 41.8363ZM346.305 40.9367C346.514 40.5679 346.634 40.166 346.676 39.7445L344.686 39.5474C344.67 39.7121 344.626 39.8422 344.564 39.9513L346.305 40.9367ZM346.663 39.8328C346.731 39.4768 346.765 39.1103 346.768 38.7347L344.769 38.7185C344.766 38.9829 344.742 39.2293 344.699 39.4591L346.663 39.8328ZM346.768 38.7347L346.86 27.4151L344.86 27.3989L344.769 38.7185L346.768 38.7347Z" fill="#D05757" fill-opacity="0.15"/>
</g>
<defs>
<clipPath id="clip0_6_75">
<rect width="364.407" height="317.744" fill="white" transform="translate(3) rotate(0.462871)"/>
</clipPath>
</defs>
</svg>
