<svg width="226" height="75" viewBox="0 0 226 75" fill="none" xmlns="http://www.w3.org/2000/svg">
<path d="M4.446 38.39C3.978 38.39 3.614 38.312 3.354 38.156C3.12 38 2.951 37.792 2.847 37.532C2.743 37.246 2.691 36.934 2.691 36.596V12.884C2.691 12.546 2.743 12.26 2.847 12.026C2.951 11.766 3.133 11.558 3.393 11.402C3.653 11.246 4.03 11.168 4.524 11.168C4.914 11.168 5.226 11.194 5.46 11.246C5.694 11.298 5.876 11.376 6.006 11.48C6.162 11.558 6.318 11.688 6.474 11.87L16.653 26.612H15.444L25.74 11.753C25.896 11.571 26.052 11.441 26.208 11.363C26.364 11.285 26.559 11.233 26.793 11.207C27.053 11.181 27.352 11.168 27.69 11.168C28.184 11.168 28.548 11.246 28.782 11.402C29.042 11.558 29.224 11.779 29.328 12.065C29.432 12.325 29.484 12.624 29.484 12.962V36.674C29.484 36.986 29.432 37.272 29.328 37.532C29.224 37.792 29.042 38 28.782 38.156C28.522 38.312 28.145 38.39 27.651 38.39C27.183 38.39 26.819 38.312 26.559 38.156C26.325 38 26.156 37.792 26.052 37.532C25.974 37.246 25.935 36.934 25.935 36.596V17.018L17.589 29.303C17.511 29.433 17.407 29.563 17.277 29.693C17.147 29.797 16.978 29.888 16.77 29.966C16.588 30.044 16.354 30.083 16.068 30.083C15.756 30.083 15.509 30.044 15.327 29.966C15.171 29.888 15.028 29.797 14.898 29.693C14.768 29.563 14.638 29.42 14.508 29.264L6.201 17.057V36.674C6.201 36.986 6.149 37.272 6.045 37.532C5.967 37.792 5.798 38 5.538 38.156C5.304 38.312 4.94 38.39 4.446 38.39ZM45.0906 34.808C44.7546 36.0773 44.12 36.9733 43.1866 37.496C42.272 38.0187 41.2546 38.28 40.1346 38.28C38.0626 38.28 36.5133 37.6547 35.4866 36.404C34.46 35.1347 33.9466 33.4453 33.9466 31.336V30.776C33.9466 28.6853 34.4413 27.0147 35.4306 25.764C36.42 24.4947 37.8573 23.86 39.7426 23.86C40.7506 23.86 41.6653 24.0653 42.4866 24.476C43.3266 24.8867 43.9893 25.4933 44.4746 26.296C44.9786 27.0987 45.2306 28.0973 45.2306 29.292C45.2306 29.852 45.1746 30.44 45.0626 31.056H36.4666V31.896C36.4666 33.856 36.7653 35.2653 37.3626 36.124C37.9786 36.964 38.968 37.384 40.3306 37.384C41.1893 37.384 41.8986 37.16 42.4586 36.712C43.0373 36.264 43.42 35.4893 43.6066 34.388L45.0906 34.808ZM39.7426 24.756C38.6413 24.756 37.82 25.176 37.2786 26.016C36.7373 26.856 36.4666 28.2373 36.4666 30.16H42.7666V30.076C42.804 29.8333 42.832 29.6 42.8506 29.376C42.8693 29.1333 42.8786 28.9187 42.8786 28.732C42.8786 27.332 42.5893 26.324 42.0106 25.708C41.432 25.0733 40.676 24.756 39.7426 24.756ZM62.3496 37.3V38H58.0376V35.788C57.4589 36.6467 56.8149 37.2813 56.1056 37.692C55.4149 38.084 54.6402 38.28 53.7816 38.28C52.1762 38.28 50.9256 37.6827 50.0296 36.488C49.1522 35.2747 48.7136 33.5667 48.7136 31.364V30.804C48.7136 28.6947 49.2269 27.0147 50.2536 25.764C51.2989 24.4947 52.7269 23.86 54.5376 23.86C55.8629 23.86 56.9829 24.2707 57.8976 25.092V19.548C57.8976 18.8947 57.8696 18.512 57.8136 18.4C57.7576 18.288 57.5802 18.2133 57.2816 18.176L55.7416 18.036V17.28H60.1936V35.732C60.1936 36.3853 60.2216 36.768 60.2776 36.88C60.3336 36.992 60.5109 37.0667 60.8096 37.104L62.3496 37.3ZM51.2336 32.204C51.2336 33.9587 51.4856 35.2467 51.9896 36.068C52.5122 36.8893 53.2309 37.3 54.1456 37.3C54.7429 37.3 55.3589 37.1133 55.9936 36.74C56.6282 36.3667 57.2629 35.6107 57.8976 34.472V26.464C57.0762 25.3627 56.0029 24.812 54.6776 24.812C53.4829 24.812 52.6056 25.2693 52.0456 26.184C51.5042 27.0987 51.2336 28.3587 51.2336 29.964V32.204ZM67.3917 21.004C66.9437 21.004 66.5704 20.864 66.2717 20.584C65.9917 20.2853 65.8517 19.9027 65.8517 19.436C65.8517 18.988 65.9917 18.624 66.2717 18.344C66.5704 18.064 66.9437 17.924 67.3917 17.924C67.8397 17.924 68.2037 18.064 68.4837 18.344C68.7824 18.624 68.9317 18.988 68.9317 19.436C68.9317 19.9027 68.7824 20.2853 68.4837 20.584C68.2037 20.864 67.8397 21.004 67.3917 21.004ZM64.1157 24.896V24.14H68.5677V35.732C68.5677 36.3853 68.5957 36.768 68.6517 36.88C68.7077 36.992 68.8851 37.0667 69.1837 37.104L70.7237 37.272V38H64.1157V37.272L65.6557 37.104C65.9544 37.0667 66.1317 36.992 66.1877 36.88C66.2437 36.768 66.2717 36.3853 66.2717 35.732V26.408C66.2717 25.7547 66.2437 25.372 66.1877 25.26C66.1317 25.148 65.9544 25.0733 65.6557 25.036L64.1157 24.896ZM79.0349 24.756C78.0083 24.756 77.2056 25.1853 76.6269 26.044C76.0669 26.884 75.7869 28.2747 75.7869 30.216V31.896C75.7869 33.856 76.0669 35.2653 76.6269 36.124C77.2056 36.964 78.1389 37.384 79.4269 37.384C80.3043 37.384 81.0136 37.16 81.5549 36.712C82.0963 36.264 82.4603 35.4893 82.6469 34.388L84.1309 34.808C83.7949 36.0773 83.1789 36.9733 82.2829 37.496C81.3869 38.0187 80.3883 38.28 79.2869 38.28C77.2709 38.28 75.7589 37.6547 74.7509 36.404C73.7616 35.1347 73.2669 33.4453 73.2669 31.336V30.776C73.2669 28.6853 73.7616 27.0147 74.7509 25.764C75.7403 24.4947 77.1683 23.86 79.0349 23.86C80.2296 23.86 81.2189 24.0933 82.0029 24.56C82.8056 25.0267 83.3749 25.6613 83.7109 26.464C84.0469 27.248 84.1403 28.116 83.9909 29.068L81.7789 29.404C81.9843 27.9107 81.8443 26.7627 81.3589 25.96C80.8923 25.1573 80.1176 24.756 79.0349 24.756ZM98.0736 38.196C96.6176 38.196 95.759 37.524 95.4976 36.18C94.8443 36.9267 94.1256 37.468 93.3416 37.804C92.5576 38.1213 91.783 38.28 91.0176 38.28C89.711 38.28 88.7496 37.916 88.1336 37.188C87.5176 36.46 87.2096 35.5827 87.2096 34.556C87.2096 33.4547 87.583 32.5867 88.3296 31.952C89.095 31.2987 90.411 30.972 92.2776 30.972H95.4416V28.704C95.4416 27.2107 95.1803 26.184 94.6576 25.624C94.1536 25.0453 93.463 24.756 92.5856 24.756C92.0256 24.756 91.5216 24.868 91.0736 25.092C90.6256 25.316 90.299 25.7267 90.0936 26.324C89.907 26.9027 89.8883 27.752 90.0376 28.872L87.8256 28.536C87.7323 27.6587 87.8443 26.8747 88.1616 26.184C88.4976 25.4747 89.039 24.9147 89.7856 24.504C90.551 24.0747 91.503 23.86 92.6416 23.86C94.0043 23.86 95.0496 24.0933 95.7776 24.56C96.5056 25.008 97.0096 25.596 97.2896 26.324C97.5883 27.052 97.7376 27.8453 97.7376 28.704V35.004C97.7376 35.956 97.8403 36.5533 98.0456 36.796C98.2696 37.0387 98.5123 37.16 98.7736 37.16C98.9416 37.16 99.119 37.1227 99.3056 37.048C99.4923 36.9547 99.6976 36.8147 99.9216 36.628L100.426 37.328C100.146 37.5707 99.8096 37.776 99.4176 37.944C99.0443 38.112 98.5963 38.196 98.0736 38.196ZM91.8016 37.104C92.3243 37.104 92.8843 36.964 93.4816 36.684C94.0976 36.3853 94.751 35.7973 95.4416 34.92V31.868H92.5856C91.5403 31.868 90.775 32.0827 90.2896 32.512C89.823 32.9227 89.5896 33.5667 89.5896 34.444C89.5896 35.284 89.767 35.9373 90.1216 36.404C90.495 36.8707 91.055 37.104 91.8016 37.104ZM101.463 18.036V17.28H105.915V35.732C105.915 36.3853 105.943 36.768 105.999 36.88C106.055 36.992 106.232 37.0667 106.531 37.104L108.071 37.272V38H101.463V37.272L103.003 37.104C103.301 37.0667 103.479 36.992 103.535 36.88C103.591 36.768 103.619 36.3853 103.619 35.732V19.548C103.619 18.8947 103.591 18.512 103.535 18.4C103.479 18.288 103.301 18.2133 103.003 18.176L101.463 18.036ZM116.57 19.716V18.96H124.522C126.37 18.96 127.779 19.4267 128.75 20.36C129.72 21.2747 130.206 22.4973 130.206 24.028V24.84C130.206 26.3707 129.72 27.6027 128.75 28.536C127.779 29.4693 126.37 29.936 124.522 29.936H121.162V35.732C121.162 36.3853 121.19 36.7773 121.246 36.908C121.302 37.02 121.479 37.0853 121.778 37.104L123.878 37.272V38H116.57V37.272L118.11 37.104C118.408 37.0667 118.586 36.992 118.642 36.88C118.698 36.768 118.726 36.3853 118.726 35.732V21.228C118.726 20.5747 118.698 20.192 118.642 20.08C118.586 19.968 118.408 19.8933 118.11 19.856L116.57 19.716ZM124.522 19.856H121.162V29.04H124.522C126.594 29.04 127.63 27.7707 127.63 25.232V23.636C127.63 21.116 126.594 19.856 124.522 19.856ZM132.284 24.896V24.14H136.596V26.38C137.249 25.5027 137.902 24.868 138.556 24.476C139.228 24.0653 139.909 23.86 140.6 23.86C141.197 23.86 141.757 24.0373 142.28 24.392C142.802 24.7467 143.241 25.316 143.596 26.1L141.776 27.192C141.496 26.52 141.178 26.0533 140.824 25.792C140.469 25.5307 140.077 25.4 139.648 25.4C139.181 25.4 138.714 25.5493 138.248 25.848C137.8 26.1467 137.296 26.7067 136.736 27.528V35.732C136.736 36.3853 136.764 36.7773 136.82 36.908C136.876 37.02 137.053 37.0853 137.352 37.104L139.452 37.272V38H132.284V37.272L133.824 37.104C134.122 37.0667 134.3 36.992 134.356 36.88C134.412 36.768 134.44 36.3853 134.44 35.732V26.408C134.44 25.7547 134.412 25.372 134.356 25.26C134.3 25.148 134.122 25.0733 133.824 25.036L132.284 24.896ZM157.304 30.776V31.336C157.304 33.4453 156.772 35.1347 155.708 36.404C154.663 37.6547 153.17 38.28 151.228 38.28C149.306 38.28 147.812 37.6547 146.748 36.404C145.703 35.1347 145.18 33.4453 145.18 31.336V30.776C145.18 28.6853 145.703 27.0147 146.748 25.764C147.794 24.4947 149.287 23.86 151.228 23.86C153.17 23.86 154.663 24.4947 155.708 25.764C156.772 27.0147 157.304 28.6853 157.304 30.776ZM154.784 30.216C154.784 28.2747 154.476 26.884 153.86 26.044C153.263 25.1853 152.386 24.756 151.228 24.756C150.09 24.756 149.212 25.1853 148.596 26.044C147.999 26.884 147.7 28.2747 147.7 30.216V31.896C147.7 33.856 147.999 35.2653 148.596 36.124C149.212 36.964 150.09 37.384 151.228 37.384C152.386 37.384 153.263 36.964 153.86 36.124C154.476 35.2653 154.784 33.856 154.784 31.896V30.216ZM163.09 21.004C162.642 21.004 162.269 20.864 161.97 20.584C161.69 20.2853 161.55 19.9027 161.55 19.436C161.55 18.988 161.69 18.624 161.97 18.344C162.269 18.064 162.642 17.924 163.09 17.924C163.538 17.924 163.902 18.064 164.182 18.344C164.481 18.624 164.63 18.988 164.63 19.436C164.63 19.9027 164.481 20.2853 164.182 20.584C163.902 20.864 163.538 21.004 163.09 21.004ZM159.814 24.896V24.14H164.266V39.456C164.266 40.296 164.126 41.08 163.846 41.808C163.585 42.536 163.146 43.124 162.53 43.572C161.914 44.02 161.102 44.244 160.094 44.244C159.18 44.244 158.396 43.992 157.742 43.488C157.089 43.0027 156.678 42.1627 156.51 40.968L158.022 40.548C158.097 41.6307 158.302 42.368 158.638 42.76C158.974 43.152 159.404 43.348 159.926 43.348C160.58 43.348 161.084 43.0867 161.438 42.564C161.793 42.06 161.97 41.0987 161.97 39.68V26.408C161.97 25.7547 161.942 25.372 161.886 25.26C161.83 25.148 161.653 25.0733 161.354 25.036L159.814 24.896ZM179.923 34.808C179.587 36.0773 178.952 36.9733 178.019 37.496C177.104 38.0187 176.087 38.28 174.967 38.28C172.895 38.28 171.345 37.6547 170.319 36.404C169.292 35.1347 168.779 33.4453 168.779 31.336V30.776C168.779 28.6853 169.273 27.0147 170.263 25.764C171.252 24.4947 172.689 23.86 174.575 23.86C175.583 23.86 176.497 24.0653 177.319 24.476C178.159 24.8867 178.821 25.4933 179.307 26.296C179.811 27.0987 180.063 28.0973 180.063 29.292C180.063 29.852 180.007 30.44 179.895 31.056H171.299V31.896C171.299 33.856 171.597 35.2653 172.195 36.124C172.811 36.964 173.8 37.384 175.163 37.384C176.021 37.384 176.731 37.16 177.291 36.712C177.869 36.264 178.252 35.4893 178.439 34.388L179.923 34.808ZM174.575 24.756C173.473 24.756 172.652 25.176 172.111 26.016C171.569 26.856 171.299 28.2373 171.299 30.16H177.599V30.076C177.636 29.8333 177.664 29.6 177.683 29.376C177.701 29.1333 177.711 28.9187 177.711 28.732C177.711 27.332 177.421 26.324 176.843 25.708C176.264 25.0733 175.508 24.756 174.575 24.756ZM189.258 24.756C188.231 24.756 187.428 25.1853 186.85 26.044C186.29 26.884 186.01 28.2747 186.01 30.216V31.896C186.01 33.856 186.29 35.2653 186.85 36.124C187.428 36.964 188.362 37.384 189.65 37.384C190.527 37.384 191.236 37.16 191.778 36.712C192.319 36.264 192.683 35.4893 192.87 34.388L194.354 34.808C194.018 36.0773 193.402 36.9733 192.506 37.496C191.61 38.0187 190.611 38.28 189.51 38.28C187.494 38.28 185.982 37.6547 184.974 36.404C183.984 35.1347 183.49 33.4453 183.49 31.336V30.776C183.49 28.6853 183.984 27.0147 184.974 25.764C185.963 24.4947 187.391 23.86 189.258 23.86C190.452 23.86 191.442 24.0933 192.226 24.56C193.028 25.0267 193.598 25.6613 193.934 26.464C194.27 27.248 194.363 28.116 194.214 29.068L192.002 29.404C192.207 27.9107 192.067 26.7627 191.582 25.96C191.115 25.1573 190.34 24.756 189.258 24.756ZM206 35.144C205.72 36.2267 205.282 37.02 204.684 37.524C204.087 38.028 203.322 38.28 202.388 38.28C201.492 38.28 200.764 38.084 200.204 37.692C199.644 37.2813 199.234 36.7493 198.972 36.096C198.711 35.4427 198.58 34.7613 198.58 34.052V26.408C198.58 25.7547 198.552 25.372 198.496 25.26C198.459 25.148 198.282 25.0733 197.964 25.036L196.424 24.896V24.14H198.58V20.472L200.876 19.996V24.14H205.44V25.036H200.876V34.276C200.876 35.452 201.035 36.264 201.352 36.712C201.688 37.16 202.127 37.384 202.668 37.384C203.21 37.384 203.62 37.1787 203.9 36.768C204.199 36.3573 204.414 35.6853 204.544 34.752L206 35.144ZM213.496 32.344L211.788 31.924C209.455 31.3267 208.288 29.9827 208.288 27.892C208.288 27.2013 208.447 26.548 208.764 25.932C209.082 25.316 209.586 24.8213 210.276 24.448C210.986 24.056 211.891 23.86 212.992 23.86C214.224 23.86 215.214 24.0653 215.96 24.476C216.707 24.8867 217.23 25.4187 217.528 26.072C217.827 26.7253 217.92 27.4347 217.808 28.2L215.624 28.592C215.848 27.3787 215.718 26.436 215.232 25.764C214.766 25.092 213.991 24.756 212.908 24.756C212.068 24.756 211.396 24.9707 210.892 25.4C210.388 25.8107 210.136 26.4173 210.136 27.22C210.136 27.8173 210.323 28.3493 210.696 28.816C211.07 29.264 211.695 29.6 212.572 29.824L214.336 30.244C215.568 30.5427 216.52 31.0187 217.192 31.672C217.883 32.3253 218.228 33.184 218.228 34.248C218.228 35.4427 217.79 36.4133 216.912 37.16C216.054 37.9067 214.822 38.28 213.216 38.28C212.451 38.28 211.704 38.168 210.976 37.944C210.267 37.7013 209.642 37.328 209.1 36.824C208.578 36.3013 208.195 35.6293 207.952 34.808L209.52 34.248C209.726 35.424 210.174 36.2453 210.864 36.712C211.555 37.1787 212.348 37.412 213.244 37.412C213.767 37.412 214.262 37.328 214.728 37.16C215.214 36.992 215.606 36.7307 215.904 36.376C216.203 36.0027 216.352 35.5267 216.352 34.948C216.352 34.3507 216.147 33.8373 215.736 33.408C215.326 32.9787 214.579 32.624 213.496 32.344ZM95.3768 53.716V52.96H100.725V53.716L99.1848 53.856C98.8861 53.8933 98.7088 53.9773 98.6528 54.108C98.5968 54.22 98.5688 54.5933 98.5688 55.228V72H97.1968L87.0048 54.808V69.732C87.0048 70.3667 87.0328 70.7493 87.0888 70.88C87.1448 70.992 87.3221 71.0667 87.6208 71.104L89.1608 71.272V72H83.8128V71.272L85.3528 71.104C85.6514 71.0667 85.8288 70.992 85.8848 70.88C85.9408 70.7493 85.9688 70.3667 85.9688 69.732V55.228C85.9688 54.5933 85.9408 54.22 85.8848 54.108C85.8288 53.9773 85.6514 53.8933 85.3528 53.856L83.8128 53.716V52.96H88.6568L97.5328 67.968V55.228C97.5328 54.5933 97.5048 54.22 97.4488 54.108C97.3928 53.9773 97.2154 53.8933 96.9168 53.856L95.3768 53.716ZM114.244 68.808C113.908 70.0773 113.273 70.9733 112.34 71.496C111.425 72.0187 110.408 72.28 109.288 72.28C107.216 72.28 105.667 71.6547 104.64 70.404C103.613 69.1347 103.1 67.4453 103.1 65.336V64.776C103.1 62.6853 103.595 61.0147 104.584 59.764C105.573 58.4947 107.011 57.86 108.896 57.86C109.904 57.86 110.819 58.0653 111.64 58.476C112.48 58.8867 113.143 59.4933 113.628 60.296C114.132 61.0987 114.384 62.0973 114.384 63.292C114.384 63.852 114.328 64.44 114.216 65.056H105.62V65.896C105.62 67.856 105.919 69.2653 106.516 70.124C107.132 70.964 108.121 71.384 109.484 71.384C110.343 71.384 111.052 71.16 111.612 70.712C112.191 70.264 112.573 69.4893 112.76 68.388L114.244 68.808ZM108.896 58.756C107.795 58.756 106.973 59.176 106.432 60.016C105.891 60.856 105.62 62.2373 105.62 64.16H111.92V64.076C111.957 63.8333 111.985 63.6 112.004 63.376C112.023 63.1333 112.032 62.9187 112.032 62.732C112.032 61.332 111.743 60.324 111.164 59.708C110.585 59.0733 109.829 58.756 108.896 58.756ZM126.267 69.144C125.987 70.2267 125.548 71.02 124.951 71.524C124.354 72.028 123.588 72.28 122.655 72.28C121.759 72.28 121.031 72.084 120.471 71.692C119.911 71.2813 119.5 70.7493 119.239 70.096C118.978 69.4427 118.847 68.7613 118.847 68.052V60.408C118.847 59.7547 118.819 59.372 118.763 59.26C118.726 59.148 118.548 59.0733 118.231 59.036L116.691 58.896V58.14H118.847V54.472L121.143 53.996V58.14H125.707V59.036H121.143V68.276C121.143 69.452 121.302 70.264 121.619 70.712C121.955 71.16 122.394 71.384 122.935 71.384C123.476 71.384 123.887 71.1787 124.167 70.768C124.466 70.3573 124.68 69.6853 124.811 68.752L126.267 69.144Z" fill="white"/>
<path d="M3.354 38.156L2.7993 38.9881L2.8191 39.0012L2.8395 39.0135L3.354 38.156ZM2.847 37.532L1.90721 37.8737L1.91263 37.8887L1.91852 37.9034L2.847 37.532ZM2.847 12.026L3.76081 12.4321L3.76847 12.4149L3.77548 12.3974L2.847 12.026ZM5.46 11.246L5.67693 10.2698L5.67693 10.2698L5.46 11.246ZM6.006 11.48L5.38131 12.2609L5.46403 12.3271L5.55879 12.3744L6.006 11.48ZM6.474 11.87L7.2969 11.3018L7.26723 11.2588L7.23326 11.2192L6.474 11.87ZM16.653 26.612V27.612H18.5587L17.4759 26.0438L16.653 26.612ZM15.444 26.612L14.622 26.0425L13.5345 27.612H15.444V26.612ZM25.74 11.753L24.9807 11.1022L24.9473 11.1412L24.918 11.1835L25.74 11.753ZM26.208 11.363L26.6552 12.2574L26.6552 12.2574L26.208 11.363ZM26.793 11.207L26.6935 10.2119L26.6826 10.2131L26.793 11.207ZM28.782 11.402L28.2273 12.234L28.2471 12.2472L28.2675 12.2595L28.782 11.402ZM29.328 12.065L28.3882 12.4067L28.3936 12.4217L28.3995 12.4364L29.328 12.065ZM29.328 37.532L30.2565 37.9034L30.2565 37.9034L29.328 37.532ZM28.782 38.156L28.2675 37.2985L28.782 38.156ZM26.559 38.156L26.0043 38.9881L26.0241 39.0012L26.0445 39.0135L26.559 38.156ZM26.052 37.532L25.0872 37.7951L25.1023 37.8503L25.1235 37.9034L26.052 37.532ZM25.935 17.018H26.935V13.7665L25.1078 16.456L25.935 17.018ZM17.589 29.303L16.7618 28.741L16.746 28.7643L16.7315 28.7885L17.589 29.303ZM17.277 29.693L17.9017 30.4739L17.9449 30.4393L17.9841 30.4001L17.277 29.693ZM16.77 29.966L16.4189 29.0297L16.3973 29.0378L16.3761 29.0469L16.77 29.966ZM15.327 29.966L14.8798 30.8604L14.9061 30.8736L14.9331 30.8851L15.327 29.966ZM14.898 29.693L14.1909 30.4001L14.2301 30.4393L14.2733 30.4739L14.898 29.693ZM14.508 29.264L13.6813 29.8266L13.7086 29.8668L13.7398 29.9042L14.508 29.264ZM6.201 17.057L7.02773 16.4944L5.201 13.8101V17.057H6.201ZM6.045 37.532L5.11652 37.1606L5.09998 37.202L5.08717 37.2447L6.045 37.532ZM5.538 38.156L5.0235 37.2985L5.0031 37.3107L4.9833 37.3239L5.538 38.156ZM4.446 37.39C4.06878 37.39 3.91047 37.3237 3.8685 37.2985L2.8395 39.0135C3.31753 39.3003 3.88722 39.39 4.446 39.39V37.39ZM3.9087 37.3239C3.84224 37.2796 3.804 37.2319 3.77548 37.1606L1.91852 37.9034C2.098 38.3521 2.39776 38.7204 2.7993 38.9881L3.9087 37.3239ZM3.78679 37.1903C3.72679 37.0252 3.691 36.8303 3.691 36.596H1.691C1.691 37.0377 1.75921 37.4668 1.90721 37.8737L3.78679 37.1903ZM3.691 36.596V12.884H1.691V36.596H3.691ZM3.691 12.884C3.691 12.6433 3.72872 12.5044 3.76081 12.4321L1.93319 11.6199C1.75728 12.0156 1.691 12.4487 1.691 12.884H3.691ZM3.77548 12.3974C3.79145 12.3574 3.81843 12.3129 3.90749 12.2595L2.87851 10.5445C2.44757 10.8031 2.11055 11.1745 1.91852 11.6546L3.77548 12.3974ZM3.90749 12.2595C3.94299 12.2382 4.10879 12.168 4.524 12.168V10.168C3.95121 10.168 3.36301 10.2538 2.87851 10.5445L3.90749 12.2595ZM4.524 12.168C4.88036 12.168 5.1105 12.1927 5.24307 12.2222L5.67693 10.2698C5.3415 10.1953 4.94764 10.168 4.524 10.168V12.168ZM5.24307 12.2222C5.31161 12.2374 5.3546 12.2526 5.37808 12.2626C5.40143 12.2726 5.39845 12.2746 5.38131 12.2609L6.6307 10.6991C6.34082 10.4672 5.9991 10.3414 5.67693 10.2698L5.24307 12.2222ZM5.55879 12.3744C5.55764 12.3739 5.57163 12.3807 5.59982 12.4042C5.62807 12.4278 5.66679 12.4648 5.71474 12.5208L7.23326 11.2192C7.02091 10.9715 6.76409 10.741 6.45321 10.5856L5.55879 12.3744ZM5.6511 12.4382L15.8301 27.1802L17.4759 26.0438L7.2969 11.3018L5.6511 12.4382ZM16.653 25.612H15.444V27.612H16.653V25.612ZM16.266 27.1815L26.562 12.3225L24.918 11.1835L14.622 26.0425L16.266 27.1815ZM26.4993 12.4038C26.5472 12.3478 26.5859 12.3108 26.6142 12.2872C26.6424 12.2637 26.6564 12.2569 26.6552 12.2574L25.7608 10.4686C25.4499 10.624 25.1931 10.8545 24.9807 11.1022L26.4993 12.4038ZM26.6552 12.2574C26.6759 12.2471 26.7483 12.2181 26.9034 12.2009L26.6826 10.2131C26.3697 10.2479 26.0521 10.3229 25.7608 10.4686L26.6552 12.2574ZM26.8925 12.202C27.1115 12.1801 27.3762 12.168 27.69 12.168V10.168C27.3278 10.168 26.9945 10.1819 26.6935 10.212L26.8925 12.202ZM27.69 12.168C27.8879 12.168 28.029 12.1839 28.124 12.2043C28.2205 12.225 28.2431 12.2446 28.2273 12.234L29.3367 10.5699C28.8556 10.2492 28.2503 10.168 27.69 10.168V12.168ZM28.2675 12.2595C28.33 12.297 28.3623 12.3355 28.3882 12.4067L30.2678 11.7233C30.0857 11.2225 29.754 10.819 29.2965 10.5445L28.2675 12.2595ZM28.3995 12.4364C28.4476 12.5566 28.484 12.7255 28.484 12.962H30.484C30.484 12.5225 30.4164 12.0934 30.2565 11.6936L28.3995 12.4364ZM28.484 12.962V36.674H30.484V12.962H28.484ZM28.484 36.674C28.484 36.8733 28.4512 37.0315 28.3995 37.1606L30.2565 37.9034C30.4128 37.5125 30.484 37.0987 30.484 36.674H28.484ZM28.3995 37.1606C28.3835 37.2005 28.3566 37.2451 28.2675 37.2985L29.2965 39.0135C29.7274 38.7549 30.0645 38.3835 30.2565 37.9034L28.3995 37.1606ZM28.2675 37.2985C28.232 37.3198 28.0662 37.39 27.651 37.39V39.39C28.2238 39.39 28.812 39.3042 29.2965 39.0135L28.2675 37.2985ZM27.651 37.39C27.2738 37.39 27.1155 37.3237 27.0735 37.2985L26.0445 39.0135C26.5225 39.3003 27.0922 39.39 27.651 39.39V37.39ZM27.1137 37.3239C27.0472 37.2796 27.009 37.2319 26.9805 37.1606L25.1235 37.9034C25.303 38.3521 25.6028 38.7204 26.0043 38.9881L27.1137 37.3239ZM27.0168 37.2689C26.9652 37.0796 26.935 36.8573 26.935 36.596H24.935C24.935 37.0107 24.9828 37.4124 25.0872 37.7951L27.0168 37.2689ZM26.935 36.596V17.018H24.935V36.596H26.935ZM25.1078 16.456L16.7618 28.741L18.4162 29.865L26.7622 17.5799L25.1078 16.456ZM16.7315 28.7885C16.7034 28.8354 16.6539 28.9019 16.5699 28.9859L17.9841 30.4001C18.1601 30.2241 18.3186 30.0306 18.4465 29.8175L16.7315 28.7885ZM16.6523 28.9121C16.627 28.9323 16.559 28.9771 16.4189 29.0297L17.1211 30.9023C17.397 30.7989 17.667 30.6617 17.9017 30.4739L16.6523 28.9121ZM16.3761 29.0469C16.361 29.0533 16.2739 29.083 16.068 29.083V31.083C16.4341 31.083 16.815 31.0347 17.1639 30.8851L16.3761 29.0469ZM16.068 29.083C15.952 29.083 15.8658 29.0756 15.8047 29.066C15.7427 29.0562 15.7189 29.046 15.7209 29.0469L14.9331 30.8851C15.2905 31.0383 15.6899 31.083 16.068 31.083V29.083ZM15.7742 29.0716C15.6782 29.0236 15.5951 28.9701 15.5227 28.9121L14.2733 30.4739C14.4609 30.6239 14.6638 30.7524 14.8798 30.8604L15.7742 29.0716ZM15.6051 28.9859C15.4986 28.8793 15.3888 28.759 15.2762 28.6238L13.7398 29.9042C13.8872 30.081 14.0374 30.2467 14.1909 30.4001L15.6051 28.9859ZM15.3347 28.7014L7.02773 16.4944L5.37427 17.6196L13.6813 29.8266L15.3347 28.7014ZM5.201 17.057V36.674H7.201V17.057H5.201ZM5.201 36.674C5.201 36.8733 5.16817 37.0315 5.11652 37.1606L6.97348 37.9034C7.12983 37.5125 7.201 37.0987 7.201 36.674H5.201ZM5.08717 37.2447C5.08644 37.2471 5.08587 37.2486 5.08555 37.2494C5.08524 37.2501 5.08506 37.2505 5.08505 37.2505C5.08504 37.2505 5.08503 37.2505 5.08493 37.2507C5.08483 37.2508 5.08445 37.2514 5.08364 37.2524C5.08145 37.2551 5.06673 37.2726 5.0235 37.2985L6.0525 39.0135C6.49918 38.7455 6.84469 38.3465 7.00283 37.8193L5.08717 37.2447ZM4.9833 37.3239C4.99905 37.3134 4.97646 37.333 4.87997 37.3537C4.78498 37.3741 4.64393 37.39 4.446 37.39V39.39C5.00625 39.39 5.61159 39.3088 6.0927 38.9881L4.9833 37.3239ZM45.0906 34.808L46.0573 35.0639L46.3089 34.1135L45.3629 33.8458L45.0906 34.808ZM43.1866 37.496L42.698 36.6235L42.6905 36.6278L43.1866 37.496ZM35.4866 36.404L34.7091 37.0329L34.7137 37.0385L35.4866 36.404ZM35.4306 25.764L36.2149 26.3844L36.2193 26.3787L35.4306 25.764ZM42.4866 24.476L42.0394 25.3705L42.0474 25.3744L42.4866 24.476ZM44.4746 26.296L43.6189 26.8134L43.6232 26.8206L43.6277 26.8278L44.4746 26.296ZM45.0626 31.056V32.056H45.8972L46.0465 31.2349L45.0626 31.056ZM36.4666 31.056V30.056H35.4666V31.056H36.4666ZM37.3626 36.124L36.5417 36.6951L36.5488 36.7053L36.5562 36.7154L37.3626 36.124ZM42.4586 36.712L41.8464 35.9213L41.8401 35.9262L41.8339 35.9311L42.4586 36.712ZM43.6066 34.388L43.8789 33.4258L42.8069 33.1224L42.6207 34.2209L43.6066 34.388ZM37.2786 26.016L36.438 25.4743L36.438 25.4743L37.2786 26.016ZM36.4666 30.16H35.4666V31.16H36.4666V30.16ZM42.7666 30.16V31.16H43.7666V30.16H42.7666ZM42.7666 30.076L41.7782 29.9239L41.7666 29.9995V30.076H42.7666ZM42.8506 29.376L43.8472 29.459L43.8477 29.4527L42.8506 29.376ZM42.0106 25.708L41.2717 26.3818L41.2767 26.3873L41.2818 26.3927L42.0106 25.708ZM44.1239 34.5521C43.8404 35.6232 43.3432 36.2622 42.698 36.6235L43.6752 38.3685C44.8967 37.6845 45.6689 36.5314 46.0573 35.0639L44.1239 34.5521ZM42.6905 36.6278C41.9365 37.0586 41.092 37.28 40.1346 37.28V39.28C41.4173 39.28 42.6074 38.9787 43.6828 38.3642L42.6905 36.6278ZM40.1346 37.28C38.2711 37.28 37.0453 36.7267 36.2595 35.7695L34.7137 37.0385C35.9813 38.5827 37.8542 39.28 40.1346 39.28V37.28ZM36.2641 35.7751C35.4189 34.7301 34.9466 33.2842 34.9466 31.336H32.9466C32.9466 33.6065 33.501 35.5392 34.7091 37.0329L36.2641 35.7751ZM34.9466 31.336V30.776H32.9466V31.336H34.9466ZM34.9466 30.776C34.9466 28.8401 35.4035 27.4102 36.2149 26.3844L34.6463 25.1436C33.4791 26.6191 32.9466 28.5306 32.9466 30.776H34.9466ZM36.2193 26.3787C36.9854 25.3959 38.1061 24.86 39.7426 24.86V22.86C37.6085 22.86 35.8545 23.5935 34.6419 25.1493L36.2193 26.3787ZM39.7426 24.86C40.6108 24.86 41.3701 25.0358 42.0394 25.3704L42.9338 23.5816C41.9605 23.0949 40.8904 22.86 39.7426 22.86V24.86ZM42.0474 25.3744C42.7143 25.7004 43.2326 26.1745 43.6189 26.8134L45.3303 25.7786C44.746 24.8121 43.939 24.0729 42.9258 23.5776L42.0474 25.3744ZM43.6277 26.8278C44.0086 27.4344 44.2306 28.2368 44.2306 29.292H46.2306C46.2306 27.9579 45.9486 26.7629 45.3215 25.7642L43.6277 26.8278ZM44.2306 29.292C44.2306 29.7855 44.1813 30.3133 44.0787 30.8771L46.0465 31.2349C46.168 30.5667 46.2306 29.9185 46.2306 29.292H44.2306ZM45.0626 30.056H36.4666V32.056H45.0626V30.056ZM35.4666 31.056V31.896H37.4666V31.056H35.4666ZM35.4666 31.896C35.4666 33.9074 35.7635 35.5764 36.5417 36.6951L38.1835 35.5529C37.767 34.9543 37.4666 33.8046 37.4666 31.896H35.4666ZM36.5562 36.7154C37.4163 37.8882 38.757 38.384 40.3306 38.384V36.384C39.1789 36.384 38.541 36.0398 38.169 35.5326L36.5562 36.7154ZM40.3306 38.384C41.3699 38.384 42.3128 38.1093 43.0833 37.4929L41.8339 35.9311C41.4844 36.2107 41.0087 36.384 40.3306 36.384V38.384ZM43.0708 37.5027C43.93 36.8375 44.3854 35.7776 44.5926 34.5551L42.6207 34.2209C42.4545 35.2011 42.1445 35.6905 41.8464 35.9213L43.0708 37.5027ZM43.3343 35.3502L44.8183 35.7702L45.3629 33.8458L43.8789 33.4258L43.3343 35.3502ZM39.7426 23.756C38.3426 23.756 37.1847 24.3157 36.438 25.4743L38.1192 26.5577C38.4552 26.0363 38.94 25.756 39.7426 25.756V23.756ZM36.438 25.4743C35.7339 26.5669 35.4666 28.1942 35.4666 30.16H37.4666C37.4666 28.2805 37.7407 27.1451 38.1192 26.5577L36.438 25.4743ZM36.4666 31.16H42.7666V29.16H36.4666V31.16ZM43.7666 30.16V30.076H41.7666V30.16H43.7666ZM43.755 30.2281C43.7955 29.9646 43.8264 29.7081 43.8472 29.459L41.8541 29.293C41.8375 29.4919 41.8124 29.7021 41.7782 29.9239L43.755 30.2281ZM43.8477 29.4527C43.8677 29.1917 43.8786 28.9506 43.8786 28.732H41.8786C41.8786 28.8868 41.8708 29.075 41.8536 29.2993L43.8477 29.4527ZM43.8786 28.732C43.8786 27.2345 43.5762 25.914 42.7395 25.0233L41.2818 26.3927C41.6024 26.734 41.8786 27.4295 41.8786 28.732H43.8786ZM42.7496 25.0342C41.9638 24.1724 40.9299 23.756 39.7426 23.756V25.756C40.422 25.756 40.9001 25.9743 41.2717 26.3818L42.7496 25.0342ZM62.3496 37.3H63.3496V36.4192L62.4758 36.308L62.3496 37.3ZM62.3496 38V39H63.3496V38H62.3496ZM58.0376 38H57.0376V39H58.0376V38ZM58.0376 35.788H59.0376V32.5148L57.2083 35.2291L58.0376 35.788ZM56.1056 37.692L56.5992 38.5617L56.6066 38.5574L56.1056 37.692ZM50.0296 36.488L49.2192 37.0739L49.2243 37.081L49.2296 37.088L50.0296 36.488ZM50.2536 25.764L49.4816 25.1283L49.4806 25.1295L50.2536 25.764ZM57.8976 25.092L57.2294 25.836L58.8976 27.334V25.092H57.8976ZM57.8136 18.4L58.708 17.9528L58.708 17.9528L57.8136 18.4ZM57.2816 18.176L57.4056 17.1837L57.3889 17.1816L57.3721 17.1801L57.2816 18.176ZM55.7416 18.036H54.7416V18.9492L55.651 19.0319L55.7416 18.036ZM55.7416 17.28V16.28H54.7416V17.28H55.7416ZM60.1936 17.28H61.1936V16.28H60.1936V17.28ZM60.2776 36.88L59.3831 37.3272L59.3831 37.3272L60.2776 36.88ZM60.8096 37.104L60.9358 36.112L60.9336 36.1117L60.8096 37.104ZM51.9896 36.068L51.1372 36.591L51.1415 36.598L51.1459 36.6049L51.9896 36.068ZM55.9936 36.74L56.5006 37.6019L56.5006 37.6019L55.9936 36.74ZM57.8976 34.472L58.771 34.9589L58.8976 34.7319V34.472H57.8976ZM57.8976 26.464H58.8976V26.1322L58.6992 25.8662L57.8976 26.464ZM52.0456 26.184L51.1927 25.6618L51.1888 25.6682L51.185 25.6747L52.0456 26.184ZM61.3496 37.3V38H63.3496V37.3H61.3496ZM62.3496 37H58.0376V39H62.3496V37ZM59.0376 38V35.788H57.0376V38H59.0376ZM57.2083 35.2291C56.6927 35.9942 56.1527 36.5092 55.6045 36.8266L56.6066 38.5574C57.4771 38.0535 58.2251 37.2991 58.8668 36.3469L57.2083 35.2291ZM55.6119 36.8223C55.0839 37.122 54.4817 37.28 53.7816 37.28V39.28C54.7988 39.28 55.7459 39.046 56.5992 38.5617L55.6119 36.8223ZM53.7816 37.28C52.4636 37.28 51.5208 36.8097 50.8296 35.888L49.2296 37.088C50.3303 38.5556 51.8889 39.28 53.7816 39.28V37.28ZM50.8399 35.9021C50.1316 34.9225 49.7136 33.4508 49.7136 31.364H47.7136C47.7136 33.6825 48.1728 35.6268 49.2192 37.0739L50.8399 35.9021ZM49.7136 31.364V30.804H47.7136V31.364H49.7136ZM49.7136 30.804C49.7136 28.855 50.1862 27.4221 51.0265 26.3985L49.4806 25.1295C48.2676 26.6072 47.7136 28.5344 47.7136 30.804H49.7136ZM51.0255 26.3997C51.8601 25.3863 52.9914 24.86 54.5376 24.86V22.86C52.4624 22.86 50.7377 23.6031 49.4816 25.1283L51.0255 26.3997ZM54.5376 24.86C55.6372 24.86 56.5133 25.193 57.2294 25.836L58.5657 24.348C57.4525 23.3483 56.0886 22.86 54.5376 22.86V24.86ZM58.8976 25.092V19.548H56.8976V25.092H58.8976ZM58.8976 19.548C58.8976 19.2113 58.8905 18.9246 58.8739 18.698C58.8656 18.5854 58.854 18.4722 58.8362 18.3673C58.8223 18.2852 58.791 18.1189 58.708 17.9528L56.9191 18.8472C56.8862 18.7813 56.8722 18.7314 56.8685 18.7178C56.8636 18.7001 56.8629 18.6932 56.8644 18.7022C56.8676 18.721 56.8735 18.7653 56.8792 18.844C56.8906 19 56.8976 19.2314 56.8976 19.548H58.8976ZM58.708 17.9528C58.5289 17.5946 58.2223 17.4207 58.0266 17.3384C57.8201 17.2514 57.6008 17.2081 57.4056 17.1837L57.1575 19.1683C57.261 19.1812 57.2797 19.1939 57.2505 19.1816C57.2322 19.1739 57.0422 19.0934 56.9191 18.8472L58.708 17.9528ZM57.3721 17.1801L55.8321 17.0401L55.651 19.0319L57.191 19.1719L57.3721 17.1801ZM56.7416 18.036V17.28H54.7416V18.036H56.7416ZM55.7416 18.28H60.1936V16.28H55.7416V18.28ZM59.1936 17.28V35.732H61.1936V17.28H59.1936ZM59.1936 35.732C59.1936 36.0687 59.2006 36.3554 59.2172 36.582C59.2255 36.6946 59.2371 36.8078 59.2549 36.9127C59.2689 36.9948 59.3001 37.1611 59.3831 37.3272L61.172 36.4328C61.2049 36.4987 61.2189 36.5486 61.2226 36.5622C61.2275 36.5799 61.2282 36.5868 61.2267 36.5778C61.2235 36.559 61.2176 36.5147 61.2119 36.436C61.2005 36.28 61.1936 36.0486 61.1936 35.732H59.1936ZM59.3831 37.3272C59.5622 37.6854 59.8688 37.8593 60.0645 37.9416C60.271 38.0286 60.4903 38.0719 60.6855 38.0963L60.9336 36.1117C60.8301 36.0988 60.8114 36.0861 60.8406 36.0984C60.8589 36.1061 61.0489 36.1866 61.172 36.4328L59.3831 37.3272ZM60.6833 38.096L62.2233 38.292L62.4758 36.308L60.9358 36.112L60.6833 38.096ZM50.2336 32.204C50.2336 34.0134 50.4859 35.5297 51.1372 36.591L52.8419 35.545C52.4852 34.9637 52.2336 33.904 52.2336 32.204H50.2336ZM51.1459 36.6049C51.8379 37.6924 52.8634 38.3 54.1456 38.3V36.3C53.5984 36.3 53.1865 36.0863 52.8332 35.5311L51.1459 36.6049ZM54.1456 38.3C54.9583 38.3 55.7478 38.0448 56.5006 37.6019L55.4865 35.8781C54.97 36.1819 54.5274 36.3 54.1456 36.3V38.3ZM56.5006 37.6019C57.3658 37.0929 58.1075 36.1494 58.771 34.9589L57.0241 33.9851C56.4183 35.072 55.8906 35.6404 55.4865 35.8781L56.5006 37.6019ZM58.8976 34.472V26.464H56.8976V34.472H58.8976ZM58.6992 25.8662C57.6972 24.5226 56.3319 23.812 54.6776 23.812V25.812C55.6738 25.812 56.4552 26.2027 57.0959 27.0618L58.6992 25.8662ZM54.6776 23.812C53.1822 23.812 51.9579 24.412 51.1927 25.6618L52.8984 26.7062C53.2532 26.1266 53.7836 25.812 54.6776 25.812V23.812ZM51.185 25.6747C50.5172 26.803 50.2336 28.2641 50.2336 29.964H52.2336C52.2336 28.4532 52.4912 27.3944 52.9061 26.6933L51.185 25.6747ZM50.2336 29.964V32.204H52.2336V29.964H50.2336ZM66.2717 20.584L65.5422 21.2679L65.5643 21.2915L65.5878 21.3135L66.2717 20.584ZM66.2717 18.344L65.5878 17.6145L65.576 17.6255L65.5646 17.6369L66.2717 18.344ZM68.4837 18.344L67.7766 19.0511L67.788 19.0625L67.7998 19.0735L68.4837 18.344ZM68.4837 20.584L67.7766 19.8769L67.7766 19.8769L68.4837 20.584ZM64.1157 24.896H63.1157V25.8092L64.0252 25.8919L64.1157 24.896ZM64.1157 24.14V23.14H63.1157V24.14H64.1157ZM68.5677 24.14H69.5677V23.14H68.5677V24.14ZM68.6517 36.88L69.5462 36.4328L69.5462 36.4328L68.6517 36.88ZM69.1837 37.104L69.0597 38.0963L69.0675 38.0973L69.0753 38.0981L69.1837 37.104ZM70.7237 37.272H71.7237V36.3752L70.8322 36.2779L70.7237 37.272ZM70.7237 38V39H71.7237V38H70.7237ZM64.1157 38H63.1157V39H64.1157V38ZM64.1157 37.272L64.0073 36.2779L63.1157 36.3752V37.272H64.1157ZM65.6557 37.104L65.7642 38.0981L65.772 38.0973L65.7798 38.0963L65.6557 37.104ZM66.1877 25.26L65.2933 25.7072L65.2933 25.7072L66.1877 25.26ZM65.6557 25.036L65.7798 24.0437L65.7631 24.0416L65.7463 24.0401L65.6557 25.036ZM67.3917 20.004C67.1717 20.004 67.0508 19.9436 66.9557 19.8545L65.5878 21.3135C66.09 21.7844 66.7158 22.004 67.3917 22.004V20.004ZM67.0013 19.9001C66.9196 19.8129 66.8517 19.6869 66.8517 19.436H64.8517C64.8517 20.1185 65.0639 20.7578 65.5422 21.2679L67.0013 19.9001ZM66.8517 19.436C66.8517 19.2152 66.9116 19.1183 66.9788 19.0511L65.5646 17.6369C65.0719 18.1297 64.8517 18.7608 64.8517 19.436H66.8517ZM66.9557 19.0735C67.0508 18.9844 67.1717 18.924 67.3917 18.924V16.924C66.7158 16.924 66.09 17.1436 65.5878 17.6145L66.9557 19.0735ZM67.3917 18.924C67.6125 18.924 67.7094 18.9839 67.7766 19.0511L69.1908 17.6369C68.6981 17.1441 68.067 16.924 67.3917 16.924V18.924ZM67.7998 19.0735C67.8766 19.1455 67.9317 19.2354 67.9317 19.436H69.9317C69.9317 18.7406 69.6882 18.1025 69.1677 17.6145L67.7998 19.0735ZM67.9317 19.436C67.9317 19.668 67.8672 19.7863 67.7766 19.8769L69.1908 21.2911C69.6976 20.7844 69.9317 20.1374 69.9317 19.436H67.9317ZM67.7766 19.8769C67.7094 19.9441 67.6125 20.004 67.3917 20.004V22.004C68.067 22.004 68.6981 21.7839 69.1908 21.2911L67.7766 19.8769ZM65.1157 24.896V24.14H63.1157V24.896H65.1157ZM64.1157 25.14H68.5677V23.14H64.1157V25.14ZM67.5677 24.14V35.732H69.5677V24.14H67.5677ZM67.5677 35.732C67.5677 36.0687 67.5748 36.3554 67.5914 36.582C67.5997 36.6946 67.6113 36.8078 67.6291 36.9127C67.643 36.9948 67.6743 37.1611 67.7573 37.3272L69.5462 36.4328C69.5791 36.4987 69.5931 36.5486 69.5968 36.5622C69.6017 36.5799 69.6024 36.5868 69.6009 36.5778C69.5977 36.559 69.5918 36.5147 69.5861 36.436C69.5747 36.28 69.5677 36.0486 69.5677 35.732H67.5677ZM67.7573 37.3272C67.9364 37.6854 68.243 37.8593 68.4387 37.9416C68.6452 38.0286 68.8645 38.0719 69.0597 38.0963L69.3078 36.1117C69.2043 36.0988 69.1856 36.0861 69.2148 36.0984C69.2331 36.1061 69.4231 36.1866 69.5462 36.4328L67.7573 37.3272ZM69.0753 38.0981L70.6153 38.2661L70.8322 36.2779L69.2922 36.1099L69.0753 38.0981ZM69.7237 37.272V38H71.7237V37.272H69.7237ZM70.7237 37H64.1157V39H70.7237V37ZM65.1157 38V37.272H63.1157V38H65.1157ZM64.2242 38.2661L65.7642 38.0981L65.5473 36.1099L64.0073 36.2779L64.2242 38.2661ZM65.7798 38.0963C65.975 38.0719 66.1943 38.0286 66.4008 37.9416C66.5965 37.8593 66.9031 37.6854 67.0822 37.3272L65.2933 36.4328C65.4164 36.1866 65.6064 36.1061 65.6247 36.0984C65.6539 36.0861 65.6352 36.0988 65.5317 36.1117L65.7798 38.0963ZM67.0822 37.3272C67.1652 37.1611 67.1964 36.9948 67.2104 36.9127C67.2282 36.8078 67.2398 36.6946 67.2481 36.582C67.2647 36.3554 67.2717 36.0687 67.2717 35.732H65.2717C65.2717 36.0486 65.2648 36.28 65.2534 36.436C65.2477 36.5147 65.2418 36.559 65.2386 36.5778C65.2371 36.5868 65.2378 36.5799 65.2427 36.5622C65.2464 36.5486 65.2604 36.4987 65.2933 36.4328L67.0822 37.3272ZM67.2717 35.732V26.408H65.2717V35.732H67.2717ZM67.2717 26.408C67.2717 26.0713 67.2647 25.7846 67.2481 25.558C67.2398 25.4454 67.2282 25.3322 67.2104 25.2273C67.1964 25.1452 67.1652 24.9789 67.0822 24.8128L65.2933 25.7072C65.2604 25.6413 65.2464 25.5914 65.2427 25.5778C65.2378 25.5601 65.2371 25.5532 65.2386 25.5622C65.2418 25.581 65.2477 25.6253 65.2534 25.704C65.2648 25.86 65.2717 26.0914 65.2717 26.408H67.2717ZM67.0822 24.8128C66.9031 24.4546 66.5965 24.2807 66.4008 24.1984C66.1943 24.1114 65.975 24.0681 65.7798 24.0437L65.5317 26.0283C65.6352 26.0412 65.6539 26.0539 65.6247 26.0416C65.6064 26.0339 65.4164 25.9534 65.2933 25.7072L67.0822 24.8128ZM65.7463 24.0401L64.2063 23.9001L64.0252 25.8919L65.5652 26.0319L65.7463 24.0401ZM76.6269 26.044L75.7977 25.4851L75.7949 25.4893L76.6269 26.044ZM76.6269 36.124L75.7893 36.6703L75.7962 36.6809L75.8034 36.6913L76.6269 36.124ZM81.5549 36.712L82.1925 37.4824L82.1925 37.4824L81.5549 36.712ZM82.6469 34.388L82.9193 33.4258L81.8472 33.1224L81.661 34.2209L82.6469 34.388ZM84.1309 34.808L85.0976 35.0639L85.3492 34.1135L84.4033 33.8458L84.1309 34.808ZM82.2829 37.496L82.7868 38.3598L82.2829 37.496ZM74.7509 36.404L73.9622 37.0187L73.9672 37.0252L73.9723 37.0315L74.7509 36.404ZM74.7509 25.764L75.5352 26.3844L75.5397 26.3787L74.7509 25.764ZM82.0029 24.56L81.4914 25.4193L81.5003 25.4245L82.0029 24.56ZM83.7109 26.464L82.7885 26.8502L82.7918 26.8579L83.7109 26.464ZM83.9909 29.068L84.1411 30.0567L84.8653 29.9467L84.9788 29.223L83.9909 29.068ZM81.7789 29.404L80.7883 29.2678L80.6059 30.5936L81.9291 30.3927L81.7789 29.404ZM81.3589 25.96L80.4944 26.4626L80.4987 26.4701L80.5032 26.4774L81.3589 25.96ZM79.0349 23.756C77.6723 23.756 76.5603 24.3535 75.7977 25.4851L77.4562 26.6029C77.8509 26.0171 78.3443 25.756 79.0349 25.756V23.756ZM75.7949 25.4893C75.0634 26.5865 74.7869 28.2307 74.7869 30.216H76.7869C76.7869 28.3186 77.0705 27.1815 77.459 26.5987L75.7949 25.4893ZM74.7869 30.216V31.896H76.7869V30.216H74.7869ZM74.7869 31.896C74.7869 33.9009 75.0639 35.558 75.7893 36.6703L77.4645 35.5777C77.0699 34.9727 76.7869 33.8111 76.7869 31.896H74.7869ZM75.8034 36.6913C76.6177 37.8734 77.907 38.384 79.4269 38.384V36.384C78.3709 36.384 77.7935 36.0546 77.4504 35.5567L75.8034 36.6913ZM79.4269 38.384C80.4775 38.384 81.4308 38.1128 82.1925 37.4824L80.9174 35.9416C80.5964 36.2072 80.131 36.384 79.4269 36.384V38.384ZM82.1925 37.4824C83.0004 36.8138 83.4285 35.7611 83.6329 34.5551L81.661 34.2209C81.4921 35.2176 81.1921 35.7142 80.9174 35.9416L82.1925 37.4824ZM82.3746 35.3502L83.8586 35.7702L84.4033 33.8458L82.9193 33.4258L82.3746 35.3502ZM83.1642 34.5521C82.877 35.6371 82.3896 36.2761 81.7791 36.6322L82.7868 38.3598C83.9683 37.6706 84.7128 36.5176 85.0976 35.0639L83.1642 34.5521ZM81.7791 36.6322C81.0455 37.0601 80.2226 37.28 79.2869 37.28V39.28C80.554 39.28 81.7284 38.9772 82.7868 38.3598L81.7791 36.6322ZM79.2869 37.28C77.4891 37.28 76.3004 36.7329 75.5295 35.7765L73.9723 37.0315C75.2174 38.5764 77.0528 39.28 79.2869 39.28V37.28ZM75.5397 35.7893C74.7246 34.7435 74.2669 33.2921 74.2669 31.336H72.2669C72.2669 33.5986 72.7986 35.5259 73.9622 37.0187L75.5397 35.7893ZM74.2669 31.336V30.776H72.2669V31.336H74.2669ZM74.2669 30.776C74.2669 28.8401 74.7238 27.4102 75.5352 26.3844L73.9666 25.1436C72.7994 26.6191 72.2669 28.5306 72.2669 30.776H74.2669ZM75.5397 26.3787C76.3078 25.3932 77.4209 24.86 79.0349 24.86V22.86C76.9156 22.86 75.1728 23.5961 73.9622 25.1493L75.5397 26.3787ZM79.0349 24.86C80.1039 24.86 80.903 25.069 81.4914 25.4193L82.5144 23.7007C81.5349 23.1176 80.3553 22.86 79.0349 22.86V24.86ZM81.5003 25.4245C82.1281 25.7895 82.5424 26.2623 82.7885 26.8501L84.6334 26.0779C84.2074 25.0604 83.4831 24.2638 82.5056 23.6955L81.5003 25.4245ZM82.7918 26.8579C83.0444 27.4474 83.1271 28.1221 83.003 28.913L84.9788 29.223C85.1534 28.1099 85.0494 27.0486 84.6301 26.0701L82.7918 26.8579ZM83.8408 28.0793L81.6288 28.4153L81.9291 30.3927L84.1411 30.0567L83.8408 28.0793ZM82.7696 29.5402C82.9885 27.9485 82.8716 26.5291 82.2147 25.4426L80.5032 26.4774C80.8169 26.9962 80.9801 27.8729 80.7883 29.2678L82.7696 29.5402ZM82.2234 25.4574C81.545 24.2904 80.4034 23.756 79.0349 23.756V25.756C79.8318 25.756 80.2395 26.0242 80.4944 26.4626L82.2234 25.4574ZM95.4976 36.18L96.4792 35.9891L96.0895 33.9849L94.745 35.5215L95.4976 36.18ZM93.3416 37.804L93.7168 38.7309L93.7262 38.7271L93.7355 38.7231L93.3416 37.804ZM88.1336 37.188L88.897 36.5421L88.897 36.5421L88.1336 37.188ZM88.3296 31.952L88.9773 32.7139L88.9789 32.7126L88.3296 31.952ZM95.4416 30.972V31.972H96.4416V30.972H95.4416ZM94.6576 25.624L93.9035 26.2808L93.9148 26.2937L93.9266 26.3063L94.6576 25.624ZM90.0936 26.324L89.1479 25.9989L89.1448 26.0079L89.1419 26.017L90.0936 26.324ZM90.0376 28.872L89.8874 29.8607L91.205 30.0608L91.0288 28.7398L90.0376 28.872ZM87.8256 28.536L86.8312 28.6418L86.9128 29.4088L87.6754 29.5247L87.8256 28.536ZM88.1616 26.184L87.2578 25.7559L87.2529 25.7665L88.1616 26.184ZM89.7856 24.504L90.2676 25.3802L90.2749 25.3761L89.7856 24.504ZM95.7776 24.56L95.238 25.4019L95.2457 25.4068L95.2535 25.4117L95.7776 24.56ZM97.2896 26.324L96.3563 26.683L96.3602 26.6933L96.3644 26.7036L97.2896 26.324ZM98.0456 36.796L97.2822 37.4419L97.2962 37.4584L97.3108 37.4743L98.0456 36.796ZM99.3056 37.048L99.677 37.9765L99.7156 37.961L99.7528 37.9424L99.3056 37.048ZM99.9216 36.628L100.733 36.0437L100.106 35.1726L99.2814 35.8598L99.9216 36.628ZM100.426 37.328L101.081 38.0837L101.771 37.4852L101.237 36.7437L100.426 37.328ZM99.4176 37.944L99.0237 37.0249L99.0154 37.0284L99.0073 37.0321L99.4176 37.944ZM93.4816 36.684L93.9061 37.5895L93.9179 37.5838L93.4816 36.684ZM95.4416 34.92L96.2274 35.5386L96.4416 35.2664V34.92H95.4416ZM95.4416 31.868H96.4416V30.868H95.4416V31.868ZM90.2896 32.512L90.9502 33.2627L90.9522 33.261L90.2896 32.512ZM90.1216 36.404L89.3255 37.0091L89.333 37.019L89.3407 37.0287L90.1216 36.404ZM98.0736 37.196C97.4943 37.196 97.1563 37.0629 96.9539 36.9045C96.7589 36.7519 96.5761 36.4872 96.4792 35.9891L94.516 36.3709C94.6805 37.2168 95.0576 37.9601 95.7213 38.4795C96.3776 38.9931 97.197 39.196 98.0736 39.196V37.196ZM94.745 35.5215C94.1742 36.1738 93.5734 36.6167 92.9477 36.8849L93.7355 38.7231C94.6778 38.3193 95.5143 37.6795 96.2502 36.8385L94.745 35.5215ZM92.9664 36.8771C92.2891 37.1512 91.6415 37.28 91.0176 37.28V39.28C91.9244 39.28 92.8262 39.0915 93.7168 38.7309L92.9664 36.8771ZM91.0176 37.28C89.8906 37.28 89.2598 36.9708 88.897 36.5421L87.3702 37.8339C88.2395 38.8612 89.5313 39.28 91.0176 39.28V37.28ZM88.897 36.5421C88.4459 36.009 88.2096 35.3657 88.2096 34.556H86.2096C86.2096 35.7997 86.5893 36.911 87.3702 37.8339L88.897 36.5421ZM88.2096 34.556C88.2096 33.7073 88.4834 33.1337 88.9773 32.7139L87.682 31.1901C86.6825 32.0396 86.2096 33.2021 86.2096 34.556H88.2096ZM88.9789 32.7126C89.4622 32.2999 90.4697 31.972 92.2776 31.972V29.972C90.3522 29.972 88.7277 30.2974 87.6804 31.1914L88.9789 32.7126ZM92.2776 31.972H95.4416V29.972H92.2776V31.972ZM96.4416 30.972V28.704H94.4416V30.972H96.4416ZM96.4416 28.704C96.4416 27.1667 96.1875 25.7976 95.3887 24.9417L93.9266 26.3063C94.173 26.5704 94.4416 27.2546 94.4416 28.704H96.4416ZM95.4117 24.9672C94.6895 24.138 93.7061 23.756 92.5856 23.756V25.756C93.2198 25.756 93.6177 25.9526 93.9035 26.2808L95.4117 24.9672ZM92.5856 23.756C91.8889 23.756 91.2289 23.8963 90.6264 24.1976L91.5208 25.9864C91.8143 25.8397 92.1623 25.756 92.5856 25.756V23.756ZM90.6264 24.1976C89.8869 24.5673 89.4151 25.2218 89.1479 25.9989L91.0393 26.6491C91.1828 26.2316 91.3644 26.0647 91.5208 25.9864L90.6264 24.1976ZM89.1419 26.017C88.8854 26.8122 88.8915 27.8422 89.0464 29.0042L91.0288 28.7398C90.8851 27.6618 90.9285 26.9932 91.0453 26.631L89.1419 26.017ZM90.1878 27.8833L87.9758 27.5473L87.6754 29.5247L89.8874 29.8607L90.1878 27.8833ZM88.82 28.4302C88.7426 27.7027 88.8395 27.1039 89.0703 26.6015L87.2529 25.7665C86.8491 26.6455 86.722 27.6147 86.8312 28.6418L88.82 28.4302ZM89.0654 26.6121C89.3035 26.1092 89.6884 25.6987 90.2675 25.3802L89.3037 23.6278C88.3895 24.1306 87.6917 24.8401 87.2579 25.7559L89.0654 26.6121ZM90.2749 25.3761C90.8527 25.052 91.6247 24.86 92.6416 24.86V22.86C91.3812 22.86 90.2492 23.0974 89.2964 23.6319L90.2749 25.3761ZM92.6416 24.86C93.9139 24.86 94.7389 25.082 95.238 25.4019L96.3173 23.7181C95.3603 23.1047 94.0946 22.86 92.6416 22.86V24.86ZM95.2535 25.4117C95.8137 25.7564 96.1626 26.1795 96.3563 26.683L98.223 25.965C97.8566 25.0125 97.1975 24.2596 96.3017 23.7083L95.2535 25.4117ZM96.3644 26.7036C96.6094 27.3005 96.7376 27.9636 96.7376 28.704H98.7376C98.7376 27.7271 98.5672 26.8035 98.2148 25.9444L96.3644 26.7036ZM96.7376 28.704V35.004H98.7376V28.704H96.7376ZM96.7376 35.004C96.7376 35.5086 96.7643 35.9586 96.8291 36.3354C96.8877 36.6766 97.0005 37.109 97.2822 37.4419L98.809 36.1501C98.8574 36.2073 98.863 36.2395 98.8497 36.2032C98.8379 36.1709 98.8189 36.1058 98.8002 35.9966C98.7623 35.7761 98.7376 35.4514 98.7376 35.004H96.7376ZM97.3108 37.4743C97.6709 37.8644 98.1634 38.16 98.7736 38.16V36.16C98.7865 36.16 98.8009 36.1616 98.8152 36.165C98.8293 36.1684 98.8388 36.1726 98.8428 36.1746C98.8503 36.1783 98.8277 36.1689 98.7804 36.1177L97.3108 37.4743ZM98.7736 38.16C99.0912 38.16 99.3949 38.0893 99.677 37.9765L98.9342 36.1195C98.843 36.156 98.792 36.16 98.7736 36.16V38.16ZM99.7528 37.9424C100.03 37.804 100.3 37.6144 100.562 37.3962L99.2814 35.8598C99.0952 36.015 98.9549 36.1053 98.8584 36.1536L99.7528 37.9424ZM99.1101 37.2123L99.6141 37.9123L101.237 36.7437L100.733 36.0437L99.1101 37.2123ZM99.7707 36.5723C99.5795 36.738 99.3348 36.8915 99.0237 37.0249L99.8115 38.8631C100.284 38.6605 100.712 38.4033 101.081 38.0837L99.7707 36.5723ZM99.0073 37.0321C98.7934 37.1283 98.4925 37.196 98.0736 37.196V39.196C98.7 39.196 99.2952 39.0957 99.828 38.8559L99.0073 37.0321ZM91.8016 38.104C92.5042 38.104 93.2097 37.9159 93.9061 37.5895L93.0572 35.7785C92.5589 36.0121 92.1444 36.104 91.8016 36.104V38.104ZM93.9179 37.5838C94.7299 37.1901 95.4952 36.4685 96.2274 35.5386L94.6559 34.3014C94.0067 35.1261 93.4653 35.5806 93.0453 35.7842L93.9179 37.5838ZM96.4416 34.92V31.868H94.4416V34.92H96.4416ZM95.4416 30.868H92.5856V32.868H95.4416V30.868ZM92.5856 30.868C91.4372 30.868 90.3787 31.0981 89.627 31.763L90.9522 33.261C91.1712 33.0672 91.6433 32.868 92.5856 32.868V30.868ZM89.629 31.7613C88.8693 32.4298 88.5896 33.4014 88.5896 34.444H90.5896C90.5896 33.732 90.7766 33.4155 90.9502 33.2627L89.629 31.7613ZM88.5896 34.444C88.5896 35.4108 88.7921 36.3073 89.3255 37.0091L90.9178 35.7989C90.7418 35.5673 90.5896 35.1572 90.5896 34.444H88.5896ZM89.3407 37.0287C89.9503 37.7906 90.8342 38.104 91.8016 38.104V36.104C91.2757 36.104 91.0396 35.9507 90.9025 35.7793L89.3407 37.0287ZM101.463 18.036H100.463V18.9492L101.372 19.0319L101.463 18.036ZM101.463 17.28V16.28H100.463V17.28H101.463ZM105.915 17.28H106.915V16.28H105.915V17.28ZM105.999 36.88L106.893 36.4328L106.893 36.4328L105.999 36.88ZM106.531 37.104L106.407 38.0963L106.414 38.0973L106.422 38.0981L106.531 37.104ZM108.071 37.272H109.071V36.3752L108.179 36.2779L108.071 37.272ZM108.071 38V39H109.071V38H108.071ZM101.463 38H100.463V39H101.463V38ZM101.463 37.272L101.354 36.2779L100.463 36.3752V37.272H101.463ZM103.003 37.104L103.111 38.0981L103.119 38.0973L103.127 38.0963L103.003 37.104ZM103.535 18.4L104.429 17.9528L104.429 17.9528L103.535 18.4ZM103.003 18.176L103.127 17.1837L103.11 17.1816L103.093 17.1801L103.003 18.176ZM102.463 18.036V17.28H100.463V18.036H102.463ZM101.463 18.28H105.915V16.28H101.463V18.28ZM104.915 17.28V35.732H106.915V17.28H104.915ZM104.915 35.732C104.915 36.0687 104.922 36.3554 104.938 36.582C104.947 36.6946 104.958 36.8078 104.976 36.9127C104.99 36.9948 105.021 37.1611 105.104 37.3272L106.893 36.4328C106.926 36.4987 106.94 36.5486 106.944 36.5622C106.949 36.5799 106.949 36.5868 106.948 36.5778C106.945 36.559 106.939 36.5147 106.933 36.436C106.922 36.28 106.915 36.0486 106.915 35.732H104.915ZM105.104 37.3272C105.283 37.6854 105.59 37.8593 105.786 37.9416C105.992 38.0286 106.212 38.0719 106.407 38.0963L106.655 36.1117C106.551 36.0988 106.533 36.0861 106.562 36.0984C106.58 36.1061 106.77 36.1866 106.893 36.4328L105.104 37.3272ZM106.422 38.0981L107.962 38.2661L108.179 36.2779L106.639 36.1099L106.422 38.0981ZM107.071 37.272V38H109.071V37.272H107.071ZM108.071 37H101.463V39H108.071V37ZM102.463 38V37.272H100.463V38H102.463ZM101.571 38.2661L103.111 38.0981L102.894 36.1099L101.354 36.2779L101.571 38.2661ZM103.127 38.0963C103.322 38.0719 103.541 38.0286 103.748 37.9416C103.943 37.8593 104.25 37.6854 104.429 37.3272L102.64 36.4328C102.763 36.1866 102.953 36.1061 102.972 36.0984C103.001 36.0861 102.982 36.0988 102.879 36.1117L103.127 38.0963ZM104.429 37.3272C104.512 37.1611 104.543 36.9948 104.557 36.9127C104.575 36.8078 104.587 36.6946 104.595 36.582C104.612 36.3554 104.619 36.0687 104.619 35.732H102.619C102.619 36.0486 102.612 36.28 102.6 36.436C102.595 36.5147 102.589 36.559 102.586 36.5778C102.584 36.5868 102.585 36.5799 102.59 36.5622C102.593 36.5486 102.607 36.4987 102.64 36.4328L104.429 37.3272ZM104.619 35.732V19.548H102.619V35.732H104.619ZM104.619 19.548C104.619 19.2113 104.612 18.9246 104.595 18.698C104.587 18.5854 104.575 18.4722 104.557 18.3673C104.543 18.2852 104.512 18.1189 104.429 17.9528L102.64 18.8472C102.607 18.7813 102.593 18.7314 102.59 18.7178C102.585 18.7001 102.584 18.6932 102.586 18.7022C102.589 18.721 102.595 18.7653 102.6 18.844C102.612 19 102.619 19.2314 102.619 19.548H104.619ZM104.429 17.9528C104.25 17.5945 103.943 17.4207 103.748 17.3384C103.541 17.2514 103.322 17.2081 103.127 17.1837L102.879 19.1683C102.982 19.1812 103.001 19.1939 102.972 19.1816C102.953 19.1739 102.763 19.0934 102.64 18.8472L104.429 17.9528ZM103.093 17.1801L101.553 17.0401L101.372 19.0319L102.912 19.1719L103.093 17.1801ZM116.57 19.716H115.57V20.6292L116.479 20.7119L116.57 19.716ZM116.57 18.96V17.96H115.57V18.96H116.57ZM128.75 20.36L128.056 21.0809L128.064 21.0878L128.75 20.36ZM128.75 28.536L128.056 27.8152L128.056 27.8152L128.75 28.536ZM121.162 29.936V28.936H120.162V29.936H121.162ZM121.246 36.908L120.326 37.3019L120.338 37.3289L120.351 37.3552L121.246 36.908ZM121.778 37.104L121.857 36.1072L121.849 36.1065L121.84 36.1059L121.778 37.104ZM123.878 37.272H124.878V36.3488L123.957 36.2752L123.878 37.272ZM123.878 38V39H124.878V38H123.878ZM116.57 38H115.57V39H116.57V38ZM116.57 37.272L116.461 36.2779L115.57 36.3752V37.272H116.57ZM118.11 37.104L118.218 38.0981L118.226 38.0973L118.234 38.0963L118.11 37.104ZM118.642 36.88L119.536 37.3272L119.536 37.3272L118.642 36.88ZM118.642 20.08L119.536 19.6328L119.536 19.6328L118.642 20.08ZM118.11 19.856L118.234 18.8637L118.217 18.8616L118.2 18.8601L118.11 19.856ZM121.162 19.856V18.856H120.162V19.856H121.162ZM121.162 29.04H120.162V30.04H121.162V29.04ZM117.57 19.716V18.96H115.57V19.716H117.57ZM116.57 19.96H124.522V17.96H116.57V19.96ZM124.522 19.96C126.209 19.96 127.332 20.3845 128.056 21.0808L129.443 19.6392C128.225 18.4688 126.53 17.96 124.522 17.96V19.96ZM128.064 21.0878C128.804 21.785 129.206 22.7283 129.206 24.028H131.206C131.206 22.2664 130.637 20.7644 129.435 19.6322L128.064 21.0878ZM129.206 24.028V24.84H131.206V24.028H129.206ZM129.206 24.84C129.206 26.1394 128.804 27.0968 128.056 27.8152L129.443 29.2568C130.637 28.1085 131.206 26.602 131.206 24.84H129.206ZM128.056 27.8152C127.332 28.5115 126.209 28.936 124.522 28.936V30.936C126.53 30.936 128.225 30.4272 129.443 29.2568L128.056 27.8152ZM124.522 28.936H121.162V30.936H124.522V28.936ZM120.162 29.936V35.732H122.162V29.936H120.162ZM120.162 35.732C120.162 36.0691 120.169 36.3572 120.185 36.5872C120.198 36.7635 120.222 37.0593 120.326 37.3019L122.165 36.5141C122.2 36.5957 122.203 36.6434 122.196 36.6023C122.192 36.5762 122.186 36.526 122.18 36.4448C122.168 36.2828 122.162 36.0482 122.162 35.732H120.162ZM120.351 37.3552C120.539 37.7311 120.866 37.9025 121.075 37.9793C121.292 38.0592 121.518 38.0898 121.715 38.1021L121.84 36.1059C121.738 36.0996 121.727 36.0881 121.766 36.1027C121.798 36.1142 122.008 36.1969 122.14 36.4608L120.351 37.3552ZM121.698 38.1008L123.798 38.2688L123.957 36.2752L121.857 36.1072L121.698 38.1008ZM122.878 37.272V38H124.878V37.272H122.878ZM123.878 37H116.57V39H123.878V37ZM117.57 38V37.272H115.57V38H117.57ZM116.678 38.2661L118.218 38.0981L118.001 36.1099L116.461 36.2779L116.678 38.2661ZM118.234 38.0963C118.429 38.0719 118.648 38.0286 118.855 37.9416C119.05 37.8593 119.357 37.6854 119.536 37.3272L117.747 36.4328C117.87 36.1866 118.06 36.1061 118.079 36.0984C118.108 36.0861 118.089 36.0988 117.986 36.1117L118.234 38.0963ZM119.536 37.3272C119.619 37.1611 119.65 36.9948 119.664 36.9127C119.682 36.8078 119.694 36.6946 119.702 36.582C119.719 36.3554 119.726 36.0687 119.726 35.732H117.726C117.726 36.0486 117.719 36.28 117.707 36.436C117.701 36.5147 117.696 36.559 117.692 36.5778C117.691 36.5868 117.692 36.5799 117.697 36.5622C117.7 36.5486 117.714 36.4987 117.747 36.4328L119.536 37.3272ZM119.726 35.732V21.228H117.726V35.732H119.726ZM119.726 21.228C119.726 20.8913 119.719 20.6046 119.702 20.378C119.694 20.2654 119.682 20.1522 119.664 20.0473C119.65 19.9652 119.619 19.7989 119.536 19.6328L117.747 20.5272C117.714 20.4613 117.7 20.4114 117.697 20.3978C117.692 20.3801 117.691 20.3732 117.692 20.3822C117.696 20.401 117.701 20.4453 117.707 20.524C117.719 20.68 117.726 20.9114 117.726 21.228H119.726ZM119.536 19.6328C119.357 19.2745 119.05 19.1007 118.855 19.0184C118.648 18.9314 118.429 18.8881 118.234 18.8637L117.986 20.8483C118.089 20.8612 118.108 20.8739 118.079 20.8616C118.06 20.8539 117.87 20.7734 117.747 20.5272L119.536 19.6328ZM118.2 18.8601L116.66 18.7201L116.479 20.7119L118.019 20.8519L118.2 18.8601ZM124.522 18.856H121.162V20.856H124.522V18.856ZM120.162 19.856V29.04H122.162V19.856H120.162ZM121.162 30.04H124.522V28.04H121.162V30.04ZM124.522 30.04C125.771 30.04 126.871 29.6473 127.627 28.7203C128.352 27.8322 128.63 26.6117 128.63 25.232H126.63C126.63 26.3909 126.389 27.0745 126.078 27.4557C125.798 27.7981 125.344 28.04 124.522 28.04V30.04ZM128.63 25.232V23.636H126.63V25.232H128.63ZM128.63 23.636C128.63 22.2642 128.352 21.0496 127.625 20.1659C126.868 19.2447 125.769 18.856 124.522 18.856V20.856C125.346 20.856 125.802 21.0973 126.08 21.4361C126.39 21.8124 126.63 22.4878 126.63 23.636H128.63ZM132.284 24.896H131.284V25.8092L132.193 25.8919L132.284 24.896ZM132.284 24.14V23.14H131.284V24.14H132.284ZM136.596 24.14H137.596V23.14H136.596V24.14ZM136.596 26.38H135.596V29.3972L137.398 26.9773L136.596 26.38ZM138.556 24.476L139.07 25.3335L139.077 25.3293L138.556 24.476ZM142.28 24.392L142.841 23.5645L142.841 23.5645L142.28 24.392ZM143.596 26.1L144.11 26.9575L144.874 26.4993L144.507 25.6878L143.596 26.1ZM141.776 27.192L140.853 27.5766L141.298 28.645L142.29 28.0495L141.776 27.192ZM140.824 25.792L140.231 26.5971L140.231 26.5971L140.824 25.792ZM138.248 25.848L137.709 25.0057L137.701 25.0108L137.693 25.0159L138.248 25.848ZM136.736 27.528L135.909 26.9647L135.736 27.2195V27.528H136.736ZM136.82 36.908L135.901 37.3019L135.912 37.3289L135.925 37.3552L136.82 36.908ZM137.352 37.104L137.431 36.1072L137.423 36.1065L137.414 36.1059L137.352 37.104ZM139.452 37.272H140.452V36.3488L139.531 36.2752L139.452 37.272ZM139.452 38V39H140.452V38H139.452ZM132.284 38H131.284V39H132.284V38ZM132.284 37.272L132.175 36.2779L131.284 36.3752V37.272H132.284ZM133.824 37.104L133.932 38.0981L133.94 38.0973L133.948 38.0963L133.824 37.104ZM134.356 25.26L133.461 25.7072L133.461 25.7072L134.356 25.26ZM133.824 25.036L133.948 24.0437L133.931 24.0416L133.914 24.0401L133.824 25.036ZM133.284 24.896V24.14H131.284V24.896H133.284ZM132.284 25.14H136.596V23.14H132.284V25.14ZM135.596 24.14V26.38H137.596V24.14H135.596ZM137.398 26.9773C138.004 26.1626 138.566 25.6358 139.07 25.3335L138.041 23.6185C137.238 24.1002 136.494 24.8427 135.794 25.7827L137.398 26.9773ZM139.077 25.3293C139.615 25.0008 140.118 24.86 140.6 24.86V22.86C139.7 22.86 138.841 23.1299 138.034 23.6227L139.077 25.3293ZM140.6 24.86C140.985 24.86 141.351 24.9704 141.718 25.2195L142.841 23.5645C142.163 23.1042 141.409 22.86 140.6 22.86V24.86ZM141.718 25.2195C142.043 25.4396 142.379 25.8375 142.685 26.5122L144.507 25.6878C144.103 24.7945 143.562 24.0538 142.841 23.5645L141.718 25.2195ZM143.081 25.2425L141.261 26.3345L142.29 28.0495L144.11 26.9575L143.081 25.2425ZM142.699 26.8074C142.39 26.0655 141.984 25.4049 141.417 24.9869L140.231 26.5971C140.373 26.7018 140.602 26.9745 140.853 27.5766L142.699 26.8074ZM141.417 24.9869C140.895 24.6025 140.296 24.4 139.648 24.4V26.4C139.858 26.4 140.043 26.4588 140.231 26.5971L141.417 24.9869ZM139.648 24.4C138.957 24.4 138.306 24.6236 137.709 25.0057L138.787 26.6903C139.123 26.475 139.405 26.4 139.648 26.4V24.4ZM137.693 25.0159C137.082 25.423 136.491 26.1116 135.909 26.9647L137.562 28.0913C138.1 27.3017 138.517 26.8704 138.802 26.68L137.693 25.0159ZM135.736 27.528V35.732H137.736V27.528H135.736ZM135.736 35.732C135.736 36.0691 135.743 36.3572 135.759 36.5872C135.772 36.7635 135.797 37.0593 135.901 37.3019L137.739 36.5141C137.774 36.5957 137.777 36.6434 137.77 36.6023C137.766 36.5762 137.76 36.526 137.754 36.4448C137.743 36.2828 137.736 36.0482 137.736 35.732H135.736ZM135.925 37.3552C136.113 37.7311 136.44 37.9025 136.649 37.9793C136.866 38.0592 137.093 38.0898 137.289 38.1021L137.414 36.1059C137.312 36.0996 137.301 36.0881 137.34 36.1027C137.372 36.1142 137.582 36.1969 137.714 36.4608L135.925 37.3552ZM137.272 38.1008L139.372 38.2688L139.531 36.2752L137.431 36.1072L137.272 38.1008ZM138.452 37.272V38H140.452V37.272H138.452ZM139.452 37H132.284V39H139.452V37ZM133.284 38V37.272H131.284V38H133.284ZM132.392 38.2661L133.932 38.0981L133.715 36.1099L132.175 36.2779L132.392 38.2661ZM133.948 38.0963C134.143 38.0719 134.362 38.0286 134.569 37.9416C134.764 37.8593 135.071 37.6854 135.25 37.3272L133.461 36.4328C133.584 36.1866 133.774 36.1061 133.793 36.0984C133.822 36.0861 133.803 36.0988 133.7 36.1117L133.948 38.0963ZM135.25 37.3272C135.333 37.1611 135.364 36.9948 135.378 36.9127C135.396 36.8078 135.408 36.6946 135.416 36.582C135.433 36.3554 135.44 36.0687 135.44 35.732H133.44C133.44 36.0486 133.433 36.28 133.421 36.436C133.416 36.5147 133.41 36.559 133.407 36.5778C133.405 36.5868 133.406 36.5799 133.411 36.5622C133.414 36.5486 133.428 36.4987 133.461 36.4328L135.25 37.3272ZM135.44 35.732V26.408H133.44V35.732H135.44ZM135.44 26.408C135.44 26.0713 135.433 25.7846 135.416 25.558C135.408 25.4454 135.396 25.3322 135.378 25.2273C135.364 25.1452 135.333 24.9789 135.25 24.8128L133.461 25.7072C133.428 25.6413 133.414 25.5914 133.411 25.5778C133.406 25.5601 133.405 25.5532 133.407 25.5622C133.41 25.581 133.416 25.6253 133.421 25.704C133.433 25.86 133.44 26.0914 133.44 26.408H135.44ZM135.25 24.8128C135.071 24.4546 134.764 24.2807 134.569 24.1984C134.362 24.1114 134.143 24.0681 133.948 24.0437L133.7 26.0283C133.803 26.0412 133.822 26.0539 133.793 26.0416C133.774 26.0339 133.584 25.9534 133.461 25.7072L135.25 24.8128ZM133.914 24.0401L132.374 23.9001L132.193 25.8919L133.733 26.0319L133.914 24.0401ZM155.708 36.404L154.942 35.7616L154.941 35.7627L155.708 36.404ZM146.748 36.404L145.976 37.0397L145.981 37.0459L145.987 37.052L146.748 36.404ZM146.748 25.764L147.516 26.4053L147.52 26.3997L146.748 25.764ZM155.708 25.764L154.936 26.3997L154.941 26.4059L154.947 26.412L155.708 25.764ZM153.86 26.044L153.039 26.6151L153.047 26.6253L153.054 26.6354L153.86 26.044ZM148.596 26.044L147.784 25.4611L147.781 25.4645L148.596 26.044ZM148.596 36.124L147.775 36.6951L147.783 36.7053L147.79 36.7154L148.596 36.124ZM153.86 36.124L153.048 35.5411L153.045 35.5445L153.86 36.124ZM156.304 30.776V31.336H158.304V30.776H156.304ZM156.304 31.336C156.304 33.2762 155.818 34.717 154.942 35.7616L156.475 37.0464C157.727 35.5524 158.304 33.6145 158.304 31.336H156.304ZM154.941 35.7627C154.122 36.7421 152.936 37.28 151.228 37.28V39.28C153.403 39.28 155.204 38.5673 156.476 37.0453L154.941 35.7627ZM151.228 37.28C149.543 37.28 148.351 36.7443 147.51 35.756L145.987 37.052C147.274 38.5651 149.068 39.28 151.228 39.28V37.28ZM147.52 35.7683C146.66 34.7235 146.18 33.2802 146.18 31.336H144.18C144.18 33.6105 144.746 35.5458 145.976 37.0397L147.52 35.7683ZM146.18 31.336V30.776H144.18V31.336H146.18ZM146.18 30.776C146.18 28.8522 146.659 27.4303 147.516 26.4053L145.981 25.1227C144.747 26.5991 144.18 28.5185 144.18 30.776H146.18ZM147.52 26.3997C148.341 25.4036 149.526 24.86 151.228 24.86V22.86C149.048 22.86 147.247 23.5857 145.976 25.1283L147.52 26.3997ZM151.228 24.86C152.931 24.86 154.116 25.4036 154.936 26.3997L156.48 25.1283C155.21 23.5857 153.409 22.86 151.228 22.86V24.86ZM154.947 26.412C155.819 27.4369 156.304 28.8563 156.304 30.776H158.304C158.304 28.5144 157.726 26.5925 156.47 25.116L154.947 26.412ZM155.784 30.216C155.784 28.2206 155.478 26.5586 154.667 25.4526L153.054 26.6354C153.475 27.2094 153.784 28.3288 153.784 30.216H155.784ZM154.681 25.4729C153.875 24.3138 152.672 23.756 151.228 23.756V25.756C152.099 25.756 152.651 26.0569 153.039 26.6151L154.681 25.4729ZM151.228 23.756C149.797 23.756 148.604 24.3177 147.784 25.4611L149.409 26.6269C149.821 26.0529 150.383 25.756 151.228 25.756V23.756ZM147.781 25.4645C146.997 26.5678 146.7 28.2241 146.7 30.216H148.7C148.7 28.3253 149.001 27.2002 149.411 26.6235L147.781 25.4645ZM146.7 30.216V31.896H148.7V30.216H146.7ZM146.7 31.896C146.7 33.9074 146.997 35.5764 147.775 36.6951L149.417 35.5529C149.001 34.9543 148.7 33.8046 148.7 31.896H146.7ZM147.79 36.7154C148.614 37.8388 149.806 38.384 151.228 38.384V36.384C150.374 36.384 149.811 36.0892 149.403 35.5326L147.79 36.7154ZM151.228 38.384C152.663 38.384 153.865 37.8427 154.675 36.7035L153.045 35.5445C152.661 36.0852 152.108 36.384 151.228 36.384V38.384ZM154.673 36.7069C155.477 35.5855 155.784 33.9108 155.784 31.896H153.784C153.784 33.8012 153.475 34.9451 153.048 35.5411L154.673 36.7069ZM155.784 31.896V30.216H153.784V31.896H155.784ZM161.97 20.584L161.241 21.2679L161.263 21.2915L161.286 21.3135L161.97 20.584ZM161.97 18.344L161.286 17.6145L161.275 17.6255L161.263 17.6369L161.97 18.344ZM164.182 18.344L163.475 19.0511L163.487 19.0625L163.498 19.0735L164.182 18.344ZM164.182 20.584L164.889 21.2911L164.889 21.2911L164.182 20.584ZM159.814 24.896H158.814V25.8092L159.724 25.8919L159.814 24.896ZM159.814 24.14V23.14H158.814V24.14H159.814ZM164.266 24.14H165.266V23.14H164.266V24.14ZM163.846 41.808L162.913 41.449L162.909 41.4595L162.905 41.4701L163.846 41.808ZM162.53 43.572L163.118 44.3807L163.118 44.3807L162.53 43.572ZM157.742 43.488L158.353 42.6962L158.346 42.6907L158.339 42.6853L157.742 43.488ZM156.51 40.968L156.243 40.0045L155.398 40.2391L155.52 41.1073L156.51 40.968ZM158.022 40.548L159.02 40.4792L158.936 39.2564L157.755 39.5845L158.022 40.548ZM158.638 42.76L159.398 42.1092L159.398 42.1092L158.638 42.76ZM161.438 42.564L160.62 41.9885L160.616 41.9955L160.611 42.0025L161.438 42.564ZM161.886 25.26L160.992 25.7072L160.992 25.7072L161.886 25.26ZM161.354 25.036L161.478 24.0437L161.462 24.0416L161.445 24.0401L161.354 25.036ZM163.09 20.004C162.87 20.004 162.749 19.9436 162.654 19.8545L161.286 21.3135C161.789 21.7844 162.414 22.004 163.09 22.004V20.004ZM162.7 19.9001C162.618 19.8129 162.55 19.6869 162.55 19.436H160.55C160.55 20.1185 160.762 20.7578 161.241 21.2679L162.7 19.9001ZM162.55 19.436C162.55 19.2152 162.61 19.1183 162.677 19.0511L161.263 17.6369C160.77 18.1297 160.55 18.7608 160.55 19.436H162.55ZM162.654 19.0735C162.749 18.9844 162.87 18.924 163.09 18.924V16.924C162.414 16.924 161.789 17.1436 161.286 17.6145L162.654 19.0735ZM163.09 18.924C163.311 18.924 163.408 18.9839 163.475 19.0511L164.889 17.6369C164.397 17.1441 163.766 16.924 163.09 16.924V18.924ZM163.498 19.0735C163.575 19.1455 163.63 19.2354 163.63 19.436H165.63C165.63 18.7406 165.387 18.1025 164.866 17.6145L163.498 19.0735ZM163.63 19.436C163.63 19.668 163.566 19.7863 163.475 19.8769L164.889 21.2911C165.396 20.7844 165.63 20.1374 165.63 19.436H163.63ZM163.475 19.8769C163.408 19.9441 163.311 20.004 163.09 20.004V22.004C163.766 22.004 164.397 21.7839 164.889 21.2911L163.475 19.8769ZM160.814 24.896V24.14H158.814V24.896H160.814ZM159.814 25.14H164.266V23.14H159.814V25.14ZM163.266 24.14V39.456H165.266V24.14H163.266ZM163.266 39.456C163.266 40.1828 163.146 40.8441 162.913 41.449L164.78 42.167C165.107 41.3159 165.266 40.4092 165.266 39.456H163.266ZM162.905 41.4701C162.71 42.0124 162.393 42.4352 161.942 42.7633L163.118 44.3807C163.899 43.8128 164.459 43.0596 164.787 42.1459L162.905 41.4701ZM161.942 42.7633C161.545 43.0523 160.959 43.244 160.094 43.244V45.244C161.246 45.244 162.284 44.9877 163.118 44.3807L161.942 42.7633ZM160.094 43.244C159.375 43.244 158.812 43.0505 158.353 42.6962L157.131 44.2798C157.979 44.9335 158.984 45.244 160.094 45.244V43.244ZM158.339 42.6853C157.985 42.4225 157.649 41.8856 157.501 40.8287L155.52 41.1073C155.707 42.4397 156.193 43.5828 157.146 44.2907L158.339 42.6853ZM156.778 41.9315L158.29 41.5115L157.755 39.5845L156.243 40.0045L156.778 41.9315ZM157.025 40.6168C157.101 41.7213 157.315 42.7529 157.879 43.4108L159.398 42.1092C159.289 41.9831 159.093 41.54 159.02 40.4792L157.025 40.6168ZM157.879 43.4108C158.408 44.0276 159.116 44.348 159.926 44.348V42.348C159.691 42.348 159.541 42.2764 159.398 42.1092L157.879 43.4108ZM159.926 44.348C160.897 44.348 161.717 43.9335 162.266 43.1255L160.611 42.0025C160.45 42.2398 160.262 42.348 159.926 42.348V44.348ZM162.256 43.1395C162.551 42.7206 162.72 42.1948 162.821 41.6464C162.924 41.0858 162.97 40.4256 162.97 39.68H160.97C160.97 40.3531 160.928 40.8829 160.854 41.2836C160.778 41.6965 160.68 41.9034 160.62 41.9885L162.256 43.1395ZM162.97 39.68V26.408H160.97V39.68H162.97ZM162.97 26.408C162.97 26.0713 162.963 25.7846 162.947 25.558C162.938 25.4454 162.927 25.3322 162.909 25.2273C162.895 25.1452 162.864 24.9789 162.781 24.8128L160.992 25.7072C160.959 25.6413 160.945 25.5914 160.941 25.5778C160.936 25.5601 160.936 25.5532 160.937 25.5622C160.94 25.581 160.946 25.6253 160.952 25.704C160.963 25.86 160.97 26.0914 160.97 26.408H162.97ZM162.781 24.8128C162.602 24.4546 162.295 24.2807 162.099 24.1984C161.893 24.1114 161.673 24.0681 161.478 24.0437L161.23 26.0283C161.334 26.0412 161.352 26.0539 161.323 26.0416C161.305 26.0339 161.115 25.9534 160.992 25.7072L162.781 24.8128ZM161.445 24.0401L159.905 23.9001L159.724 25.8919L161.264 26.0319L161.445 24.0401ZM179.923 34.808L180.889 35.0639L181.141 34.1135L180.195 33.8458L179.923 34.808ZM178.019 37.496L177.53 36.6235L177.523 36.6278L178.019 37.496ZM170.319 36.404L169.541 37.0329L169.546 37.0385L170.319 36.404ZM170.263 25.764L171.047 26.3844L171.051 26.3787L170.263 25.764ZM177.319 24.476L176.871 25.3705L176.879 25.3744L177.319 24.476ZM179.307 26.296L178.451 26.8134L178.455 26.8206L178.46 26.8278L179.307 26.296ZM179.895 31.056V32.056H180.729L180.879 31.2349L179.895 31.056ZM171.299 31.056V30.056H170.299V31.056H171.299ZM172.195 36.124L171.374 36.6951L171.381 36.7053L171.388 36.7154L172.195 36.124ZM177.291 36.712L176.678 35.9213L176.672 35.9262L176.666 35.9311L177.291 36.712ZM178.439 34.388L178.711 33.4258L177.639 33.1224L177.453 34.2209L178.439 34.388ZM172.111 26.016L171.27 25.4743L171.27 25.4743L172.111 26.016ZM171.299 30.16H170.299V31.16H171.299V30.16ZM177.599 30.16V31.16H178.599V30.16H177.599ZM177.599 30.076L176.61 29.9239L176.599 29.9995V30.076H177.599ZM177.683 29.376L178.679 29.459L178.68 29.4527L177.683 29.376ZM176.843 25.708L176.104 26.3818L176.109 26.3873L176.114 26.3927L176.843 25.708ZM178.956 34.5521C178.672 35.6232 178.175 36.2622 177.53 36.6235L178.507 38.3685C179.729 37.6845 180.501 36.5314 180.889 35.0639L178.956 34.5521ZM177.523 36.6278C176.769 37.0586 175.924 37.28 174.967 37.28V39.28C176.249 39.28 177.439 38.9787 178.515 38.3642L177.523 36.6278ZM174.967 37.28C173.103 37.28 171.877 36.7267 171.092 35.7695L169.546 37.0385C170.813 38.5827 172.686 39.28 174.967 39.28V37.28ZM171.096 35.7751C170.251 34.7301 169.779 33.2842 169.779 31.336H167.779C167.779 33.6065 168.333 35.5392 169.541 37.0329L171.096 35.7751ZM169.779 31.336V30.776H167.779V31.336H169.779ZM169.779 30.776C169.779 28.8401 170.235 27.4102 171.047 26.3844L169.478 25.1436C168.311 26.6191 167.779 28.5306 167.779 30.776H169.779ZM171.051 26.3787C171.817 25.3959 172.938 24.86 174.575 24.86V22.86C172.441 22.86 170.687 23.5935 169.474 25.1493L171.051 26.3787ZM174.575 24.86C175.443 24.86 176.202 25.0358 176.871 25.3704L177.766 23.5816C176.793 23.0949 175.722 22.86 174.575 22.86V24.86ZM176.879 25.3744C177.546 25.7004 178.065 26.1745 178.451 26.8134L180.162 25.7786C179.578 24.8121 178.771 24.0729 177.758 23.5776L176.879 25.3744ZM178.46 26.8278C178.841 27.4344 179.063 28.2368 179.063 29.292H181.063C181.063 27.9579 180.781 26.7629 180.154 25.7642L178.46 26.8278ZM179.063 29.292C179.063 29.7855 179.013 30.3133 178.911 30.8771L180.879 31.2349C181 30.5667 181.063 29.9185 181.063 29.292H179.063ZM179.895 30.056H171.299V32.056H179.895V30.056ZM170.299 31.056V31.896H172.299V31.056H170.299ZM170.299 31.896C170.299 33.9074 170.596 35.5764 171.374 36.6951L173.016 35.5529C172.599 34.9543 172.299 33.8046 172.299 31.896H170.299ZM171.388 36.7154C172.248 37.8882 173.589 38.384 175.163 38.384V36.384C174.011 36.384 173.373 36.0398 173.001 35.5326L171.388 36.7154ZM175.163 38.384C176.202 38.384 177.145 38.1093 177.915 37.4929L176.666 35.9311C176.316 36.2107 175.841 36.384 175.163 36.384V38.384ZM177.903 37.5027C178.762 36.8375 179.217 35.7776 179.425 34.5551L177.453 34.2209C177.287 35.2011 176.977 35.6905 176.678 35.9213L177.903 37.5027ZM178.166 35.3502L179.65 35.7702L180.195 33.8458L178.711 33.4258L178.166 35.3502ZM174.575 23.756C173.175 23.756 172.017 24.3157 171.27 25.4743L172.951 26.5577C173.287 26.0363 173.772 25.756 174.575 25.756V23.756ZM171.27 25.4743C170.566 26.5669 170.299 28.1942 170.299 30.16H172.299C172.299 28.2805 172.573 27.1451 172.951 26.5577L171.27 25.4743ZM171.299 31.16H177.599V29.16H171.299V31.16ZM178.599 30.16V30.076H176.599V30.16H178.599ZM178.587 30.2281C178.628 29.9646 178.658 29.7081 178.679 29.459L176.686 29.293C176.67 29.4919 176.644 29.7021 176.61 29.9239L178.587 30.2281ZM178.68 29.4527C178.7 29.1917 178.711 28.9506 178.711 28.732H176.711C176.711 28.8868 176.703 29.075 176.686 29.2993L178.68 29.4527ZM178.711 28.732C178.711 27.2345 178.408 25.914 177.571 25.0233L176.114 26.3927C176.434 26.734 176.711 27.4295 176.711 28.732H178.711ZM177.582 25.0342C176.796 24.1724 175.762 23.756 174.575 23.756V25.756C175.254 25.756 175.732 25.9743 176.104 26.3818L177.582 25.0342ZM186.85 26.044L186.02 25.4851L186.018 25.4893L186.85 26.044ZM186.85 36.124L186.012 36.6703L186.019 36.6809L186.026 36.6913L186.85 36.124ZM191.778 36.712L192.415 37.4824L192.415 37.4824L191.778 36.712ZM192.87 34.388L193.142 33.4258L192.07 33.1224L191.884 34.2209L192.87 34.388ZM194.354 34.808L195.32 35.0639L195.572 34.1135L194.626 33.8458L194.354 34.808ZM192.506 37.496L193.009 38.3598L192.506 37.496ZM184.974 36.404L184.185 37.0187L184.19 37.0252L184.195 37.0315L184.974 36.404ZM184.974 25.764L185.758 26.3844L185.762 26.3787L184.974 25.764ZM192.226 24.56L191.714 25.4193L191.723 25.4245L192.226 24.56ZM193.934 26.464L193.011 26.8502L193.014 26.8579L193.934 26.464ZM194.214 29.068L194.364 30.0567L195.088 29.9467L195.202 29.223L194.214 29.068ZM192.002 29.404L191.011 29.2678L190.829 30.5936L192.152 30.3927L192.002 29.404ZM191.582 25.96L190.717 26.4626L190.721 26.4701L190.726 26.4774L191.582 25.96ZM189.258 23.756C187.895 23.756 186.783 24.3535 186.02 25.4851L187.679 26.6029C188.074 26.0171 188.567 25.756 189.258 25.756V23.756ZM186.018 25.4893C185.286 26.5865 185.01 28.2307 185.01 30.216H187.01C187.01 28.3186 187.293 27.1815 187.682 26.5987L186.018 25.4893ZM185.01 30.216V31.896H187.01V30.216H185.01ZM185.01 31.896C185.01 33.9009 185.287 35.558 186.012 36.6703L187.687 35.5777C187.293 34.9727 187.01 33.8111 187.01 31.896H185.01ZM186.026 36.6913C186.84 37.8734 188.13 38.384 189.65 38.384V36.384C188.594 36.384 188.016 36.0546 187.673 35.5567L186.026 36.6913ZM189.65 38.384C190.7 38.384 191.653 38.1128 192.415 37.4824L191.14 35.9416C190.819 36.2072 190.354 36.384 189.65 36.384V38.384ZM192.415 37.4824C193.223 36.8138 193.651 35.7611 193.856 34.5551L191.884 34.2209C191.715 35.2176 191.415 35.7142 191.14 35.9416L192.415 37.4824ZM192.597 35.3502L194.081 35.7702L194.626 33.8458L193.142 33.4258L192.597 35.3502ZM193.387 34.5521C193.1 35.6371 192.612 36.2761 192.002 36.6322L193.009 38.3598C194.191 37.6706 194.935 36.5176 195.32 35.0639L193.387 34.5521ZM192.002 36.6322C191.268 37.0601 190.445 37.28 189.51 37.28V39.28C190.777 39.28 191.951 38.9772 193.009 38.3598L192.002 36.6322ZM189.51 37.28C187.712 37.28 186.523 36.7329 185.752 35.7765L184.195 37.0315C185.44 38.5764 187.275 39.28 189.51 39.28V37.28ZM185.762 35.7893C184.947 34.7435 184.49 33.2921 184.49 31.336H182.49C182.49 33.5986 183.021 35.5259 184.185 37.0187L185.762 35.7893ZM184.49 31.336V30.776H182.49V31.336H184.49ZM184.49 30.776C184.49 28.8401 184.946 27.4102 185.758 26.3844L184.189 25.1436C183.022 26.6191 182.49 28.5306 182.49 30.776H184.49ZM185.762 26.3787C186.53 25.3932 187.644 24.86 189.258 24.86V22.86C187.138 22.86 185.395 23.5961 184.185 25.1493L185.762 26.3787ZM189.258 24.86C190.327 24.86 191.126 25.069 191.714 25.4193L192.737 23.7007C191.758 23.1176 190.578 22.86 189.258 22.86V24.86ZM191.723 25.4245C192.351 25.7895 192.765 26.2623 193.011 26.8501L194.856 26.0779C194.43 25.0604 193.706 24.2638 192.728 23.6955L191.723 25.4245ZM193.014 26.8579C193.267 27.4474 193.35 28.1221 193.226 28.913L195.202 29.223C195.376 28.1099 195.272 27.0486 194.853 26.0701L193.014 26.8579ZM194.063 28.0793L191.851 28.4153L192.152 30.3927L194.364 30.0567L194.063 28.0793ZM192.992 29.5402C193.211 27.9485 193.094 26.5291 192.437 25.4426L190.726 26.4774C191.04 26.9962 191.203 27.8729 191.011 29.2678L192.992 29.5402ZM192.446 25.4574C191.768 24.2904 190.626 23.756 189.258 23.756V25.756C190.054 25.756 190.462 26.0242 190.717 26.4626L192.446 25.4574ZM206 35.144L206.968 35.3944L207.216 34.4358L206.26 34.1784L206 35.144ZM204.684 37.524L205.329 38.2883L204.684 37.524ZM200.204 37.692L199.613 38.4984L199.622 38.5049L199.631 38.5112L200.204 37.692ZM198.972 36.096L199.901 35.7246L199.901 35.7246L198.972 36.096ZM198.496 25.26L197.548 25.5762L197.57 25.6436L197.602 25.7072L198.496 25.26ZM197.964 25.036L198.081 24.0428L198.068 24.0413L198.055 24.0401L197.964 25.036ZM196.424 24.896H195.424V25.8092L196.334 25.8919L196.424 24.896ZM196.424 24.14V23.14H195.424V24.14H196.424ZM198.58 24.14V25.14H199.58V24.14H198.58ZM198.58 20.472L198.377 19.4928L197.58 19.6581V20.472H198.58ZM200.876 19.996H201.876V18.7674L200.673 19.0168L200.876 19.996ZM200.876 24.14H199.876V25.14H200.876V24.14ZM205.44 24.14H206.44V23.14H205.44V24.14ZM205.44 25.036V26.036H206.44V25.036H205.44ZM200.876 25.036V24.036H199.876V25.036H200.876ZM201.352 36.712L200.536 37.29L200.544 37.3011L200.552 37.312L201.352 36.712ZM203.9 36.768L203.092 36.1798L203.083 36.1921L203.074 36.2047L203.9 36.768ZM204.544 34.752L204.804 33.7864L203.711 33.492L203.554 34.6134L204.544 34.752ZM205.032 34.8936C204.783 35.8588 204.423 36.4357 204.039 36.7597L205.329 38.2883C206.14 37.6043 206.658 36.5946 206.968 35.3944L205.032 34.8936ZM204.039 36.7597C203.656 37.0832 203.134 37.28 202.388 37.28V39.28C203.51 39.28 204.518 38.9728 205.329 38.2883L204.039 36.7597ZM202.388 37.28C201.634 37.28 201.124 37.1154 200.778 36.8728L199.631 38.5112C200.404 39.0526 201.35 39.28 202.388 39.28V37.28ZM200.796 36.8856C200.389 36.5871 200.094 36.2067 199.901 35.7246L198.044 36.4674C198.374 37.292 198.9 37.9756 199.613 38.4984L200.796 36.8856ZM199.901 35.7246C199.687 35.1904 199.58 34.6352 199.58 34.052H197.58C197.58 34.8875 197.735 35.695 198.044 36.4674L199.901 35.7246ZM199.58 34.052V26.408H197.58V34.052H199.58ZM199.58 26.408C199.58 26.0713 199.573 25.7846 199.557 25.558C199.548 25.4454 199.537 25.3322 199.519 25.2273C199.505 25.1452 199.474 24.9789 199.391 24.8128L197.602 25.7072C197.569 25.6413 197.555 25.5914 197.551 25.5778C197.546 25.5601 197.546 25.5532 197.547 25.5622C197.55 25.581 197.556 25.6253 197.562 25.704C197.573 25.86 197.58 26.0914 197.58 26.408H199.58ZM199.445 24.9438C199.291 24.4828 198.914 24.2788 198.723 24.1984C198.51 24.1085 198.28 24.0663 198.081 24.0428L197.847 26.0291C197.966 26.0431 197.983 26.0569 197.947 26.0416C197.926 26.0327 197.862 26.0035 197.786 25.9376C197.705 25.8677 197.605 25.7496 197.548 25.5762L199.445 24.9438ZM198.055 24.0401L196.515 23.9001L196.334 25.8919L197.874 26.0319L198.055 24.0401ZM197.424 24.896V24.14H195.424V24.896H197.424ZM196.424 25.14H198.58V23.14H196.424V25.14ZM199.58 24.14V20.472H197.58V24.14H199.58ZM198.783 21.4512L201.079 20.9752L200.673 19.0168L198.377 19.4928L198.783 21.4512ZM199.876 19.996V24.14H201.876V19.996H199.876ZM200.876 25.14H205.44V23.14H200.876V25.14ZM204.44 24.14V25.036H206.44V24.14H204.44ZM205.44 24.036H200.876V26.036H205.44V24.036ZM199.876 25.036V34.276H201.876V25.036H199.876ZM199.876 34.276C199.876 35.4691 200.023 36.5656 200.536 37.29L202.168 36.134C202.047 35.9624 201.876 35.4349 201.876 34.276H199.876ZM200.552 37.312C201.069 38.0016 201.8 38.384 202.668 38.384V36.384C202.454 36.384 202.307 36.3184 202.152 36.112L200.552 37.312ZM202.668 38.384C203.506 38.384 204.241 38.0427 204.727 37.3313L203.074 36.2047C202.999 36.3146 202.914 36.384 202.668 36.384V38.384ZM204.709 37.3562C205.156 36.7422 205.398 35.8696 205.535 34.8906L203.554 34.6134C203.43 35.5011 203.242 35.9724 203.092 36.1798L204.709 37.3562ZM204.284 35.7176L205.74 36.1096L206.26 34.1784L204.804 33.7864L204.284 35.7176ZM213.496 32.344L213.747 31.3758L213.735 31.3729L213.496 32.344ZM211.788 31.924L211.54 32.8928L211.55 32.8951L211.788 31.924ZM208.764 25.932L209.653 26.39L209.653 26.39L208.764 25.932ZM210.276 24.448L210.752 25.3277L210.76 25.3232L210.276 24.448ZM215.96 24.476L216.442 23.5998L216.442 23.5998L215.96 24.476ZM217.808 28.2L217.985 29.1843L218.694 29.0571L218.798 28.3448L217.808 28.2ZM215.624 28.592L214.641 28.4105L214.379 29.8316L215.801 29.5763L215.624 28.592ZM215.232 25.764L214.411 26.3344L214.416 26.342L214.422 26.3495L215.232 25.764ZM210.892 25.4L211.524 26.1752L211.533 26.1683L211.541 26.1612L210.892 25.4ZM210.696 28.816L209.916 29.4407L209.922 29.4485L209.928 29.4562L210.696 28.816ZM212.572 29.824L212.325 30.7929L212.333 30.7949L212.341 30.7968L212.572 29.824ZM214.336 30.244L214.572 29.2721L214.568 29.2712L214.336 30.244ZM217.192 31.672L216.495 32.3891L216.505 32.3985L217.192 31.672ZM216.912 37.16L216.264 36.3984L216.256 36.4054L216.912 37.16ZM210.976 37.944L210.653 38.8902L210.667 38.8952L210.682 38.8998L210.976 37.944ZM209.1 36.824L208.393 37.5311L208.406 37.5437L208.419 37.5559L209.1 36.824ZM207.952 34.808L207.616 33.8663L206.725 34.1843L206.993 35.0913L207.952 34.808ZM209.52 34.248L210.505 34.076L210.301 32.9072L209.184 33.3063L209.52 34.248ZM210.864 36.712L211.424 35.8834L211.424 35.8834L210.864 36.712ZM214.728 37.16L214.401 36.2149L214.39 36.2191L214.728 37.16ZM215.904 36.376L216.669 37.0201L216.677 37.0105L216.685 37.0007L215.904 36.376ZM215.736 33.408L215.014 34.0992L215.014 34.0992L215.736 33.408ZM213.735 31.3729L212.027 30.9529L211.55 32.8951L213.258 33.3151L213.735 31.3729ZM212.036 30.9552C210.999 30.6896 210.329 30.2852 209.919 29.8125C209.52 29.3533 209.288 28.7409 209.288 27.892H207.288C207.288 29.1338 207.64 30.2387 208.408 31.1235C209.165 31.9948 210.245 32.5611 211.54 32.8928L212.036 30.9552ZM209.288 27.892C209.288 27.3612 209.409 26.8648 209.653 26.39L207.875 25.474C207.485 26.2312 207.288 27.0415 207.288 27.892H209.288ZM209.653 26.39C209.867 25.9761 210.214 25.6185 210.752 25.3277L209.801 23.5683C208.957 24.0242 208.297 24.6559 207.875 25.474L209.653 26.39ZM210.76 25.3232C211.278 25.0372 212.002 24.86 212.992 24.86V22.86C211.78 22.86 210.694 23.0748 209.793 23.5728L210.76 25.3232ZM212.992 24.86C214.126 24.86 214.931 25.051 215.478 25.3522L216.442 23.5998C215.497 23.0797 214.323 22.86 212.992 22.86V24.86ZM215.478 25.3522C216.073 25.6792 216.425 26.0643 216.619 26.4878L218.438 25.6562C218.034 24.773 217.341 24.0941 216.442 23.5998L215.478 25.3522ZM216.619 26.4878C216.831 26.9523 216.905 27.4652 216.819 28.0552L218.798 28.3448C218.936 27.4041 218.823 26.4984 218.438 25.6562L216.619 26.4878ZM217.632 27.2157L215.448 27.6077L215.801 29.5763L217.985 29.1843L217.632 27.2157ZM216.608 28.7735C216.857 27.4226 216.752 26.1606 216.043 25.1785L214.422 26.3495C214.683 26.7114 214.84 27.3347 214.641 28.4105L216.608 28.7735ZM216.054 25.1936C215.342 24.169 214.202 23.756 212.908 23.756V25.756C213.78 25.756 214.189 26.015 214.411 26.3344L216.054 25.1936ZM212.908 23.756C211.896 23.756 210.973 24.0175 210.244 24.6388L211.541 26.1612C211.82 25.9238 212.24 25.756 212.908 25.756V23.756ZM210.261 24.6248C209.47 25.2694 209.136 26.1941 209.136 27.22H211.136C211.136 26.6406 211.307 26.352 211.524 26.1752L210.261 24.6248ZM209.136 27.22C209.136 28.0445 209.4 28.7968 209.916 29.4407L211.477 28.1913C211.246 27.9019 211.136 27.5901 211.136 27.22H209.136ZM209.928 29.4562C210.492 30.133 211.349 30.5437 212.325 30.7929L212.82 28.8551C212.041 28.6563 211.647 28.395 211.465 28.1758L209.928 29.4562ZM212.341 30.7968L214.105 31.2168L214.568 29.2712L212.804 28.8512L212.341 30.7968ZM214.101 31.2158C215.218 31.4867 215.989 31.8968 216.495 32.389L217.889 30.955C217.052 30.1405 215.919 29.5986 214.572 29.2721L214.101 31.2158ZM216.505 32.3985C216.971 32.8395 217.228 33.4227 217.228 34.248H219.228C219.228 32.9453 218.795 31.8112 217.88 30.9455L216.505 32.3985ZM217.228 34.248C217.228 35.1619 216.909 35.8497 216.264 36.3985L217.561 37.9215C218.67 36.977 219.228 35.7234 219.228 34.248H217.228ZM216.256 36.4054C215.642 36.9395 214.679 37.28 213.216 37.28V39.28C214.965 39.28 216.465 38.8739 217.569 37.9146L216.256 36.4054ZM213.216 37.28C212.55 37.28 211.903 37.1828 211.27 36.9882L210.682 38.8998C211.506 39.1532 212.352 39.28 213.216 39.28V37.28ZM211.3 36.9978C210.722 36.8 210.219 36.499 209.782 36.0921L208.419 37.5559C209.065 38.157 209.812 38.6026 210.653 38.8902L211.3 36.9978ZM209.808 36.1169C209.42 35.7298 209.114 35.2115 208.911 34.5247L206.993 35.0913C207.276 36.0472 207.735 36.8729 208.393 37.5311L209.808 36.1169ZM208.289 35.7497L209.857 35.1897L209.184 33.3063L207.616 33.8663L208.289 35.7497ZM208.535 34.42C208.767 35.7465 209.306 36.8662 210.305 37.5406L211.424 35.8834C211.041 35.6244 210.685 35.1015 210.505 34.076L208.535 34.42ZM210.305 37.5406C211.173 38.1274 212.165 38.412 213.244 38.412V36.412C212.532 36.412 211.937 36.2299 211.424 35.8834L210.305 37.5406ZM213.244 38.412C213.876 38.412 214.486 38.3101 215.067 38.1009L214.39 36.2191C214.037 36.3459 213.658 36.412 213.244 36.412V38.412ZM215.056 38.105C215.692 37.8845 216.242 37.5272 216.669 37.0201L215.139 35.7319C214.969 35.9341 214.735 36.0995 214.401 36.215L215.056 38.105ZM216.685 37.0007C217.154 36.415 217.352 35.7044 217.352 34.948H215.352C215.352 35.349 215.252 35.5903 215.124 35.7513L216.685 37.0007ZM217.352 34.948C217.352 34.0947 217.049 33.3333 216.459 32.7168L215.014 34.0992C215.245 34.3413 215.352 34.6066 215.352 34.948H217.352ZM216.459 32.7168C215.849 32.0793 214.875 31.6677 213.747 31.3759L213.246 33.3121C214.283 33.5803 214.802 33.878 215.014 34.0992L216.459 32.7168ZM95.3768 53.716H94.3768V54.6292L95.2862 54.7119L95.3768 53.716ZM95.3768 52.96V51.96H94.3768V52.96H95.3768ZM100.725 52.96H101.725V51.96H100.725V52.96ZM100.725 53.716L100.815 54.7119L101.725 54.6292V53.716H100.725ZM99.1848 53.856L99.0942 52.8601L99.0774 52.8616L99.0607 52.8637L99.1848 53.856ZM98.6528 54.108L99.5472 54.5552L99.5603 54.5289L99.5719 54.5019L98.6528 54.108ZM98.5688 72V73H99.5688V72H98.5688ZM97.1968 72L96.3366 72.51L96.6271 73H97.1968V72ZM87.0048 54.808L87.865 54.298L86.0048 51.1602V54.808H87.0048ZM87.0888 70.88L86.1696 71.2739L86.1812 71.3009L86.1943 71.3272L87.0888 70.88ZM87.6208 71.104L87.4967 72.0963L87.5045 72.0973L87.5123 72.0981L87.6208 71.104ZM89.1608 71.272H90.1608V70.3752L89.2692 70.2779L89.1608 71.272ZM89.1608 72V73H90.1608V72H89.1608ZM83.8128 72H82.8128V73H83.8128V72ZM83.8128 71.272L83.7043 70.2779L82.8128 70.3752V71.272H83.8128ZM85.3528 71.104L85.4612 72.0981L85.469 72.0973L85.4768 72.0963L85.3528 71.104ZM85.8848 70.88L86.7792 71.3272L86.7923 71.3009L86.8039 71.2739L85.8848 70.88ZM85.8848 54.108L84.9656 54.5019L84.9772 54.5289L84.9903 54.5552L85.8848 54.108ZM85.3528 53.856L85.4768 52.8637L85.4601 52.8616L85.4433 52.8601L85.3528 53.856ZM83.8128 53.716H82.8128V54.6292L83.7222 54.7119L83.8128 53.716ZM83.8128 52.96V51.96H82.8128V52.96H83.8128ZM88.6568 52.96L89.5175 52.4509L89.2271 51.96H88.6568V52.96ZM97.5328 67.968L96.672 68.4771L98.5328 71.6233V67.968H97.5328ZM97.4488 54.108L96.5296 54.5019L96.5412 54.5289L96.5543 54.5552L97.4488 54.108ZM96.9168 53.856L97.0408 52.8637L97.0241 52.8616L97.0073 52.8601L96.9168 53.856ZM96.3768 53.716V52.96H94.3768V53.716H96.3768ZM95.3768 53.96H100.725V51.96H95.3768V53.96ZM99.7248 52.96V53.716H101.725V52.96H99.7248ZM100.634 52.7201L99.0942 52.8601L99.2753 54.8519L100.815 54.7119L100.634 52.7201ZM99.0607 52.8637C98.856 52.8893 98.6212 52.9383 98.3997 53.0433C98.1746 53.1499 97.8888 53.3519 97.7336 53.7141L99.5719 54.5019C99.4727 54.7335 99.3036 54.8281 99.2558 54.8507C99.2116 54.8717 99.2148 54.86 99.3088 54.8483L99.0607 52.8637ZM97.7583 53.6608C97.6765 53.8244 97.645 53.9876 97.6306 54.0705C97.6126 54.1746 97.6009 54.2864 97.5926 54.3972C97.5758 54.62 97.5688 54.9003 97.5688 55.228H99.5688C99.5688 54.9211 99.5757 54.6974 99.587 54.5468C99.5926 54.4709 99.5984 54.4287 99.6014 54.4115C99.6028 54.4034 99.6019 54.4107 99.5969 54.4286C99.5931 54.4427 99.5792 54.4912 99.5472 54.5552L97.7583 53.6608ZM97.5688 55.228V72H99.5688V55.228H97.5688ZM98.5688 71H97.1968V73H98.5688V71ZM98.057 71.49L87.865 54.298L86.1445 55.318L96.3366 72.51L98.057 71.49ZM86.0048 54.808V69.732H88.0048V54.808H86.0048ZM86.0048 69.732C86.0048 70.0602 86.0119 70.3419 86.0284 70.568C86.0412 70.7428 86.0665 71.0332 86.1696 71.2739L88.0079 70.4861C88.0419 70.5655 88.0452 70.6118 88.0389 70.5733C88.0348 70.5486 88.0288 70.5005 88.0231 70.422C88.0116 70.2655 88.0048 70.0385 88.0048 69.732H86.0048ZM86.1943 71.3272C86.3734 71.6854 86.68 71.8593 86.8757 71.9416C87.0822 72.0286 87.3015 72.0719 87.4967 72.0963L87.7448 70.1117C87.6413 70.0988 87.6226 70.0861 87.6518 70.0984C87.6701 70.1061 87.8601 70.1866 87.9832 70.4328L86.1943 71.3272ZM87.5123 72.0981L89.0523 72.2661L89.2692 70.2779L87.7292 70.1099L87.5123 72.0981ZM88.1608 71.272V72H90.1608V71.272H88.1608ZM89.1608 71H83.8128V73H89.1608V71ZM84.8128 72V71.272H82.8128V72H84.8128ZM83.9212 72.2661L85.4612 72.0981L85.2443 70.1099L83.7043 70.2779L83.9212 72.2661ZM85.4768 72.0963C85.672 72.0719 85.8913 72.0286 86.0978 71.9416C86.2935 71.8593 86.6001 71.6854 86.7792 71.3272L84.9903 70.4328C85.1134 70.1866 85.3034 70.1061 85.3217 70.0984C85.3509 70.0861 85.3322 70.0988 85.2287 70.1117L85.4768 72.0963ZM86.8039 71.2739C86.907 71.0332 86.9323 70.7428 86.9451 70.568C86.9616 70.3419 86.9688 70.0602 86.9688 69.732H84.9688C84.9688 70.0385 84.9619 70.2655 84.9504 70.422C84.9447 70.5005 84.9387 70.5486 84.9346 70.5733C84.9283 70.6118 84.9316 70.5655 84.9656 70.4861L86.8039 71.2739ZM86.9688 69.732V55.228H84.9688V69.732H86.9688ZM86.9688 55.228C86.9688 54.9003 86.9617 54.62 86.9449 54.3972C86.9366 54.2864 86.9249 54.1746 86.9069 54.0705C86.8925 53.9876 86.861 53.8244 86.7792 53.6608L84.9903 54.5552C84.9583 54.4913 84.9444 54.4427 84.9406 54.4286C84.9356 54.4107 84.9347 54.4034 84.9361 54.4115C84.9391 54.4287 84.9449 54.4709 84.9506 54.5468C84.9618 54.6974 84.9688 54.9211 84.9688 55.228H86.9688ZM86.8039 53.7141C86.6487 53.3519 86.3629 53.1499 86.1378 53.0433C85.9163 52.9383 85.6815 52.8893 85.4768 52.8637L85.2287 54.8483C85.3227 54.86 85.3259 54.8717 85.2817 54.8507C85.2339 54.8281 85.0648 54.7335 84.9656 54.5019L86.8039 53.7141ZM85.4433 52.8601L83.9033 52.7201L83.7222 54.7119L85.2622 54.8519L85.4433 52.8601ZM84.8128 53.716V52.96H82.8128V53.716H84.8128ZM83.8128 53.96H88.6568V51.96H83.8128V53.96ZM87.796 53.4691L96.672 68.4771L98.3935 67.4589L89.5175 52.4509L87.796 53.4691ZM98.5328 67.968V55.228H96.5328V67.968H98.5328ZM98.5328 55.228C98.5328 54.9003 98.5257 54.62 98.509 54.3972C98.5006 54.2864 98.4889 54.1746 98.4709 54.0705C98.4565 53.9876 98.425 53.8244 98.3432 53.6608L96.5543 54.5552C96.5223 54.4913 96.5084 54.4427 96.5046 54.4286C96.4996 54.4107 96.4987 54.4034 96.5002 54.4115C96.5031 54.4287 96.5089 54.4709 96.5146 54.5468C96.5258 54.6974 96.5328 54.9211 96.5328 55.228H98.5328ZM98.3679 53.7141C98.2127 53.3519 97.9269 53.1499 97.7018 53.0433C97.4803 52.9383 97.2455 52.8893 97.0408 52.8637L96.7927 54.8483C96.8867 54.86 96.8899 54.8717 96.8457 54.8507C96.7979 54.8281 96.6288 54.7335 96.5296 54.5019L98.3679 53.7141ZM97.0073 52.8601L95.4673 52.7201L95.2862 54.7119L96.8262 54.8519L97.0073 52.8601ZM114.244 68.808L115.211 69.0639L115.462 68.1135L114.516 67.8458L114.244 68.808ZM112.34 71.496L111.851 70.6235L111.844 70.6278L112.34 71.496ZM104.64 70.404L103.862 71.0329L103.867 71.0385L104.64 70.404ZM104.584 59.764L105.368 60.3844L105.373 60.3787L104.584 59.764ZM111.64 58.476L111.193 59.3705L111.201 59.3744L111.64 58.476ZM113.628 60.296L112.772 60.8134L112.777 60.8206L112.781 60.8278L113.628 60.296ZM114.216 65.056V66.056H115.051L115.2 65.2349L114.216 65.056ZM105.62 65.056V64.056H104.62V65.056H105.62ZM106.516 70.124L105.695 70.6951L105.702 70.7053L105.71 70.7154L106.516 70.124ZM111.612 70.712L111 69.9213L110.993 69.9262L110.987 69.9311L111.612 70.712ZM112.76 68.388L113.032 67.4258L111.96 67.1224L111.774 68.2209L112.76 68.388ZM106.432 60.016L105.591 59.4743L105.591 59.4743L106.432 60.016ZM105.62 64.16H104.62V65.16H105.62V64.16ZM111.92 64.16V65.16H112.92V64.16H111.92ZM111.92 64.076L110.932 63.9239L110.92 63.9995V64.076H111.92ZM112.004 63.376L113.001 63.459L113.001 63.4527L112.004 63.376ZM111.164 59.708L110.425 60.3818L110.43 60.3873L110.435 60.3927L111.164 59.708ZM113.277 68.5521C112.994 69.6232 112.497 70.2622 111.851 70.6235L112.829 72.3685C114.05 71.6845 114.822 70.5314 115.211 69.0639L113.277 68.5521ZM111.844 70.6278C111.09 71.0586 110.245 71.28 109.288 71.28V73.28C110.571 73.28 111.761 72.9787 112.836 72.3642L111.844 70.6278ZM109.288 71.28C107.424 71.28 106.199 70.7267 105.413 69.7695L103.867 71.0385C105.135 72.5827 107.007 73.28 109.288 73.28V71.28ZM105.417 69.7751C104.572 68.7301 104.1 67.2842 104.1 65.336H102.1C102.1 67.6065 102.654 69.5392 103.862 71.0329L105.417 69.7751ZM104.1 65.336V64.776H102.1V65.336H104.1ZM104.1 64.776C104.1 62.8401 104.557 61.4102 105.368 60.3844L103.8 59.1436C102.632 60.6191 102.1 62.5306 102.1 64.776H104.1ZM105.373 60.3787C106.139 59.3959 107.259 58.86 108.896 58.86V56.86C106.762 56.86 105.008 57.5935 103.795 59.1493L105.373 60.3787ZM108.896 58.86C109.764 58.86 110.523 59.0358 111.193 59.3704L112.087 57.5816C111.114 57.0949 110.044 56.86 108.896 56.86V58.86ZM111.201 59.3744C111.868 59.7004 112.386 60.1745 112.772 60.8134L114.484 59.7786C113.899 58.8121 113.092 58.0729 112.079 57.5776L111.201 59.3744ZM112.781 60.8278C113.162 61.4344 113.384 62.2368 113.384 63.292H115.384C115.384 61.9579 115.102 60.7629 114.475 59.7642L112.781 60.8278ZM113.384 63.292C113.384 63.7855 113.335 64.3133 113.232 64.8771L115.2 65.2349C115.321 64.5667 115.384 63.9185 115.384 63.292H113.384ZM114.216 64.056H105.62V66.056H114.216V64.056ZM104.62 65.056V65.896H106.62V65.056H104.62ZM104.62 65.896C104.62 67.9074 104.917 69.5764 105.695 70.6951L107.337 69.5529C106.92 68.9543 106.62 67.8046 106.62 65.896H104.62ZM105.71 70.7154C106.57 71.8882 107.91 72.384 109.484 72.384V70.384C108.332 70.384 107.694 70.0398 107.322 69.5326L105.71 70.7154ZM109.484 72.384C110.523 72.384 111.466 72.1093 112.237 71.4929L110.987 69.9311C110.638 70.2107 110.162 70.384 109.484 70.384V72.384ZM112.224 71.5027C113.083 70.8375 113.539 69.7776 113.746 68.5551L111.774 68.2209C111.608 69.2011 111.298 69.6905 111 69.9213L112.224 71.5027ZM112.488 69.3502L113.972 69.7702L114.516 67.8458L113.032 67.4258L112.488 69.3502ZM108.896 57.756C107.496 57.756 106.338 58.3157 105.591 59.4743L107.273 60.5577C107.608 60.0363 108.093 59.756 108.896 59.756V57.756ZM105.591 59.4743C104.887 60.5669 104.62 62.1942 104.62 64.16H106.62C106.62 62.2805 106.894 61.1451 107.273 60.5577L105.591 59.4743ZM105.62 65.16H111.92V63.16H105.62V65.16ZM112.92 64.16V64.076H110.92V64.16H112.92ZM112.908 64.2281C112.949 63.9646 112.98 63.7081 113 63.459L111.007 63.293C110.991 63.4919 110.966 63.7021 110.932 63.9239L112.908 64.2281ZM113.001 63.4527C113.021 63.1917 113.032 62.9506 113.032 62.732H111.032C111.032 62.8868 111.024 63.075 111.007 63.2993L113.001 63.4527ZM113.032 62.732C113.032 61.2345 112.729 59.914 111.893 59.0233L110.435 60.3927C110.756 60.734 111.032 61.4295 111.032 62.732H113.032ZM111.903 59.0342C111.117 58.1724 110.083 57.756 108.896 57.756V59.756C109.575 59.756 110.053 59.9743 110.425 60.3818L111.903 59.0342ZM126.267 69.144L127.235 69.3944L127.483 68.4358L126.527 68.1784L126.267 69.144ZM124.951 71.524L125.596 72.2883L124.951 71.524ZM120.471 71.692L119.88 72.4984L119.888 72.5049L119.897 72.5112L120.471 71.692ZM119.239 70.096L120.167 69.7246L120.167 69.7246L119.239 70.096ZM118.763 59.26L117.814 59.5762L117.837 59.6436L117.868 59.7072L118.763 59.26ZM118.231 59.036L118.348 58.0428L118.335 58.0413L118.321 58.0401L118.231 59.036ZM116.691 58.896H115.691V59.8092L116.6 59.8919L116.691 58.896ZM116.691 58.14V57.14H115.691V58.14H116.691ZM118.847 58.14V59.14H119.847V58.14H118.847ZM118.847 54.472L118.644 53.4928L117.847 53.6581V54.472H118.847ZM121.143 53.996H122.143V52.7674L120.94 53.0168L121.143 53.996ZM121.143 58.14H120.143V59.14H121.143V58.14ZM125.707 58.14H126.707V57.14H125.707V58.14ZM125.707 59.036V60.036H126.707V59.036H125.707ZM121.143 59.036V58.036H120.143V59.036H121.143ZM121.619 70.712L120.803 71.29L120.811 71.3011L120.819 71.312L121.619 70.712ZM124.167 70.768L123.358 70.1798L123.349 70.1921L123.341 70.2047L124.167 70.768ZM124.811 68.752L125.071 67.7864L123.978 67.492L123.821 68.6134L124.811 68.752ZM125.299 68.8936C125.049 69.8588 124.69 70.4357 124.306 70.7597L125.596 72.2883C126.406 71.6043 126.925 70.5946 127.235 69.3944L125.299 68.8936ZM124.306 70.7597C123.923 71.0832 123.4 71.28 122.655 71.28V73.28C123.776 73.28 124.784 72.9728 125.596 72.2883L124.306 70.7597ZM122.655 71.28C121.901 71.28 121.391 71.1154 121.044 70.8728L119.897 72.5112C120.671 73.0526 121.617 73.28 122.655 73.28V71.28ZM121.062 70.8856C120.655 70.5871 120.36 70.2067 120.167 69.7246L118.31 70.4674C118.64 71.292 119.167 71.9756 119.88 72.4984L121.062 70.8856ZM120.167 69.7246C119.954 69.1904 119.847 68.6352 119.847 68.052H117.847C117.847 68.8875 118.001 69.695 118.31 70.4674L120.167 69.7246ZM119.847 68.052V60.408H117.847V68.052H119.847ZM119.847 60.408C119.847 60.0713 119.84 59.7846 119.823 59.558C119.815 59.4454 119.803 59.3322 119.786 59.2273C119.772 59.1452 119.74 58.9789 119.657 58.8128L117.868 59.7072C117.836 59.6413 117.821 59.5914 117.818 59.5778C117.813 59.5601 117.812 59.5532 117.814 59.5622C117.817 59.581 117.823 59.6253 117.829 59.704C117.84 59.86 117.847 60.0914 117.847 60.408H119.847ZM119.712 58.9438C119.558 58.4828 119.181 58.2788 118.99 58.1984C118.776 58.1085 118.547 58.0663 118.348 58.0428L118.114 60.0291C118.232 60.0431 118.25 60.0569 118.214 60.0416C118.193 60.0327 118.128 60.0035 118.052 59.9376C117.972 59.8677 117.872 59.7496 117.814 59.5762L119.712 58.9438ZM118.321 58.0401L116.781 57.9001L116.6 59.8919L118.14 60.0319L118.321 58.0401ZM117.691 58.896V58.14H115.691V58.896H117.691ZM116.691 59.14H118.847V57.14H116.691V59.14ZM119.847 58.14V54.472H117.847V58.14H119.847ZM119.05 55.4512L121.346 54.9752L120.94 53.0168L118.644 53.4928L119.05 55.4512ZM120.143 53.996V58.14H122.143V53.996H120.143ZM121.143 59.14H125.707V57.14H121.143V59.14ZM124.707 58.14V59.036H126.707V58.14H124.707ZM125.707 58.036H121.143V60.036H125.707V58.036ZM120.143 59.036V68.276H122.143V59.036H120.143ZM120.143 68.276C120.143 69.4691 120.29 70.5656 120.803 71.29L122.435 70.134C122.313 69.9624 122.143 69.4349 122.143 68.276H120.143ZM120.819 71.312C121.336 72.0016 122.066 72.384 122.935 72.384V70.384C122.721 70.384 122.574 70.3184 122.419 70.112L120.819 71.312ZM122.935 72.384C123.772 72.384 124.508 72.0427 124.993 71.3313L123.341 70.2047C123.266 70.3146 123.18 70.384 122.935 70.384V72.384ZM124.976 71.3562C125.422 70.7422 125.664 69.8696 125.801 68.8906L123.821 68.6134C123.696 69.5011 123.509 69.9724 123.358 70.1798L124.976 71.3562ZM124.551 69.7176L126.007 70.1096L126.527 68.1784L125.071 67.7864L124.551 69.7176Z" fill="white"/>
<path d="M61 55.5C61 59.0898 57.866 62 54 62H47V55.5C47 51.9101 50.134 49 54 49C57.866 49 61 51.9101 61 55.5Z" fill="white"/>
<path d="M61 68.5C61 64.9102 64.3579 62 68.5 62H76V68.5C76 72.0898 72.6421 75 68.5 75C64.3579 75 61 72.0898 61 68.5Z" fill="white"/>
<path d="M47 68.5C47 72.0898 50.134 75 54 75H61V68.5C61 64.9102 57.866 62 54 62C50.134 62 47 64.9102 47 68.5Z" fill="#17CF97"/>
<path d="M76 55.5C76 51.9101 72.6421 49 68.5 49H61V55.5C61 59.0898 64.3579 62 68.5 62C72.6421 62 76 59.0898 76 55.5Z" fill="#17CF97"/>
</svg>
