<svg width="199" height="39" viewBox="0 0 199 39" fill="none" xmlns="http://www.w3.org/2000/svg">
<path d="M11.2657 31.9785L27.1341 8.57482" stroke="#C05555" stroke-width="7" stroke-linecap="round"/>
<path d="M21.3787 32.9448L37.866 9.00142" stroke="#C05555" stroke-width="7" stroke-linecap="round"/>
<path d="M39.8625 23.4587L45 15.9152" stroke="#C05555" stroke-width="7" stroke-linecap="round"/>
<path d="M3 27.7776L9.17579 19.2066" stroke="#C05555" stroke-width="7" stroke-linecap="round"/>
<path d="M65.48 3.56104V17H62.4253V7.92725L61.2051 17H59.0386L57.7519 8.13477V17H54.6973V3.56104H59.2212C59.354 4.36898 59.4951 5.3208 59.6445 6.4165L60.126 9.83643L60.9228 3.56104H65.48ZM74.3784 11.6875H70.0371V14.0698C70.0371 14.5679 70.0731 14.8888 70.145 15.0327C70.217 15.1766 70.3553 15.2485 70.5601 15.2485C70.8146 15.2485 70.9834 15.1545 71.0664 14.9663C71.1549 14.7726 71.1992 14.4019 71.1992 13.854V12.4014H74.3784V13.2148C74.3784 13.8955 74.3341 14.4185 74.2456 14.7837C74.1626 15.1489 73.9634 15.5391 73.6479 15.9541C73.3325 16.3691 72.9313 16.6818 72.4443 16.8921C71.9629 17.0968 71.3569 17.1992 70.6265 17.1992C69.9181 17.1992 69.2928 17.0968 68.7505 16.8921C68.2082 16.6873 67.7848 16.4079 67.4805 16.0537C67.1816 15.694 66.9741 15.3011 66.8579 14.875C66.7417 14.4434 66.6836 13.818 66.6836 12.999V9.78662C66.6836 8.82373 66.8136 8.06559 67.0737 7.51221C67.3338 6.95329 67.7599 6.52718 68.352 6.23389C68.9442 5.93506 69.6248 5.78564 70.394 5.78564C71.3348 5.78564 72.1095 5.96549 72.7183 6.3252C73.3325 6.67936 73.7614 7.15251 74.0049 7.74463C74.2539 8.33122 74.3784 9.15853 74.3784 10.2266V11.6875ZM71.0166 9.89453V9.08936C71.0166 8.51937 70.9862 8.15137 70.9253 7.98535C70.8644 7.81934 70.7399 7.73633 70.5518 7.73633C70.3193 7.73633 70.1755 7.80827 70.1201 7.95215C70.0648 8.09049 70.0371 8.46956 70.0371 9.08936V9.89453H71.0166ZM83.1108 3.56104V17H79.7573V16.2031C79.4364 16.5352 79.0988 16.7842 78.7446 16.9502C78.3905 17.1162 78.0197 17.1992 77.6323 17.1992C77.1121 17.1992 76.6611 17.0636 76.2793 16.7925C75.8975 16.5158 75.6512 16.1976 75.5405 15.8379C75.4354 15.4782 75.3828 14.8916 75.3828 14.0781V8.92334C75.3828 8.07666 75.4354 7.47624 75.5405 7.12207C75.6512 6.7679 75.9002 6.45801 76.2876 6.19238C76.675 5.92122 77.137 5.78564 77.6738 5.78564C78.0889 5.78564 78.4679 5.86035 78.811 6.00977C79.1597 6.15918 79.4751 6.3833 79.7573 6.68213V3.56104H83.1108ZM79.7573 8.75732C79.7573 8.35335 79.7214 8.08219 79.6494 7.94385C79.583 7.8055 79.4474 7.73633 79.2427 7.73633C79.0435 7.73633 78.9079 7.79997 78.8359 7.92725C78.7695 8.04899 78.7363 8.32568 78.7363 8.75732V14.1528C78.7363 14.6011 78.7695 14.8971 78.8359 15.041C78.9023 15.1794 79.0296 15.2485 79.2178 15.2485C79.4336 15.2485 79.5775 15.1711 79.6494 15.0161C79.7214 14.8556 79.7573 14.4683 79.7573 13.854V8.75732ZM87.7676 3.56104V5.3125H84.3144V3.56104H87.7676ZM87.7676 5.98486V17H84.3144V5.98486H87.7676ZM96.3921 10.1436H93.2295V8.87354C93.2295 8.43083 93.1935 8.132 93.1216 7.97705C93.0496 7.81657 92.9168 7.73633 92.7231 7.73633C92.5295 7.73633 92.3994 7.8055 92.333 7.94385C92.2666 8.08219 92.2334 8.39209 92.2334 8.87354V14.0698C92.2334 14.4627 92.2832 14.7588 92.3828 14.958C92.4824 15.1517 92.6291 15.2485 92.8228 15.2485C93.0496 15.2485 93.2018 15.1462 93.2793 14.9414C93.3623 14.7367 93.4038 14.3493 93.4038 13.7793V12.4678H96.3921C96.3866 13.3477 96.3533 14.009 96.2925 14.4517C96.2371 14.8888 96.0518 15.3398 95.7363 15.8047C95.4264 16.264 95.0197 16.6126 94.5161 16.8506C94.0125 17.083 93.39 17.1992 92.6484 17.1992C91.7021 17.1992 90.9523 17.0387 90.3989 16.7178C89.8455 16.3913 89.4526 15.9375 89.2202 15.3564C88.9933 14.7699 88.8799 13.9398 88.8799 12.8662V9.73682C88.8799 8.8016 88.974 8.09603 89.1621 7.62012C89.3503 7.14421 89.7515 6.72087 90.3657 6.3501C90.98 5.9738 91.727 5.78564 92.6069 5.78564C93.4813 5.78564 94.2283 5.97103 94.8481 6.3418C95.4679 6.71257 95.8802 7.18018 96.085 7.74463C96.2897 8.30908 96.3921 9.10872 96.3921 10.1436ZM100.393 10.2515H97.2471V9.5127C97.2471 8.66048 97.3439 8.00472 97.5376 7.54541C97.7368 7.08057 98.1325 6.67106 98.7246 6.31689C99.3167 5.96273 100.086 5.78564 101.032 5.78564C102.167 5.78564 103.022 5.98763 103.597 6.3916C104.173 6.79004 104.519 7.28255 104.635 7.86914C104.751 8.4502 104.809 9.65104 104.809 11.4717V17H101.547V16.0205C101.342 16.4134 101.076 16.7095 100.75 16.9087C100.429 17.1024 100.044 17.1992 99.5962 17.1992C99.0096 17.1992 98.47 17.036 97.9775 16.7095C97.4906 16.3774 97.2471 15.6553 97.2471 14.543V13.6382C97.2471 12.8136 97.3771 12.252 97.6372 11.9531C97.8973 11.6543 98.542 11.3057 99.5713 10.9072C100.673 10.4756 101.262 10.1851 101.339 10.0356C101.417 9.88623 101.456 9.58187 101.456 9.12256C101.456 8.54704 101.411 8.1735 101.323 8.00195C101.24 7.82487 101.099 7.73633 100.899 7.73633C100.673 7.73633 100.531 7.81104 100.476 7.96045C100.421 8.10433 100.393 8.4834 100.393 9.09766V10.2515ZM101.456 11.7622C100.919 12.1551 100.606 12.4844 100.518 12.75C100.435 13.0156 100.393 13.3975 100.393 13.8955C100.393 14.4655 100.429 14.8335 100.501 14.9995C100.578 15.1655 100.728 15.2485 100.949 15.2485C101.16 15.2485 101.295 15.1849 101.356 15.0576C101.422 14.9248 101.456 14.5817 101.456 14.0283V11.7622ZM109.416 3.56104V17H105.963V3.56104H109.416ZM110.728 3.56104H114.247C115.199 3.56104 115.929 3.63574 116.438 3.78516C116.953 3.93457 117.338 4.15039 117.592 4.43262C117.852 4.71484 118.027 5.05794 118.115 5.46191C118.209 5.86035 118.256 6.48014 118.256 7.32129V8.4917C118.256 9.34945 118.168 9.97477 117.991 10.3677C117.814 10.7606 117.487 11.0622 117.011 11.2725C116.541 11.4827 115.924 11.5879 115.16 11.5879H114.222V17H110.728V3.56104ZM114.222 5.86035V9.28027C114.322 9.28581 114.408 9.28857 114.479 9.28857C114.8 9.28857 115.022 9.2111 115.144 9.05615C115.271 8.89567 115.334 8.56641 115.334 8.06836V6.96436C115.334 6.50505 115.263 6.20622 115.119 6.06787C114.975 5.92952 114.676 5.86035 114.222 5.86035ZM122.515 5.98486L122.382 7.4292C122.869 6.39437 123.574 5.84652 124.499 5.78564V9.66211C123.884 9.66211 123.433 9.74512 123.146 9.91113C122.858 10.0771 122.681 10.3096 122.614 10.6084C122.548 10.9017 122.515 11.5824 122.515 12.6504V17H119.161V5.98486H122.515ZM132.841 9.85303V12.5508C132.841 13.5413 132.791 14.269 132.691 14.7339C132.592 15.1932 132.379 15.6248 132.052 16.0288C131.726 16.4272 131.305 16.7233 130.791 16.917C130.281 17.1051 129.695 17.1992 129.031 17.1992C128.289 17.1992 127.661 17.119 127.146 16.9585C126.632 16.7925 126.231 16.5462 125.943 16.2197C125.661 15.8877 125.459 15.4893 125.337 15.0244C125.215 14.554 125.154 13.8512 125.154 12.916V10.0938C125.154 9.06999 125.265 8.27035 125.486 7.69482C125.708 7.1193 126.106 6.65723 126.682 6.30859C127.257 5.95996 127.993 5.78564 128.89 5.78564C129.642 5.78564 130.287 5.89909 130.824 6.12598C131.366 6.34733 131.784 6.63786 132.077 6.99756C132.37 7.35726 132.57 7.72803 132.675 8.10986C132.785 8.4917 132.841 9.07275 132.841 9.85303ZM129.487 9.02295C129.487 8.4585 129.457 8.10433 129.396 7.96045C129.335 7.81104 129.205 7.73633 129.006 7.73633C128.807 7.73633 128.674 7.81104 128.607 7.96045C128.541 8.10433 128.508 8.4585 128.508 9.02295V13.9951C128.508 14.5153 128.541 14.8556 128.607 15.0161C128.674 15.1711 128.804 15.2485 128.998 15.2485C129.197 15.2485 129.327 15.1766 129.388 15.0327C129.454 14.8888 129.487 14.5789 129.487 14.103V9.02295ZM137.506 3.56104V5.3125H134.053V3.56104H137.506ZM137.506 5.98486V14.7007C137.506 15.7244 137.484 16.4189 137.439 16.7842C137.401 17.1439 137.273 17.4593 137.058 17.7305C136.847 18.0072 136.562 18.2119 136.203 18.3447C135.848 18.4775 135.314 18.5439 134.601 18.5439H133.306V16.7842C133.704 16.7842 133.928 16.7399 133.978 16.6514C134.028 16.5628 134.053 16.0094 134.053 14.9912V5.98486H137.506ZM146.313 11.6875H141.972V14.0698C141.972 14.5679 142.008 14.8888 142.08 15.0327C142.152 15.1766 142.29 15.2485 142.495 15.2485C142.749 15.2485 142.918 15.1545 143.001 14.9663C143.09 14.7726 143.134 14.4019 143.134 13.854V12.4014H146.313V13.2148C146.313 13.8955 146.269 14.4185 146.18 14.7837C146.097 15.1489 145.898 15.5391 145.583 15.9541C145.267 16.3691 144.866 16.6818 144.379 16.8921C143.897 17.0968 143.292 17.1992 142.561 17.1992C141.853 17.1992 141.227 17.0968 140.685 16.8921C140.143 16.6873 139.719 16.4079 139.415 16.0537C139.116 15.694 138.909 15.3011 138.792 14.875C138.676 14.4434 138.618 13.818 138.618 12.999V9.78662C138.618 8.82373 138.748 8.06559 139.008 7.51221C139.268 6.95329 139.694 6.52718 140.287 6.23389C140.879 5.93506 141.559 5.78564 142.329 5.78564C143.269 5.78564 144.044 5.96549 144.653 6.3252C145.267 6.67936 145.696 7.15251 145.939 7.74463C146.188 8.33122 146.313 9.15853 146.313 10.2266V11.6875ZM142.951 9.89453V9.08936C142.951 8.51937 142.921 8.15137 142.86 7.98535C142.799 7.81934 142.674 7.73633 142.486 7.73633C142.254 7.73633 142.11 7.80827 142.055 7.95215C141.999 8.09049 141.972 8.46956 141.972 9.08936V9.89453H142.951ZM154.83 10.1436H151.667V8.87354C151.667 8.43083 151.631 8.132 151.559 7.97705C151.487 7.81657 151.354 7.73633 151.161 7.73633C150.967 7.73633 150.837 7.8055 150.771 7.94385C150.704 8.08219 150.671 8.39209 150.671 8.87354V14.0698C150.671 14.4627 150.721 14.7588 150.82 14.958C150.92 15.1517 151.067 15.2485 151.26 15.2485C151.487 15.2485 151.639 15.1462 151.717 14.9414C151.8 14.7367 151.841 14.3493 151.841 13.7793V12.4678H154.83C154.824 13.3477 154.791 14.009 154.73 14.4517C154.675 14.8888 154.489 15.3398 154.174 15.8047C153.864 16.264 153.457 16.6126 152.954 16.8506C152.45 17.083 151.827 17.1992 151.086 17.1992C150.14 17.1992 149.39 17.0387 148.836 16.7178C148.283 16.3913 147.89 15.9375 147.658 15.3564C147.431 14.7699 147.317 13.9398 147.317 12.8662V9.73682C147.317 8.8016 147.411 8.09603 147.6 7.62012C147.788 7.14421 148.189 6.72087 148.803 6.3501C149.417 5.9738 150.165 5.78564 151.044 5.78564C151.919 5.78564 152.666 5.97103 153.286 6.3418C153.905 6.71257 154.318 7.18018 154.522 7.74463C154.727 8.30908 154.83 9.10872 154.83 10.1436ZM159.37 4.51562V6.25049H160.275V7.99365H159.37V13.8872C159.37 14.6121 159.406 15.0161 159.478 15.0991C159.555 15.1821 159.868 15.2236 160.416 15.2236V17H159.063C158.299 17 157.754 16.9696 157.428 16.9087C157.101 16.8423 156.813 16.6956 156.564 16.4688C156.315 16.2363 156.16 15.9735 156.1 15.6802C156.039 15.3813 156.008 14.6841 156.008 13.5884V7.99365H155.286V6.25049H156.008V4.51562H159.37ZM167.862 9.50439H164.89V8.90674C164.89 8.39762 164.86 8.07666 164.799 7.94385C164.743 7.8055 164.6 7.73633 164.367 7.73633C164.179 7.73633 164.038 7.79997 163.944 7.92725C163.85 8.04899 163.803 8.23438 163.803 8.4834C163.803 8.82096 163.825 9.06999 163.869 9.23047C163.919 9.38542 164.06 9.55697 164.292 9.74512C164.53 9.93327 165.015 10.2072 165.745 10.5669C166.719 11.0428 167.358 11.491 167.663 11.9116C167.967 12.3322 168.119 12.9437 168.119 13.7461C168.119 14.6426 168.003 15.3205 167.771 15.7798C167.538 16.2336 167.148 16.585 166.6 16.834C166.058 17.0775 165.402 17.1992 164.633 17.1992C163.781 17.1992 163.05 17.0664 162.441 16.8008C161.838 16.5352 161.423 16.1755 161.196 15.7217C160.969 15.2679 160.856 14.5817 160.856 13.6631V13.1318H163.828V13.8291C163.828 14.4212 163.864 14.8058 163.936 14.9829C164.013 15.16 164.162 15.2485 164.384 15.2485C164.622 15.2485 164.788 15.1904 164.882 15.0742C164.976 14.9525 165.023 14.7007 165.023 14.3188C165.023 13.7931 164.962 13.4639 164.84 13.3311C164.713 13.1982 164.063 12.8053 162.89 12.1523C161.905 11.599 161.304 11.0981 161.088 10.6499C160.873 10.1961 160.765 9.65934 160.765 9.03955C160.765 8.15967 160.881 7.51221 161.113 7.09717C161.346 6.6766 161.739 6.35286 162.292 6.12598C162.851 5.89909 163.498 5.78564 164.234 5.78564C164.965 5.78564 165.585 5.87972 166.094 6.06787C166.608 6.25049 167.001 6.49398 167.272 6.79834C167.549 7.1027 167.715 7.38493 167.771 7.64502C167.831 7.90511 167.862 8.31185 167.862 8.86523V9.50439ZM171.249 14.2607V17H168.717V14.2607H171.249ZM180.056 3.56104V17H176.993L175.175 10.8906V17H172.253V3.56104H175.175L177.134 9.6123V3.56104H180.056ZM188.962 11.6875H184.621V14.0698C184.621 14.5679 184.657 14.8888 184.729 15.0327C184.801 15.1766 184.939 15.2485 185.144 15.2485C185.399 15.2485 185.567 15.1545 185.65 14.9663C185.739 14.7726 185.783 14.4019 185.783 13.854V12.4014H188.962V13.2148C188.962 13.8955 188.918 14.4185 188.83 14.7837C188.747 15.1489 188.547 15.5391 188.232 15.9541C187.917 16.3691 187.515 16.6818 187.028 16.8921C186.547 17.0968 185.941 17.1992 185.21 17.1992C184.502 17.1992 183.877 17.0968 183.334 16.8921C182.792 16.6873 182.369 16.4079 182.064 16.0537C181.766 15.694 181.558 15.3011 181.442 14.875C181.326 14.4434 181.268 13.818 181.268 12.999V9.78662C181.268 8.82373 181.398 8.06559 181.658 7.51221C181.918 6.95329 182.344 6.52718 182.936 6.23389C183.528 5.93506 184.209 5.78564 184.978 5.78564C185.919 5.78564 186.694 5.96549 187.302 6.3252C187.917 6.67936 188.345 7.15251 188.589 7.74463C188.838 8.33122 188.962 9.15853 188.962 10.2266V11.6875ZM185.601 9.89453V9.08936C185.601 8.51937 185.57 8.15137 185.509 7.98535C185.448 7.81934 185.324 7.73633 185.136 7.73633C184.903 7.73633 184.759 7.80827 184.704 7.95215C184.649 8.09049 184.621 8.46956 184.621 9.08936V9.89453H185.601ZM193.603 4.51562V6.25049H194.507V7.99365H193.603V13.8872C193.603 14.6121 193.639 15.0161 193.71 15.0991C193.788 15.1821 194.101 15.2236 194.648 15.2236V17H193.295C192.532 17 191.987 16.9696 191.66 16.9087C191.334 16.8423 191.046 16.6956 190.797 16.4688C190.548 16.2363 190.393 15.9735 190.332 15.6802C190.271 15.3813 190.241 14.6841 190.241 13.5884V7.99365H189.519V6.25049H190.241V4.51562H193.603Z" fill="#863333"/>
<path d="M54.768 36V24.8H59.328C59.8507 24.992 60.3147 25.328 60.72 25.808C61.1253 26.288 61.328 26.8693 61.328 27.552C61.328 28.7573 60.9333 29.6 60.144 30.08V30.144C61.1253 30.688 61.616 31.5413 61.616 32.704C61.616 34.0373 60.9387 35.136 59.584 36H54.768ZM56.944 29.424H58.528C58.9973 29.136 59.232 28.6987 59.232 28.112C59.232 27.5253 59.0133 27.0613 58.576 26.72H56.944V29.424ZM56.944 34.144H58.592C58.784 34.0053 58.9547 33.7867 59.104 33.488C59.264 33.1893 59.344 32.8907 59.344 32.592C59.344 32.2933 59.28 32.0213 59.152 31.776C59.024 31.5307 58.864 31.3493 58.672 31.232H56.944V34.144ZM62.6556 31.504V27.824H64.7836V31.52C64.7836 32.448 64.9703 33.2213 65.3436 33.84H66.2876C66.6396 33.232 66.8156 32.4587 66.8156 31.52V27.824H68.9436V31.392C68.9436 32.192 68.837 32.896 68.6236 33.504C68.421 34.112 68.085 34.8 67.6156 35.568L66.5436 37.312C66.3516 37.6427 66.149 37.888 65.9356 38.048C65.7223 38.208 65.445 38.3253 65.1036 38.4H62.5756V36.72H64.3036C64.5276 36.656 64.7143 36.544 64.8636 36.384C65.013 36.224 65.1676 35.9947 65.3276 35.696L65.4236 35.52H64.3196C63.8076 35.104 63.4023 34.544 63.1036 33.84C62.805 33.1253 62.6556 32.3467 62.6556 31.504ZM76.9886 30.88H76.9246H76.9886L77.8366 27.376L78.5246 24.8H80.5246L81.2446 36H79.1486L78.8446 29.888H78.7646L77.6126 34.4H76.3006L75.1486 29.888H75.0686L74.7646 36H72.6686L73.3886 24.8H75.3886L76.0766 27.376L76.9246 30.88H76.9886ZM82.4536 36V27.824H84.5656V36H82.4536ZM82.4536 24.8H84.5656V26.96H82.4536V24.8ZM87.922 31.84C87.922 32.288 87.9913 32.7467 88.13 33.216C88.2687 33.6747 88.4607 34.0427 88.706 34.32H91.106V36H87.602C86.3433 34.9973 85.714 33.6107 85.714 31.84C85.714 30.0693 86.386 28.7307 87.73 27.824H91.106V29.504H88.706C88.1833 30.048 87.922 30.8267 87.922 31.84ZM95.9004 27.824H97.4204C97.8897 28.4213 98.2097 29.0187 98.3804 29.616C98.551 30.2133 98.6364 30.96 98.6364 31.856V36H96.5084V31.696C96.5084 30.6827 96.3697 29.952 96.0924 29.504H94.3004V36H92.1724V24.8H94.3004V28.4C94.535 28.1867 94.7537 28.0373 94.9564 27.952C95.1697 27.8667 95.4844 27.824 95.9004 27.824ZM103.81 32.304H102.098C101.874 32.5813 101.762 32.928 101.762 33.344C101.762 33.76 101.879 34.0853 102.114 34.32H103.81V32.304ZM100.37 27.824H104.338C104.978 28.208 105.399 28.6507 105.602 29.152C105.804 29.6427 105.906 30.3147 105.906 31.168V33.568C105.906 34.4533 105.927 35.264 105.97 36H104.146L103.858 35.424C103.442 35.808 102.855 36 102.098 36H101.09C100.183 35.4027 99.7296 34.544 99.7296 33.424C99.7296 32.2933 100.194 31.4027 101.122 30.752H102.626C103.042 30.752 103.431 30.88 103.794 31.136V30.336C103.794 29.92 103.612 29.6427 103.25 29.504H100.37V27.824ZM110.978 29.504H109.778C109.618 29.696 109.484 29.9627 109.378 30.304C109.282 30.6453 109.234 30.976 109.234 31.296H111.522C111.543 30.976 111.5 30.6453 111.394 30.304C111.287 29.952 111.148 29.6853 110.978 29.504ZM113.154 34.32V36H109.09C108.343 35.4987 107.815 34.88 107.506 34.144C107.207 33.3973 107.058 32.6453 107.058 31.888C107.058 30.1387 107.719 28.784 109.042 27.824H111.634C112.348 28.3467 112.834 28.9013 113.09 29.488C113.346 30.0747 113.474 30.6667 113.474 31.264C113.474 31.8613 113.426 32.3733 113.33 32.8H109.346C109.378 33.0453 109.468 33.328 109.618 33.648C109.778 33.9573 109.948 34.1813 110.13 34.32H113.154ZM116.659 24.8V36H114.547V24.8H116.659Z" fill="#605757"/>
</svg>
