<svg width="235" height="146" viewBox="0 0 235 146" fill="none" xmlns="http://www.w3.org/2000/svg">
<path d="M66.0192 42.2712C66.0192 52.8239 57.7434 61.3785 47.5346 61.3785C37.3259 61.3785 29.05 52.8239 29.05 42.2712C29.05 31.7185 37.3259 23.1638 47.5346 23.1638C57.7434 23.1638 66.0192 31.7185 66.0192 42.2712Z" fill="#FFA8A8"/>
<path d="M234.435 78.4746C234.435 90.6935 223.4 100.599 209.788 100.599C196.177 100.599 185.142 90.6935 185.142 78.4746C185.142 66.2557 196.177 56.3503 209.788 56.3503C223.4 56.3503 234.435 66.2557 234.435 78.4746Z" fill="#F3C1C1"/>
<path d="M87.5846 118.198C87.5846 133.471 74.4812 145.853 58.3173 145.853C42.1534 145.853 29.05 133.471 29.05 118.198C29.05 102.924 42.1534 90.5424 58.3173 90.5424C74.4812 90.5424 87.5846 102.924 87.5846 118.198Z" fill="#F3C1C1"/>
<path d="M168.624 16V6.90001H172.329C172.754 7.05601 173.131 7.32901 173.46 7.71901C173.789 8.10901 173.954 8.58134 173.954 9.13601C173.954 10.1153 173.633 10.8 172.992 11.19V11.242C173.789 11.684 174.188 12.3773 174.188 13.322C174.188 14.4053 173.638 15.298 172.537 16H168.624ZM170.392 10.657H171.679C172.06 10.423 172.251 10.0677 172.251 9.59101C172.251 9.11434 172.073 8.73734 171.718 8.46001H170.392V10.657ZM170.392 14.492H171.731C171.887 14.3793 172.026 14.2017 172.147 13.959C172.277 13.7163 172.342 13.4737 172.342 13.231C172.342 12.9883 172.29 12.7673 172.186 12.568C172.082 12.3687 171.952 12.2213 171.796 12.126H170.392V14.492Z" fill="#605757"/>
<path d="M175.033 12.347V9.35701H176.762V12.36C176.762 13.114 176.913 13.7423 177.217 14.245H177.984C178.27 13.751 178.413 13.1227 178.413 12.36V9.35701H180.142V12.256C180.142 12.906 180.055 13.478 179.882 13.972C179.717 14.466 179.444 15.025 179.063 15.649L178.192 17.066C178.036 17.3347 177.871 17.534 177.698 17.664C177.524 17.794 177.299 17.8893 177.022 17.95H174.968V16.585H176.372C176.554 16.533 176.705 16.442 176.827 16.312C176.948 16.182 177.074 15.9957 177.204 15.753L177.282 15.61H176.385C175.969 15.272 175.639 14.817 175.397 14.245C175.154 13.6643 175.033 13.0317 175.033 12.347Z" fill="#605757"/>
<path d="M186.678 11.84L187.367 8.99301L187.926 6.90001H189.551L190.136 16H188.433L188.186 11.034H188.121L187.185 14.7H186.119L185.183 11.034H185.118L184.871 16H183.168L183.753 6.90001H185.378L185.937 8.99301L186.626 11.84H186.678Z" fill="#605757"/>
<path d="M191.119 16V9.35701H192.835V16H191.119ZM191.119 6.90001H192.835V8.65501H191.119V6.90001Z" fill="#605757"/>
<path d="M195.562 12.62C195.562 12.984 195.618 13.3567 195.731 13.738C195.843 14.1107 195.999 14.4097 196.199 14.635H198.149V16H195.302C194.279 15.1853 193.768 14.0587 193.768 12.62C193.768 11.1813 194.314 10.0937 195.406 9.35701H198.149V10.722H196.199C195.774 11.164 195.562 11.7967 195.562 12.62Z" fill="#605757"/>
<path d="M202.044 9.35701H203.279C203.66 9.84234 203.92 10.3277 204.059 10.813C204.198 11.2983 204.267 11.905 204.267 12.633V16H202.538V12.503C202.538 11.6797 202.425 11.086 202.2 10.722H200.744V16H199.015V6.90001H200.744V9.82501C200.935 9.65167 201.112 9.53034 201.277 9.46101C201.45 9.39167 201.706 9.35701 202.044 9.35701Z" fill="#605757"/>
<path d="M208.47 12.997H207.079C206.897 13.2223 206.806 13.504 206.806 13.842C206.806 14.18 206.902 14.4443 207.092 14.635H208.47V12.997ZM205.675 9.35701H208.899C209.419 9.66901 209.762 10.0287 209.926 10.436C210.091 10.8347 210.173 11.3807 210.173 12.074V14.024C210.173 14.7433 210.191 15.402 210.225 16H208.743L208.509 15.532C208.171 15.844 207.695 16 207.079 16H206.26C205.524 15.5147 205.155 14.817 205.155 13.907C205.155 12.9883 205.532 12.2647 206.286 11.736H207.508C207.846 11.736 208.163 11.84 208.457 12.048V11.398C208.457 11.06 208.31 10.8347 208.015 10.722H205.675V9.35701Z" fill="#605757"/>
<path d="M214.294 10.722H213.319C213.189 10.878 213.081 11.0947 212.994 11.372C212.916 11.6493 212.877 11.918 212.877 12.178H214.736C214.754 11.918 214.719 11.6493 214.632 11.372C214.546 11.086 214.433 10.8693 214.294 10.722ZM216.062 14.635V16H212.76C212.154 15.5927 211.725 15.09 211.473 14.492C211.231 13.8853 211.109 13.2743 211.109 12.659C211.109 11.2377 211.647 10.137 212.721 9.35701H214.827C215.408 9.78167 215.802 10.2323 216.01 10.709C216.218 11.1857 216.322 11.6667 216.322 12.152C216.322 12.6373 216.283 13.0533 216.205 13.4H212.968C212.994 13.5993 213.068 13.829 213.189 14.089C213.319 14.3403 213.458 14.5223 213.605 14.635H216.062Z" fill="#605757"/>
<path d="M218.911 6.90001V16H217.195V6.90001H218.911Z" fill="#605757"/>
<path d="M12.7357 0.271332V16.0819H9.142V5.40805L7.70645 16.0819H5.15762L3.64395 5.65219V16.0819H0.0502014V0.271332H5.37247C5.52872 1.22185 5.69473 2.34164 5.87051 3.63071L6.43692 7.65414L7.37442 0.271332H12.7357Z" fill="#863333"/>
<path d="M23.2045 9.83188H18.0971V12.6346C18.0971 13.2206 18.1394 13.5982 18.224 13.7674C18.3087 13.9367 18.4714 14.0213 18.7123 14.0213C19.0118 14.0213 19.2104 13.9107 19.308 13.6893C19.4122 13.4614 19.4643 13.0252 19.4643 12.3807V10.6717H23.2045V11.6288C23.2045 12.4295 23.1524 13.0448 23.0482 13.4745C22.9506 13.9041 22.7162 14.3631 22.3451 14.8514C21.974 15.3397 21.502 15.7075 20.9291 15.9549C20.3627 16.1958 19.6498 16.3163 18.7904 16.3163C17.9571 16.3163 17.2214 16.1958 16.5834 15.9549C15.9454 15.714 15.4473 15.3853 15.0893 14.9686C14.7377 14.5454 14.4936 14.0832 14.3568 13.5819C14.2201 13.0741 14.1518 12.3384 14.1518 11.3748V7.59555C14.1518 6.46274 14.3048 5.57081 14.6107 4.91977C14.9167 4.26222 15.418 3.76092 16.1147 3.41586C16.8113 3.0643 17.6121 2.88852 18.517 2.88852C19.6238 2.88852 20.5352 3.10011 21.2514 3.52328C21.974 3.93995 22.4786 4.49659 22.765 5.19321C23.058 5.88331 23.2045 6.85662 23.2045 8.11313V9.83188ZM19.2494 7.7225V6.77524C19.2494 6.10467 19.2136 5.67172 19.142 5.47641C19.0704 5.2811 18.9239 5.18344 18.7025 5.18344C18.4291 5.18344 18.2598 5.26808 18.1947 5.43735C18.1296 5.60011 18.0971 6.04607 18.0971 6.77524V7.7225H19.2494Z" fill="#863333"/>
<path d="M33.4779 0.271332V16.0819H29.5326V15.1444C29.155 15.535 28.7579 15.828 28.3412 16.0233C27.9246 16.2186 27.4884 16.3163 27.0326 16.3163C26.4206 16.3163 25.89 16.1567 25.4408 15.8377C24.9916 15.5122 24.7019 15.1379 24.5717 14.7147C24.448 14.2915 24.3861 13.6014 24.3861 12.6444V6.57993C24.3861 5.58383 24.448 4.87745 24.5717 4.46078C24.7019 4.04412 24.9949 3.67953 25.4506 3.36703C25.9063 3.04802 26.4499 2.88852 27.0815 2.88852C27.5697 2.88852 28.0157 2.97641 28.4193 3.15219C28.8295 3.32797 29.2006 3.59164 29.5326 3.94321V0.271332H33.4779ZM29.5326 6.38461C29.5326 5.90935 29.4903 5.59034 29.4057 5.42758C29.3275 5.26482 29.168 5.18344 28.9272 5.18344C28.6928 5.18344 28.5333 5.25831 28.4486 5.40805C28.3705 5.55128 28.3315 5.8768 28.3315 6.38461V12.7323C28.3315 13.2596 28.3705 13.6079 28.4486 13.7772C28.5268 13.94 28.6765 14.0213 28.8979 14.0213C29.1518 14.0213 29.321 13.9302 29.4057 13.7479C29.4903 13.5591 29.5326 13.1034 29.5326 12.3807V6.38461Z" fill="#863333"/>
<path d="M38.9565 0.271332V2.33188H34.894V0.271332H38.9565ZM38.9565 3.12289V16.0819H34.894V3.12289H38.9565Z" fill="#863333"/>
<path d="M49.1029 8.01547H45.3822V6.52133C45.3822 6.0005 45.3399 5.64894 45.2553 5.46664C45.1706 5.27784 45.0144 5.18344 44.7865 5.18344C44.5587 5.18344 44.4057 5.26482 44.3275 5.42758C44.2494 5.59034 44.2104 5.95493 44.2104 6.52133V12.6346C44.2104 13.0969 44.269 13.4452 44.3861 13.6795C44.5033 13.9074 44.6759 14.0213 44.9037 14.0213C45.1706 14.0213 45.3497 13.9009 45.4408 13.66C45.5385 13.4191 45.5873 12.9634 45.5873 12.2928V10.7498H49.1029C49.0964 11.785 49.0574 12.563 48.9857 13.0838C48.9206 13.5982 48.7025 14.1288 48.3315 14.6756C47.9669 15.216 47.4884 15.6261 46.8959 15.9061C46.3035 16.1795 45.571 16.3163 44.6986 16.3163C43.5854 16.3163 42.7032 16.1275 42.0522 15.7498C41.4011 15.3657 40.9389 14.8319 40.6654 14.1483C40.3985 13.4582 40.265 12.4816 40.265 11.2186V7.53696C40.265 6.4367 40.3757 5.60662 40.5971 5.04672C40.8184 4.48683 41.2904 3.98878 42.0131 3.55258C42.7357 3.10987 43.6147 2.88852 44.6498 2.88852C45.6785 2.88852 46.5574 3.10662 47.2865 3.54282C48.0157 3.97901 48.5007 4.52914 48.7416 5.19321C48.9825 5.85727 49.1029 6.79802 49.1029 8.01547Z" fill="#863333"/>
<path d="M53.81 8.14243H50.1088V7.27328C50.1088 6.27068 50.2227 5.4992 50.4506 4.95883C50.685 4.41196 51.1505 3.93019 51.8471 3.51352C52.5437 3.09685 53.4486 2.88852 54.5619 2.88852C55.8966 2.88852 56.9024 3.12615 57.5795 3.60141C58.2566 4.07016 58.6635 4.64959 58.8002 5.33969C58.9369 6.02328 59.0053 7.43605 59.0053 9.57797V16.0819H55.1674V14.9295C54.9265 15.3918 54.614 15.7401 54.2299 15.9745C53.8523 16.2023 53.3998 16.3163 52.8725 16.3163C52.1824 16.3163 51.5476 16.1242 50.9682 15.7401C50.3953 15.3495 50.1088 14.4998 50.1088 13.1913V12.1268C50.1088 11.1567 50.2618 10.4959 50.5678 10.1444C50.8738 9.79282 51.6322 9.38266 52.8432 8.91391C54.1387 8.4061 54.8321 8.0643 54.9232 7.88852C55.0144 7.71274 55.06 7.35467 55.06 6.8143C55.06 6.13722 55.0079 5.69776 54.9037 5.49594C54.8061 5.28761 54.64 5.18344 54.4057 5.18344C54.1387 5.18344 53.9727 5.27133 53.9076 5.44711C53.8425 5.61638 53.81 6.06235 53.81 6.785V8.14243ZM55.06 9.91977C54.4285 10.382 54.0606 10.7694 53.9565 11.0819C53.8588 11.3944 53.81 11.8436 53.81 12.4295C53.81 13.1001 53.8523 13.5331 53.9369 13.7284C54.0281 13.9237 54.2038 14.0213 54.4643 14.0213C54.7117 14.0213 54.8712 13.9465 54.9428 13.7967C55.0209 13.6405 55.06 13.2368 55.06 12.5858V9.91977Z" fill="#863333"/>
<path d="M64.4252 0.271332V16.0819H60.3627V0.271332H64.4252Z" fill="#863333"/>
<path d="M65.9682 0.271332H70.1088C71.2286 0.271332 72.088 0.359222 72.6869 0.535004C73.2924 0.710785 73.7449 0.964691 74.0443 1.29672C74.3503 1.62875 74.5554 2.0324 74.6596 2.50766C74.7703 2.97641 74.8256 3.70558 74.8256 4.69516V6.07211C74.8256 7.08123 74.7214 7.8169 74.5131 8.27914C74.3048 8.74138 73.9206 9.0962 73.3607 9.3436C72.8074 9.59099 72.0815 9.71469 71.183 9.71469H70.0795V16.0819H65.9682V0.271332ZM70.0795 2.97641V6.99985C70.1967 7.00636 70.2976 7.00961 70.3822 7.00961C70.7598 7.00961 71.0203 6.91847 71.1635 6.73618C71.3132 6.54737 71.3881 6.16 71.3881 5.57407V4.27524C71.3881 3.73487 71.3035 3.38331 71.1342 3.22055C70.9649 3.05779 70.6134 2.97641 70.0795 2.97641Z" fill="#863333"/>
<path d="M79.8354 3.12289L79.6791 4.82211C80.252 3.60467 81.0821 2.96013 82.1693 2.88852V7.44907C81.4467 7.44907 80.9161 7.54672 80.5775 7.74203C80.239 7.93735 80.0307 8.21078 79.9525 8.56235C79.8744 8.9074 79.8354 9.70818 79.8354 10.9647V16.0819H75.89V3.12289H79.8354Z" fill="#863333"/>
<path d="M91.9838 7.67368V10.8475C91.9838 12.0129 91.9252 12.869 91.808 13.4159C91.6908 13.9562 91.4402 14.464 91.0561 14.9393C90.6719 15.4081 90.1772 15.7564 89.5717 15.9842C88.9727 16.2056 88.2826 16.3163 87.5014 16.3163C86.629 16.3163 85.89 16.2219 85.2846 16.0331C84.6791 15.8377 84.2071 15.548 83.8686 15.1639C83.5365 14.7733 83.2989 14.3045 83.1557 13.7577C83.0124 13.2043 82.9408 12.3775 82.9408 11.2772V7.95688C82.9408 6.75245 83.071 5.8117 83.3315 5.13461C83.5919 4.45753 84.0606 3.91391 84.7377 3.50375C85.4148 3.0936 86.2807 2.88852 87.3354 2.88852C88.2208 2.88852 88.9792 3.02198 89.6107 3.28891C90.2488 3.54933 90.7403 3.89112 91.0854 4.3143C91.4304 4.73748 91.6648 5.17368 91.7885 5.62289C91.9187 6.07211 91.9838 6.75571 91.9838 7.67368ZM88.0385 6.69711C88.0385 6.03305 88.0027 5.61638 87.9311 5.44711C87.8594 5.27133 87.7065 5.18344 87.4721 5.18344C87.2377 5.18344 87.0815 5.27133 87.0033 5.44711C86.9252 5.61638 86.8861 6.03305 86.8861 6.69711V12.5467C86.8861 13.1587 86.9252 13.5591 87.0033 13.7479C87.0815 13.9302 87.2344 14.0213 87.4623 14.0213C87.6967 14.0213 87.8497 13.9367 87.9213 13.7674C87.9994 13.5982 88.0385 13.2336 88.0385 12.6737V6.69711Z" fill="#863333"/>
<path d="M97.4721 0.271332V2.33188H93.4096V0.271332H97.4721ZM97.4721 3.12289V13.3768C97.4721 14.5812 97.446 15.3983 97.394 15.828C97.3484 16.2511 97.1986 16.6222 96.9447 16.9413C96.6973 17.2668 96.3621 17.5077 95.9389 17.6639C95.5222 17.8202 94.894 17.8983 94.0541 17.8983H92.5307V15.828C92.9994 15.828 93.2631 15.7759 93.3217 15.6717C93.3803 15.5676 93.4096 14.9165 93.4096 13.7186V3.12289H97.4721Z" fill="#863333"/>
<path d="M107.833 9.83188H102.726V12.6346C102.726 13.2206 102.768 13.5982 102.853 13.7674C102.938 13.9367 103.1 14.0213 103.341 14.0213C103.641 14.0213 103.839 13.9107 103.937 13.6893C104.041 13.4614 104.093 13.0252 104.093 12.3807V10.6717H107.833V11.6288C107.833 12.4295 107.781 13.0448 107.677 13.4745C107.579 13.9041 107.345 14.3631 106.974 14.8514C106.603 15.3397 106.131 15.7075 105.558 15.9549C104.992 16.1958 104.279 16.3163 103.419 16.3163C102.586 16.3163 101.85 16.1958 101.212 15.9549C100.574 15.714 100.076 15.3853 99.7182 14.9686C99.3666 14.5454 99.1225 14.0832 98.9857 13.5819C98.849 13.0741 98.7807 12.3384 98.7807 11.3748V7.59555C98.7807 6.46274 98.9337 5.57081 99.2397 4.91977C99.5456 4.26222 100.047 3.76092 100.744 3.41586C101.44 3.0643 102.241 2.88852 103.146 2.88852C104.253 2.88852 105.164 3.10011 105.88 3.52328C106.603 3.93995 107.107 4.49659 107.394 5.19321C107.687 5.88331 107.833 6.85662 107.833 8.11313V9.83188ZM103.878 7.7225V6.77524C103.878 6.10467 103.843 5.67172 103.771 5.47641C103.699 5.2811 103.553 5.18344 103.331 5.18344C103.058 5.18344 102.889 5.26808 102.824 5.43735C102.759 5.60011 102.726 6.04607 102.726 6.77524V7.7225H103.878Z" fill="#863333"/>
<path d="M117.853 8.01547H114.132V6.52133C114.132 6.0005 114.09 5.64894 114.005 5.46664C113.921 5.27784 113.764 5.18344 113.537 5.18344C113.309 5.18344 113.156 5.26482 113.078 5.42758C112.999 5.59034 112.96 5.95493 112.96 6.52133V12.6346C112.96 13.0969 113.019 13.4452 113.136 13.6795C113.253 13.9074 113.426 14.0213 113.654 14.0213C113.921 14.0213 114.1 13.9009 114.191 13.66C114.288 13.4191 114.337 12.9634 114.337 12.2928V10.7498H117.853C117.846 11.785 117.807 12.563 117.736 13.0838C117.671 13.5982 117.453 14.1288 117.081 14.6756C116.717 15.216 116.238 15.6261 115.646 15.9061C115.053 16.1795 114.321 16.3163 113.449 16.3163C112.335 16.3163 111.453 16.1275 110.802 15.7498C110.151 15.3657 109.689 14.8319 109.415 14.1483C109.149 13.4582 109.015 12.4816 109.015 11.2186V7.53696C109.015 6.4367 109.126 5.60662 109.347 5.04672C109.568 4.48683 110.04 3.98878 110.763 3.55258C111.486 3.10987 112.365 2.88852 113.4 2.88852C114.428 2.88852 115.307 3.10662 116.037 3.54282C116.766 3.97901 117.251 4.52914 117.492 5.19321C117.732 5.85727 117.853 6.79802 117.853 8.01547Z" fill="#863333"/>
<path d="M123.195 1.39438V3.43539H124.259V5.48618H123.195V12.4198C123.195 13.2726 123.237 13.7479 123.322 13.8456C123.413 13.9432 123.781 13.992 124.425 13.992V16.0819H122.833C121.935 16.0819 121.294 16.0461 120.91 15.9745C120.525 15.8963 120.187 15.7238 119.894 15.4569C119.601 15.1834 119.419 14.8742 119.347 14.5291C119.275 14.1776 119.24 13.3573 119.24 12.0682V5.48618H118.39V3.43539H119.24V1.39438H123.195Z" fill="#863333"/>
<path d="M133.185 7.26352H129.689V6.56039C129.689 5.96144 129.653 5.58383 129.581 5.42758C129.516 5.26482 129.347 5.18344 129.074 5.18344C128.852 5.18344 128.686 5.25831 128.576 5.40805C128.465 5.55128 128.41 5.76938 128.41 6.06235C128.41 6.45948 128.436 6.75245 128.488 6.94125C128.546 7.12355 128.712 7.32537 128.986 7.54672C129.266 7.76808 129.835 8.09034 130.695 8.51352C131.841 9.07342 132.593 9.60076 132.951 10.0956C133.309 10.5903 133.488 11.3097 133.488 12.2538C133.488 13.3084 133.351 14.106 133.078 14.6463C132.804 15.1802 132.345 15.5936 131.701 15.8866C131.063 16.173 130.291 16.3163 129.386 16.3163C128.384 16.3163 127.524 16.16 126.808 15.8475C126.098 15.535 125.61 15.1118 125.343 14.578C125.076 14.0441 124.943 13.2368 124.943 12.1561V11.5311H128.439V12.3514C128.439 13.048 128.481 13.5005 128.566 13.7088C128.657 13.9172 128.833 14.0213 129.093 14.0213C129.373 14.0213 129.568 13.953 129.679 13.8163C129.79 13.673 129.845 13.3768 129.845 12.9276C129.845 12.3091 129.774 11.9217 129.63 11.7655C129.481 11.6092 128.716 11.147 127.335 10.3788C126.177 9.72771 125.47 9.13852 125.216 8.61118C124.962 8.07732 124.835 7.44581 124.835 6.71664C124.835 5.68149 124.972 4.91977 125.246 4.43149C125.519 3.9367 125.981 3.55584 126.632 3.28891C127.29 3.02198 128.052 2.88852 128.917 2.88852C129.777 2.88852 130.506 2.9992 131.105 3.22055C131.71 3.43539 132.173 3.72185 132.492 4.07993C132.817 4.438 133.012 4.77003 133.078 5.07602C133.149 5.38201 133.185 5.86052 133.185 6.51157V7.26352Z" fill="#863333"/>
<path d="M137.169 12.8592V16.0819H134.191V12.8592H137.169Z" fill="#863333"/>
<path d="M147.531 0.271332V16.0819H143.927L141.788 8.89438V16.0819H138.351V0.271332H141.788L144.093 7.39047V0.271332H147.531Z" fill="#863333"/>
<path d="M158.009 9.83188H152.902V12.6346C152.902 13.2206 152.944 13.5982 153.029 13.7674C153.113 13.9367 153.276 14.0213 153.517 14.0213C153.816 14.0213 154.015 13.9107 154.113 13.6893C154.217 13.4614 154.269 13.0252 154.269 12.3807V10.6717H158.009V11.6288C158.009 12.4295 157.957 13.0448 157.853 13.4745C157.755 13.9041 157.521 14.3631 157.15 14.8514C156.779 15.3397 156.307 15.7075 155.734 15.9549C155.167 16.1958 154.454 16.3163 153.595 16.3163C152.762 16.3163 152.026 16.1958 151.388 15.9549C150.75 15.714 150.252 15.3853 149.894 14.9686C149.542 14.5454 149.298 14.0832 149.162 13.5819C149.025 13.0741 148.956 12.3384 148.956 11.3748V7.59555C148.956 6.46274 149.109 5.57081 149.415 4.91977C149.721 4.26222 150.223 3.76092 150.919 3.41586C151.616 3.0643 152.417 2.88852 153.322 2.88852C154.428 2.88852 155.34 3.10011 156.056 3.52328C156.779 3.93995 157.283 4.49659 157.57 5.19321C157.863 5.88331 158.009 6.85662 158.009 8.11313V9.83188ZM154.054 7.7225V6.77524C154.054 6.10467 154.018 5.67172 153.947 5.47641C153.875 5.2811 153.729 5.18344 153.507 5.18344C153.234 5.18344 153.065 5.26808 152.999 5.43735C152.934 5.60011 152.902 6.04607 152.902 6.77524V7.7225H154.054Z" fill="#863333"/>
<path d="M163.468 1.39438V3.43539H164.533V5.48618H163.468V12.4198C163.468 13.2726 163.51 13.7479 163.595 13.8456C163.686 13.9432 164.054 13.992 164.699 13.992V16.0819H163.107C162.208 16.0819 161.567 16.0461 161.183 15.9745C160.799 15.8963 160.46 15.7238 160.167 15.4569C159.874 15.1834 159.692 14.8742 159.621 14.5291C159.549 14.1776 159.513 13.3573 159.513 12.0682V5.48618H158.663V3.43539H159.513V1.39438H163.468Z" fill="#863333"/>
<path d="M50.6572 29.2842V34.0303H46.9951V53H40.8281V34.0303H37.1807V29.2842H50.6572Z" fill="#AB3434"/>
<path d="M57.116 41.0908H51.5643V39.7871C51.5643 38.2832 51.7352 37.126 52.077 36.3154C52.4285 35.4951 53.1268 34.7725 54.1717 34.1475C55.2166 33.5225 56.574 33.21 58.2439 33.21C60.2459 33.21 61.7547 33.5664 62.7703 34.2793C63.7859 34.9824 64.3963 35.8516 64.6014 36.8867C64.8064 37.9121 64.909 40.0313 64.909 43.2441V53H59.1522V51.2715C58.7908 51.9649 58.3221 52.4873 57.7459 52.8389C57.1795 53.1807 56.5008 53.3516 55.7098 53.3516C54.6746 53.3516 53.7225 53.0635 52.8533 52.4873C51.9939 51.9014 51.5643 50.627 51.5643 48.6641V47.0674C51.5643 45.6123 51.7938 44.6211 52.2527 44.0938C52.7117 43.5664 53.8494 42.9512 55.6658 42.2481C57.6092 41.4863 58.6492 40.9736 58.7859 40.71C58.9227 40.4463 58.991 39.9092 58.991 39.0986C58.991 38.083 58.9129 37.4238 58.7566 37.1211C58.6102 36.8086 58.3611 36.6524 58.0096 36.6524C57.6092 36.6524 57.3602 36.7842 57.2625 37.0479C57.1648 37.3018 57.116 37.9707 57.116 39.0547V41.0908ZM58.991 43.7568C58.0438 44.4502 57.492 45.0313 57.3357 45.5C57.1893 45.9688 57.116 46.6426 57.116 47.5215C57.116 48.5274 57.1795 49.1768 57.3064 49.4697C57.4432 49.7627 57.7068 49.9092 58.0975 49.9092C58.4686 49.9092 58.7078 49.7969 58.8152 49.5723C58.9324 49.3379 58.991 48.7324 58.991 47.7559V43.7568Z" fill="#AB3434"/>
<path d="M80.8893 33.5615L78.4869 41.3106L81.607 53H75.9088L74.0631 44.5332V53H68.1451V29.2842H74.0631V39.2451L75.9088 33.5615H80.8893Z" fill="#AB3434"/>
<path d="M97.1039 43.625H89.4428V47.8291C89.4428 48.708 89.5063 49.2744 89.6332 49.5283C89.7602 49.7822 90.0043 49.9092 90.3656 49.9092C90.8148 49.9092 91.1127 49.7432 91.2592 49.4111C91.4154 49.0693 91.4936 48.415 91.4936 47.4482V44.8848H97.1039V46.3203C97.1039 47.5215 97.0258 48.4443 96.8695 49.0889C96.7231 49.7334 96.3715 50.4219 95.8148 51.1543C95.2582 51.8867 94.5502 52.4385 93.6908 52.8096C92.8412 53.1709 91.7719 53.3516 90.4828 53.3516C89.2328 53.3516 88.1293 53.1709 87.1723 52.8096C86.2152 52.4482 85.4682 51.9551 84.9311 51.3301C84.4037 50.6953 84.0375 50.002 83.8324 49.25C83.6273 48.4883 83.5248 47.3848 83.5248 45.9395V40.2705C83.5248 38.5713 83.7543 37.2334 84.2133 36.2568C84.6723 35.2705 85.4242 34.5186 86.4691 34.001C87.5141 33.4736 88.7152 33.21 90.0727 33.21C91.7328 33.21 93.1 33.5274 94.1742 34.1621C95.2582 34.7871 96.015 35.6221 96.4447 36.667C96.8842 37.7022 97.1039 39.1621 97.1039 41.0469V43.625ZM91.1713 40.4609V39.04C91.1713 38.0342 91.1176 37.3848 91.0102 37.0918C90.9027 36.7988 90.683 36.6524 90.351 36.6524C89.9408 36.6524 89.6869 36.7793 89.5893 37.0332C89.4916 37.2774 89.4428 37.9463 89.4428 39.04V40.4609H91.1713Z" fill="#AB3434"/>
<path d="M119.147 33.5615L117.448 47.624C117.185 49.8506 116.96 51.3691 116.774 52.1797C116.599 52.9902 116.301 53.6592 115.881 54.1865C115.461 54.7139 114.875 55.0996 114.123 55.3438C113.381 55.5977 112.189 55.7246 110.549 55.7246H106.96V52.6191C107.878 52.6191 108.469 52.5752 108.732 52.4873C108.996 52.3897 109.128 52.1797 109.128 51.8574C109.128 51.7012 109.006 51.0225 108.762 49.8213L105.524 33.5615H110.9L112.834 46.6719L113.771 33.5615H119.147Z" fill="#AB3434"/>
<path d="M134.791 40.3877V45.1484C134.791 46.8965 134.703 48.1807 134.527 49.001C134.351 49.8115 133.975 50.5732 133.399 51.2861C132.823 51.9893 132.081 52.5117 131.173 52.8535C130.274 53.1856 129.239 53.3516 128.067 53.3516C126.759 53.3516 125.65 53.21 124.742 52.9268C123.834 52.6338 123.126 52.1992 122.618 51.6231C122.12 51.0371 121.763 50.334 121.549 49.5137C121.334 48.6836 121.226 47.4434 121.226 45.793V40.8125C121.226 39.0059 121.422 37.5947 121.812 36.5791C122.203 35.5635 122.906 34.7481 123.922 34.1328C124.937 33.5176 126.236 33.21 127.818 33.21C129.146 33.21 130.284 33.4102 131.231 33.8106C132.188 34.2012 132.926 34.7139 133.443 35.3486C133.961 35.9834 134.312 36.6377 134.498 37.3115C134.693 37.9854 134.791 39.0107 134.791 40.3877ZM128.873 38.9229C128.873 37.9268 128.819 37.3018 128.712 37.0479C128.604 36.7842 128.375 36.6524 128.023 36.6524C127.672 36.6524 127.437 36.7842 127.32 37.0479C127.203 37.3018 127.144 37.9268 127.144 38.9229V47.6973C127.144 48.6152 127.203 49.2158 127.32 49.499C127.437 49.7725 127.667 49.9092 128.009 49.9092C128.36 49.9092 128.59 49.7822 128.697 49.5283C128.814 49.2744 128.873 48.7275 128.873 47.8877V38.9229Z" fill="#AB3434"/>
<path d="M151.504 33.5615V53H145.483L145.586 51.3887C145.175 52.043 144.668 52.5361 144.062 52.8682C143.466 53.1904 142.778 53.3516 141.997 53.3516C141.108 53.3516 140.371 53.1953 139.785 52.8828C139.199 52.5703 138.764 52.1553 138.481 51.6377C138.208 51.1201 138.037 50.583 137.968 50.0264C137.9 49.46 137.866 48.3418 137.866 46.6719V33.5615H143.784V46.7891C143.784 48.3027 143.828 49.2012 143.916 49.4844C144.013 49.7676 144.267 49.9092 144.677 49.9092C145.117 49.9092 145.376 49.7627 145.454 49.4697C145.542 49.1768 145.586 48.2344 145.586 46.6426V33.5615H151.504Z" fill="#AB3434"/>
<path d="M167.424 29.2842V32.375H161.33V29.2842H167.424ZM167.424 33.5615V53H161.33V33.5615H167.424Z" fill="#AB3434"/>
<path d="M176.783 33.5615L176.681 35.3486C177.11 34.6357 177.633 34.1035 178.248 33.752C178.873 33.3906 179.591 33.21 180.401 33.21C181.417 33.21 182.247 33.4492 182.892 33.9277C183.536 34.4063 183.951 35.0117 184.137 35.7441C184.322 36.4668 184.415 37.6777 184.415 39.377V53H178.497V39.5381C178.497 38.2002 178.453 37.3848 178.365 37.0918C178.277 36.7988 178.033 36.6524 177.633 36.6524C177.213 36.6524 176.949 36.8232 176.842 37.165C176.734 37.4971 176.681 38.3955 176.681 39.8604V53H170.763V33.5615H176.783Z" fill="#AB3434"/>
<path d="M193.906 30.9688V34.0303H195.503V37.1065H193.906V47.5068C193.906 48.7861 193.97 49.499 194.096 49.6455C194.233 49.792 194.785 49.8652 195.752 49.8652V53H193.364C192.016 53 191.055 52.9463 190.478 52.8389C189.902 52.7217 189.394 52.4629 188.955 52.0625C188.515 51.6524 188.242 51.1885 188.135 50.6709C188.027 50.1436 187.973 48.9131 187.973 46.9795V37.1065H186.699V34.0303H187.973V30.9688H193.906Z" fill="#AB3434"/>
<path d="M211.395 40.3877V45.1484C211.395 46.8965 211.307 48.1807 211.131 49.001C210.956 49.8115 210.58 50.5732 210.004 51.2861C209.427 51.9893 208.685 52.5117 207.777 52.8535C206.879 53.1856 205.843 53.3516 204.671 53.3516C203.363 53.3516 202.254 53.21 201.346 52.9268C200.438 52.6338 199.73 52.1992 199.222 51.6231C198.724 51.0371 198.368 50.334 198.153 49.5137C197.938 48.6836 197.831 47.4434 197.831 45.793V40.8125C197.831 39.0059 198.026 37.5947 198.417 36.5791C198.807 35.5635 199.51 34.7481 200.526 34.1328C201.542 33.5176 202.84 33.21 204.422 33.21C205.751 33.21 206.888 33.4102 207.836 33.8106C208.793 34.2012 209.53 34.7139 210.047 35.3486C210.565 35.9834 210.917 36.6377 211.102 37.3115C211.297 37.9854 211.395 39.0107 211.395 40.3877ZM205.477 38.9229C205.477 37.9268 205.423 37.3018 205.316 37.0479C205.209 36.7842 204.979 36.6524 204.628 36.6524C204.276 36.6524 204.042 36.7842 203.924 37.0479C203.807 37.3018 203.749 37.9268 203.749 38.9229V47.6973C203.749 48.6152 203.807 49.2158 203.924 49.499C204.042 49.7725 204.271 49.9092 204.613 49.9092C204.964 49.9092 205.194 49.7822 205.301 49.5283C205.419 49.2744 205.477 48.7275 205.477 47.8877V38.9229Z" fill="#AB3434"/>
<path d="M13.8211 70.5615L12.1219 84.624C11.8582 86.8506 11.6336 88.3691 11.448 89.1797C11.2723 89.9902 10.9744 90.6592 10.5545 91.1865C10.1346 91.7139 9.54863 92.0996 8.79668 92.3438C8.05449 92.5977 6.86309 92.7246 5.22246 92.7246H1.63359V89.6191C2.55156 89.6191 3.14238 89.5752 3.40606 89.4873C3.66973 89.3897 3.80156 89.1797 3.80156 88.8574C3.80156 88.7012 3.67949 88.0225 3.43535 86.8213L0.198048 70.5615H5.57402L7.50762 83.6719L8.44512 70.5615H13.8211Z" fill="#AB3434"/>
<path d="M29.4645 77.3877V82.1484C29.4645 83.8965 29.3766 85.1807 29.2008 86.001C29.025 86.8115 28.649 87.5732 28.0729 88.2861C27.4967 88.9893 26.7545 89.5117 25.8463 89.8535C24.9479 90.1856 23.9127 90.3516 22.7408 90.3516C21.4322 90.3516 20.3238 90.21 19.4156 89.9268C18.5074 89.6338 17.7994 89.1992 17.2916 88.6231C16.7936 88.0371 16.4371 87.334 16.2223 86.5137C16.0074 85.6836 15.9 84.4434 15.9 82.793V77.8125C15.9 76.0059 16.0953 74.5947 16.4859 73.5791C16.8766 72.5635 17.5797 71.7481 18.5953 71.1328C19.6109 70.5176 20.9098 70.21 22.4918 70.21C23.8199 70.21 24.9576 70.4102 25.9049 70.8106C26.8619 71.2012 27.5992 71.7139 28.1168 72.3486C28.6344 72.9834 28.9859 73.6377 29.1715 74.3115C29.3668 74.9854 29.4645 76.0107 29.4645 77.3877ZM23.5465 75.9229C23.5465 74.9268 23.4928 74.3018 23.3854 74.0479C23.2779 73.7842 23.0484 73.6524 22.6969 73.6524C22.3453 73.6524 22.1109 73.7842 21.9938 74.0479C21.8766 74.3018 21.818 74.9268 21.818 75.9229V84.6973C21.818 85.6152 21.8766 86.2158 21.9938 86.499C22.1109 86.7725 22.3404 86.9092 22.6822 86.9092C23.0338 86.9092 23.2633 86.7822 23.3707 86.5283C23.4879 86.2744 23.5465 85.7275 23.5465 84.8877V75.9229Z" fill="#AB3434"/>
<path d="M46.1772 70.5615V90H40.1566L40.2592 88.3887C39.849 89.043 39.3412 89.5361 38.7357 89.8682C38.14 90.1904 37.4516 90.3516 36.6703 90.3516C35.7816 90.3516 35.0443 90.1953 34.4584 89.8828C33.8725 89.5703 33.4379 89.1553 33.1547 88.6377C32.8813 88.1201 32.7104 87.583 32.642 87.0264C32.5736 86.46 32.5395 85.3418 32.5395 83.6719V70.5615H38.4574V83.7891C38.4574 85.3027 38.5014 86.2012 38.5893 86.4844C38.6869 86.7676 38.9408 86.9092 39.351 86.9092C39.7904 86.9092 40.0492 86.7627 40.1273 86.4697C40.2152 86.1768 40.2592 85.2344 40.2592 83.6426V70.5615H46.1772Z" fill="#AB3434"/>
<path d="M55.4191 70.5615L55.1848 73.1104C56.0441 71.2842 57.2893 70.3174 58.9201 70.21V77.0508C57.8361 77.0508 57.0402 77.1973 56.5324 77.4902C56.0246 77.7832 55.7121 78.1934 55.5949 78.7207C55.4777 79.2383 55.4191 80.4395 55.4191 82.3242V90H49.5012V70.5615H55.4191Z" fill="#AB3434"/>
<path d="M73.9764 70.5615L73.8738 72.3486C74.3035 71.6357 74.826 71.1035 75.4412 70.752C76.0662 70.3906 76.784 70.21 77.5945 70.21C78.6102 70.21 79.4402 70.4492 80.0848 70.9277C80.7293 71.4063 81.1443 72.0117 81.3299 72.7441C81.5154 73.4668 81.6082 74.6777 81.6082 76.377V90H75.6902V76.5381C75.6902 75.2002 75.6463 74.3848 75.5584 74.0918C75.4705 73.7988 75.2264 73.6524 74.826 73.6524C74.4061 73.6524 74.1424 73.8232 74.035 74.165C73.9275 74.4971 73.8738 75.3955 73.8738 76.8604V90H67.9559V70.5615H73.9764Z" fill="#AB3434"/>
<path d="M98.2623 80.625H90.6012V84.8291C90.6012 85.708 90.6646 86.2744 90.7916 86.5283C90.9185 86.7822 91.1627 86.9092 91.524 86.9092C91.9732 86.9092 92.2711 86.7432 92.4176 86.4111C92.5738 86.0693 92.6519 85.415 92.6519 84.4482V81.8848H98.2623V83.3203C98.2623 84.5215 98.1842 85.4443 98.0279 86.0889C97.8814 86.7334 97.5299 87.4219 96.9732 88.1543C96.4166 88.8867 95.7086 89.4385 94.8492 89.8096C93.9996 90.1709 92.9303 90.3516 91.6412 90.3516C90.3912 90.3516 89.2877 90.1709 88.3307 89.8096C87.3736 89.4482 86.6266 88.9551 86.0894 88.3301C85.5621 87.6953 85.1959 87.002 84.9908 86.25C84.7857 85.4883 84.6832 84.3848 84.6832 82.9395V77.2705C84.6832 75.5713 84.9127 74.2334 85.3717 73.2568C85.8307 72.2705 86.5826 71.5186 87.6275 71.001C88.6725 70.4736 89.8736 70.21 91.231 70.21C92.8912 70.21 94.2584 70.5274 95.3326 71.1621C96.4166 71.7871 97.1734 72.6221 97.6031 73.667C98.0426 74.7022 98.2623 76.1621 98.2623 78.0469V80.625ZM92.3297 77.4609V76.04C92.3297 75.0342 92.276 74.3848 92.1685 74.0918C92.0611 73.7988 91.8414 73.6524 91.5094 73.6524C91.0992 73.6524 90.8453 73.7793 90.7477 74.0332C90.65 74.2774 90.6012 74.9463 90.6012 76.04V77.4609H92.3297Z" fill="#AB3434"/>
<path d="M113.129 70.5615L110.771 79.8486L113.627 90H107.871C107.304 87.4414 106.874 85.2393 106.581 83.3936C106.191 85.6982 105.766 87.9004 105.307 90H100.356L102.905 79.8486L100.356 70.5615H105.307C106.098 74.5264 106.523 76.7774 106.581 77.3145C107.148 74.0039 107.578 71.7529 107.871 70.5615H113.129Z" fill="#AB3434"/>
<path d="M121.859 67.9688V71.0303H123.455V74.1065H121.859V84.5068C121.859 85.7861 121.922 86.499 122.049 86.6455C122.186 86.792 122.738 86.8652 123.704 86.8652V90H121.317C119.969 90 119.007 89.9463 118.431 89.8389C117.855 89.7217 117.347 89.4629 116.907 89.0625C116.468 88.6524 116.195 88.1885 116.087 87.6709C115.98 87.1436 115.926 85.9131 115.926 83.9795V74.1065H114.652V71.0303H115.926V67.9688H121.859Z" fill="#AB3434"/>
<path d="M138.555 66.2842V90H132.462V66.2842H138.555Z" fill="#AB3434"/>
<path d="M155.297 80.625H147.636V84.8291C147.636 85.708 147.7 86.2744 147.827 86.5283C147.954 86.7822 148.198 86.9092 148.559 86.9092C149.008 86.9092 149.306 86.7432 149.453 86.4111C149.609 86.0693 149.687 85.415 149.687 84.4482V81.8848H155.297V83.3203C155.297 84.5215 155.219 85.4443 155.063 86.0889C154.917 86.7334 154.565 87.4219 154.008 88.1543C153.452 88.8867 152.744 89.4385 151.884 89.8096C151.035 90.1709 149.965 90.3516 148.676 90.3516C147.426 90.3516 146.323 90.1709 145.366 89.8096C144.409 89.4482 143.662 88.9551 143.125 88.3301C142.597 87.6953 142.231 87.002 142.026 86.25C141.821 85.4883 141.718 84.3848 141.718 82.9395V77.2705C141.718 75.5713 141.948 74.2334 142.407 73.2568C142.866 72.2705 143.618 71.5186 144.663 71.001C145.708 70.4736 146.909 70.21 148.266 70.21C149.926 70.21 151.294 70.5274 152.368 71.1621C153.452 71.7871 154.209 72.6221 154.638 73.667C155.078 74.7022 155.297 76.1621 155.297 78.0469V80.625ZM149.365 77.4609V76.04C149.365 75.0342 149.311 74.3848 149.204 74.0918C149.096 73.7988 148.877 73.6524 148.545 73.6524C148.134 73.6524 147.88 73.7793 147.783 74.0332C147.685 74.2774 147.636 74.9463 147.636 76.04V77.4609H149.365Z" fill="#AB3434"/>
<path d="M170.677 70.5615L167.909 90H160.189L157.215 70.5615H162.503L164.159 84.7412C164.286 83.7061 164.5 81.167 164.803 77.124C164.979 74.8682 165.174 72.6807 165.389 70.5615H170.677Z" fill="#AB3434"/>
<path d="M186.174 80.625H178.513V84.8291C178.513 85.708 178.576 86.2744 178.703 86.5283C178.83 86.7822 179.074 86.9092 179.436 86.9092C179.885 86.9092 180.183 86.7432 180.329 86.4111C180.486 86.0693 180.564 85.415 180.564 84.4482V81.8848H186.174V83.3203C186.174 84.5215 186.096 85.4443 185.94 86.0889C185.793 86.7334 185.442 87.4219 184.885 88.1543C184.328 88.8867 183.62 89.4385 182.761 89.8096C181.911 90.1709 180.842 90.3516 179.553 90.3516C178.303 90.3516 177.199 90.1709 176.242 89.8096C175.285 89.4482 174.538 88.9551 174.001 88.3301C173.474 87.6953 173.108 87.002 172.903 86.25C172.697 85.4883 172.595 84.3848 172.595 82.9395V77.2705C172.595 75.5713 172.824 74.2334 173.283 73.2568C173.742 72.2705 174.494 71.5186 175.539 71.001C176.584 70.4736 177.785 70.21 179.143 70.21C180.803 70.21 182.17 70.5274 183.244 71.1621C184.328 71.7871 185.085 72.6221 185.515 73.667C185.954 74.7022 186.174 76.1621 186.174 78.0469V80.625ZM180.241 77.4609V76.04C180.241 75.0342 180.188 74.3848 180.08 74.0918C179.973 73.7988 179.753 73.6524 179.421 73.6524C179.011 73.6524 178.757 73.7793 178.659 74.0332C178.562 74.2774 178.513 74.9463 178.513 76.04V77.4609H180.241Z" fill="#AB3434"/>
<path d="M195.416 66.2842V90H189.322V66.2842H195.416Z" fill="#AB3434"/>
<path d="M218.646 77.3877V82.1484C218.646 83.8965 218.558 85.1807 218.382 86.001C218.207 86.8115 217.831 87.5732 217.254 88.2861C216.678 88.9893 215.936 89.5117 215.028 89.8535C214.129 90.1856 213.094 90.3516 211.922 90.3516C210.614 90.3516 209.505 90.21 208.597 89.9268C207.689 89.6338 206.981 89.1992 206.473 88.6231C205.975 88.0371 205.619 87.334 205.404 86.5137C205.189 85.6836 205.082 84.4434 205.082 82.793V77.8125C205.082 76.0059 205.277 74.5947 205.668 73.5791C206.058 72.5635 206.761 71.7481 207.777 71.1328C208.793 70.5176 210.091 70.21 211.673 70.21C213.002 70.21 214.139 70.4102 215.087 70.8106C216.044 71.2012 216.781 71.7139 217.298 72.3486C217.816 72.9834 218.168 73.6377 218.353 74.3115C218.548 74.9854 218.646 76.0107 218.646 77.3877ZM212.728 75.9229C212.728 74.9268 212.674 74.3018 212.567 74.0479C212.46 73.7842 212.23 73.6524 211.879 73.6524C211.527 73.6524 211.293 73.7842 211.175 74.0479C211.058 74.3018 211 74.9268 211 75.9229V84.6973C211 85.6152 211.058 86.2158 211.175 86.499C211.293 86.7725 211.522 86.9092 211.864 86.9092C212.215 86.9092 212.445 86.7822 212.552 86.5283C212.67 86.2744 212.728 85.7275 212.728 84.8877V75.9229Z" fill="#AB3434"/>
<path d="M229.353 66.2842V69.2871C228.132 69.2871 227.41 69.3457 227.185 69.4629C226.97 69.5703 226.863 69.8877 226.863 70.415V71.0303H229.353V74.1065H227.947V90H222.029V74.1065H220.813V71.0303H222.029C222.029 69.751 222.073 68.8965 222.161 68.4668C222.248 68.0371 222.463 67.6563 222.805 67.3242C223.157 66.9824 223.645 66.7236 224.27 66.5479C224.895 66.3721 225.867 66.2842 227.185 66.2842H229.353Z" fill="#AB3434"/>
<path d="M53.3373 107.562L50.935 115.311L54.0551 127H48.3568L46.5111 118.533V127H40.5932V103.284H46.5111V113.245L48.3568 107.562H53.3373Z" fill="#AB3434"/>
<path d="M62.1691 107.562L62.0666 109.349C62.4963 108.636 63.0187 108.104 63.634 107.752C64.259 107.391 64.9768 107.21 65.7873 107.21C66.8029 107.21 67.633 107.449 68.2775 107.928C68.9221 108.406 69.3371 109.012 69.5227 109.744C69.7082 110.467 69.801 111.678 69.801 113.377V127H63.883V113.538C63.883 112.2 63.8391 111.385 63.7512 111.092C63.6633 110.799 63.4191 110.652 63.0187 110.652C62.5988 110.652 62.3352 110.823 62.2277 111.165C62.1203 111.497 62.0666 112.396 62.0666 113.86V127H56.1486V107.562H62.1691Z" fill="#AB3434"/>
<path d="M86.4404 114.388V119.148C86.4404 120.896 86.3525 122.181 86.1768 123.001C86.001 123.812 85.625 124.573 85.0488 125.286C84.4727 125.989 83.7305 126.512 82.8223 126.854C81.9238 127.186 80.8887 127.352 79.7168 127.352C78.4082 127.352 77.2998 127.21 76.3916 126.927C75.4834 126.634 74.7754 126.199 74.2676 125.623C73.7695 125.037 73.4131 124.334 73.1982 123.514C72.9834 122.684 72.876 121.443 72.876 119.793V114.813C72.876 113.006 73.0713 111.595 73.4619 110.579C73.8525 109.563 74.5557 108.748 75.5713 108.133C76.5869 107.518 77.8857 107.21 79.4678 107.21C80.7959 107.21 81.9336 107.41 82.8809 107.811C83.8379 108.201 84.5752 108.714 85.0928 109.349C85.6104 109.983 85.9619 110.638 86.1475 111.312C86.3428 111.985 86.4404 113.011 86.4404 114.388ZM80.5225 112.923C80.5225 111.927 80.4688 111.302 80.3613 111.048C80.2539 110.784 80.0244 110.652 79.6729 110.652C79.3213 110.652 79.0869 110.784 78.9697 111.048C78.8525 111.302 78.7939 111.927 78.7939 112.923V121.697C78.7939 122.615 78.8525 123.216 78.9697 123.499C79.0869 123.772 79.3164 123.909 79.6582 123.909C80.0098 123.909 80.2393 123.782 80.3467 123.528C80.4639 123.274 80.5225 122.728 80.5225 121.888V112.923Z" fill="#AB3434"/>
<path d="M108.72 107.562L106.361 127H99.9305C99.5789 124.627 99.1736 121.502 98.7146 117.625C98.5584 119.324 98.3387 121.043 98.0555 122.781L97.3963 127H90.9656L88.4607 107.562H93.5584C93.5975 108.069 94.0271 111.775 94.8475 118.68C94.9061 117.977 95.3455 114.271 96.1658 107.562H101.073L102.274 118.68C102.46 115.438 102.909 111.731 103.622 107.562H108.72Z" fill="#AB3434"/>
<path d="M116.995 103.284V127H110.901V103.284H116.995Z" fill="#AB3434"/>
<path d="M133.737 117.625H126.076V121.829C126.076 122.708 126.139 123.274 126.266 123.528C126.393 123.782 126.637 123.909 126.998 123.909C127.448 123.909 127.746 123.743 127.892 123.411C128.048 123.069 128.126 122.415 128.126 121.448V118.885H133.737V120.32C133.737 121.521 133.659 122.444 133.502 123.089C133.356 123.733 133.004 124.422 132.448 125.154C131.891 125.887 131.183 126.438 130.324 126.81C129.474 127.171 128.405 127.352 127.116 127.352C125.866 127.352 124.762 127.171 123.805 126.81C122.848 126.448 122.101 125.955 121.564 125.33C121.037 124.695 120.67 124.002 120.465 123.25C120.26 122.488 120.158 121.385 120.158 119.939V114.271C120.158 112.571 120.387 111.233 120.846 110.257C121.305 109.271 122.057 108.519 123.102 108.001C124.147 107.474 125.348 107.21 126.705 107.21C128.366 107.21 129.733 107.527 130.807 108.162C131.891 108.787 132.648 109.622 133.078 110.667C133.517 111.702 133.737 113.162 133.737 115.047V117.625ZM127.804 114.461V113.04C127.804 112.034 127.75 111.385 127.643 111.092C127.536 110.799 127.316 110.652 126.984 110.652C126.574 110.652 126.32 110.779 126.222 111.033C126.124 111.277 126.076 111.946 126.076 113.04V114.461H127.804Z" fill="#AB3434"/>
<path d="M150.347 103.284V127H144.429V125.594C143.862 126.18 143.267 126.619 142.642 126.912C142.017 127.205 141.362 127.352 140.679 127.352C139.761 127.352 138.965 127.112 138.291 126.634C137.617 126.146 137.183 125.584 136.987 124.949C136.802 124.314 136.709 123.279 136.709 121.844V112.747C136.709 111.253 136.802 110.193 136.987 109.568C137.183 108.943 137.622 108.396 138.306 107.928C138.989 107.449 139.805 107.21 140.752 107.21C141.485 107.21 142.154 107.342 142.759 107.605C143.374 107.869 143.931 108.265 144.429 108.792V103.284H150.347ZM144.429 112.454C144.429 111.741 144.365 111.263 144.238 111.019C144.121 110.774 143.882 110.652 143.521 110.652C143.169 110.652 142.93 110.765 142.803 110.989C142.686 111.204 142.627 111.692 142.627 112.454V121.976C142.627 122.767 142.686 123.289 142.803 123.543C142.92 123.787 143.145 123.909 143.477 123.909C143.858 123.909 144.112 123.772 144.238 123.499C144.365 123.216 144.429 122.532 144.429 121.448V112.454Z" fill="#AB3434"/>
<path d="M167.118 107.562V122.532C167.118 124.554 167.069 125.862 166.972 126.458C166.884 127.044 166.557 127.664 165.99 128.318C165.424 128.982 164.633 129.485 163.617 129.827C162.611 130.179 161.342 130.354 159.809 130.354C157.924 130.354 156.41 130.032 155.268 129.388C154.125 128.753 153.534 127.498 153.495 125.623H159.237C159.237 126.482 159.55 126.912 160.175 126.912C160.624 126.912 160.922 126.78 161.068 126.517C161.215 126.253 161.288 125.701 161.288 124.861V123.396C160.78 123.855 160.243 124.202 159.677 124.437C159.12 124.671 158.534 124.788 157.919 124.788C156.854 124.788 155.976 124.573 155.282 124.144C154.599 123.714 154.13 123.152 153.876 122.459C153.622 121.756 153.495 120.76 153.495 119.471V112.41C153.495 110.564 153.827 109.236 154.491 108.426C155.155 107.615 156.166 107.21 157.523 107.21C158.266 107.21 158.939 107.361 159.545 107.664C160.16 107.967 160.707 108.421 161.186 109.026L161.61 107.562H167.118ZM161.186 112.718C161.186 111.829 161.132 111.263 161.024 111.019C160.927 110.774 160.702 110.652 160.351 110.652C160.009 110.652 159.765 110.794 159.618 111.077C159.481 111.351 159.413 111.897 159.413 112.718V119.251C159.413 120.12 159.467 120.687 159.574 120.95C159.682 121.204 159.906 121.331 160.248 121.331C160.639 121.331 160.893 121.175 161.01 120.862C161.127 120.55 161.186 119.842 161.186 118.738V112.718Z" fill="#AB3434"/>
<path d="M183.831 117.625H176.17V121.829C176.17 122.708 176.233 123.274 176.36 123.528C176.487 123.782 176.731 123.909 177.093 123.909C177.542 123.909 177.84 123.743 177.986 123.411C178.142 123.069 178.221 122.415 178.221 121.448V118.885H183.831V120.32C183.831 121.521 183.753 122.444 183.596 123.089C183.45 123.733 183.098 124.422 182.542 125.154C181.985 125.887 181.277 126.438 180.418 126.81C179.568 127.171 178.499 127.352 177.21 127.352C175.96 127.352 174.856 127.171 173.899 126.81C172.942 126.448 172.195 125.955 171.658 125.33C171.131 124.695 170.764 124.002 170.559 123.25C170.354 122.488 170.252 121.385 170.252 119.939V114.271C170.252 112.571 170.481 111.233 170.94 110.257C171.399 109.271 172.151 108.519 173.196 108.001C174.241 107.474 175.442 107.21 176.8 107.21C178.46 107.21 179.827 107.527 180.901 108.162C181.985 108.787 182.742 109.622 183.172 110.667C183.611 111.702 183.831 113.162 183.831 115.047V117.625ZM177.898 114.461V113.04C177.898 112.034 177.845 111.385 177.737 111.092C177.63 110.799 177.41 110.652 177.078 110.652C176.668 110.652 176.414 110.779 176.316 111.033C176.219 111.277 176.17 111.946 176.17 113.04V114.461H177.898Z" fill="#AB3434"/>
<path d="M190.92 122.166V127H186.452V122.166H190.92Z" fill="#AB3434"/>
</svg>
