<svg width="113" height="113" xmlns="http://www.w3.org/2000/svg"><defs><filter x="-50%" y="-50%" width="200%" height="200%" filterUnits="objectBoundingBox" id="a"><feOffset dy="2" in="SourceAlpha" result="shadowOffsetOuter1"/><feGaussianBlur stdDeviation="8" in="shadowOffsetOuter1" result="shadowBlurOuter1"/><feColorMatrix values="0 0 0 0 0 0 0 0 0 0 0 0 0 0 0 0 0 0 0.1 0" in="shadowBlurOuter1" result="shadowMatrixOuter1"/><feMerge><feMergeNode in="shadowMatrixOuter1"/><feMergeNode in="SourceGraphic"/></feMerge></filter></defs><g filter="url(#a)" transform="rotate(-24 89.854 -3.028)" fill="none" fill-rule="evenodd"><rect fill="#FFF" width="72" height="72" rx="20"/><path d="M37.638 60H14.65A2.65 2.65 0 0 1 12 57.35v-42.7A2.649 2.649 0 0 1 14.65 12h42.7A2.649 2.649 0 0 1 60 14.65v42.7A2.65 2.65 0 0 1 57.351 60H45.119V41.412h6.24l.934-7.244h-7.174v-4.625c0-2.098.583-3.527 3.59-3.527l3.836-.002v-6.479c-.663-.088-2.94-.285-5.59-.285-5.53 0-9.317 3.376-9.317 9.575v5.343h-6.255v7.244h6.255V60z" fill="#4460A0"/></g></svg>