<svg width="106" height="108" xmlns="http://www.w3.org/2000/svg"><defs><filter x="-50%" y="-50%" width="200%" height="200%" filterUnits="objectBoundingBox" id="a"><feOffset dy="2" in="SourceAlpha" result="shadowOffsetOuter1"/><feGaussianBlur stdDeviation="8" in="shadowOffsetOuter1" result="shadowBlurOuter1"/><feColorMatrix values="0 0 0 0 0 0 0 0 0 0 0 0 0 0 0 0 0 0 0.1 0" in="shadowBlurOuter1" result="shadowMatrixOuter1"/><feMerge><feMergeNode in="shadowMatrixOuter1"/><feMergeNode in="SourceGraphic"/></feMerge></filter></defs><g filter="url(#a)" transform="rotate(7 -86.299 182.974)" fill="none" fill-rule="evenodd"><rect fill="#FFF" width="72" height="72" rx="20"/><path d="M56.277 32.56v-5.718h-4.088v5.717h-5.887v4.085h5.887v5.88h4.088v-5.88H62v-4.085h-5.723zm-29.761-.327v6.534s6.345-.008 8.929-.008c-1.4 4.236-3.575 6.543-8.93 6.543-5.418 0-9.647-4.389-9.647-9.802 0-5.413 4.23-9.802 9.648-9.802 2.865 0 4.715 1.006 6.412 2.408 1.359-1.357 1.245-1.55 4.701-4.811A16.464 16.464 0 0 0 26.516 19C17.394 19 10 26.387 10 35.5S17.394 52 26.516 52c13.634 0 16.966-11.86 15.861-19.767H26.516z" fill="#F93F2D"/></g></svg>