<svg width="107" height="108" xmlns="http://www.w3.org/2000/svg"><defs><filter x="-50%" y="-50%" width="200%" height="200%" filterUnits="objectBoundingBox" id="a"><feOffset dy="2" in="SourceAlpha" result="shadowOffsetOuter1"/><feGaussianBlur stdDeviation="8" in="shadowOffsetOuter1" result="shadowBlurOuter1"/><feColorMatrix values="0 0 0 0 0 0 0 0 0 0 0 0 0 0 0 0 0 0 0.1 0" in="shadowBlurOuter1" result="shadowMatrixOuter1"/><feMerge><feMergeNode in="shadowMatrixOuter1"/><feMergeNode in="SourceGraphic"/></feMerge></filter></defs><g filter="url(#a)" transform="rotate(8 -68.85 170.223)" fill="none" fill-rule="evenodd"><rect fill="#FFF" width="72" height="72" rx="20"/><path d="M12 22.964c1.172-1.612 2.04-3.422 3.347-4.955 2.04-2.393 4.462-4.265 7.243-5.71.674-.35 1.174-.402 1.754.222 1.343 1.445 2.759 2.82 4.145 4.225-5.337 2.426-9.18 6.347-11.645 11.646-1.7-1.45-3.067-3.25-4.844-4.619v-.809zm16.664-6.192c8.093-3.325 15.693-2.292 22.561 2.99 7.326 5.632 10.209 14.963 7.692 23.753-2.488 8.69-10.012 14.997-19.16 16.064-16.667 1.943-29.551-15.16-23.1-30.664.051-.122.145-.227.22-.339 5.668 5.624 11.335 11.25 17.008 16.868.378.375.691.835 1.218 1.038 2.027.693 4.126 1.06 6.238 1.366 2.612.815 5.329 1.134 8.259 1.816-.55-2.942-1.07-5.724-1.592-8.507-.503-2.063-.613-4.22-1.47-6.2-.456-.903-1.28-1.478-1.966-2.17-5.292-5.348-10.603-10.68-15.908-16.015" fill="#01AFE9"/><path d="M35.103 46.482c-.527-.203-.84-.663-1.218-1.037-5.673-5.62-11.34-11.245-17.009-16.869a.935.935 0 0 1-.032-.184c2.464-5.3 6.308-9.22 11.645-11.646.06.002.118.011.176.026 5.304 5.336 10.615 10.666 15.907 16.015.685.692 1.51 1.267 1.967 2.17-5.24 2.425-9.082 6.237-11.436 11.525" fill="#13384C"/><path d="M35.103 46.482c2.354-5.288 6.195-9.1 11.436-11.525.856 1.98.966 4.137 1.47 6.2-3.026 1.429-5.298 3.61-6.668 6.691-2.112-.307-4.21-.673-6.238-1.366" fill="#FEFEFE"/><path d="M41.341 47.848c1.37-3.08 3.642-5.262 6.668-6.69l1.591 8.506c-2.93-.682-5.647-1.001-8.259-1.816" fill="#13384C"/></g></svg>