<svg width="112" height="111" xmlns="http://www.w3.org/2000/svg"><defs><filter x="-50%" y="-50%" width="200%" height="200%" filterUnits="objectBoundingBox" id="a"><feOffset dy="2" in="SourceAlpha" result="shadowOffsetOuter1"/><feGaussianBlur stdDeviation="8" in="shadowOffsetOuter1" result="shadowBlurOuter1"/><feColorMatrix values="0 0 0 0 0 0 0 0 0 0 0 0 0 0 0 0 0 0 0.1 0" in="shadowBlurOuter1" result="shadowMatrixOuter1"/><feMerge><feMergeNode in="shadowMatrixOuter1"/><feMergeNode in="SourceGraphic"/></feMerge></filter></defs><g filter="url(#a)" transform="rotate(17 -13.306 111.612)" fill="none" fill-rule="evenodd"><rect fill="#FFF" width="72" height="72" rx="20"/><path d="M60 20.735a19.235 19.235 0 0 1-5.655 1.59 10.076 10.076 0 0 0 4.33-5.585 19.395 19.395 0 0 1-6.257 2.447C50.627 17.225 48.066 16 45.231 16c-5.435 0-9.844 4.521-9.844 10.098 0 .791.085 1.56.254 2.3-8.185-.423-15.44-4.438-20.3-10.555a10.281 10.281 0 0 0-1.332 5.082c0 3.502 1.738 6.593 4.38 8.405a9.668 9.668 0 0 1-4.462-1.26v.124c0 4.894 3.395 8.977 7.903 9.901a9.39 9.39 0 0 1-2.595.356 9.523 9.523 0 0 1-1.854-.18c1.254 4.01 4.888 6.932 9.199 7.01-3.37 2.71-7.618 4.325-12.23 4.325-.795 0-1.58-.047-2.35-.139C16.359 54.327 21.537 56 27.096 56c18.115 0 28.019-15.385 28.019-28.73 0-.439-.009-.878-.026-1.308A20.211 20.211 0 0 0 60 20.735" fill="#00AAEC"/></g></svg>